M48
; DRILL file {KiCad (6.0.1)} date Sun Feb 20 14:47:35 2022
; FORMAT={-:-/ absolute / inch / decimal}
; #@! TF.CreationDate,2022-02-20T14:47:35+01:00
; #@! TF.GenerationSoftware,Kicad,Pcbnew,(6.0.1)
; #@! TF.FileFunction,Plated,1,2,PTH
FMAT,2
INCH
; #@! TA.AperFunction,Plated,PTH,ViaDrill
T1C0.0157
; #@! TA.AperFunction,Plated,PTH,ComponentDrill
T2C0.0300
; #@! TA.AperFunction,Plated,PTH,ComponentDrill
T3C0.0354
; #@! TA.AperFunction,Plated,PTH,ComponentDrill
T4C0.0472
; #@! TA.AperFunction,Plated,PTH,ComponentDrill
T5C0.0500
; #@! TA.AperFunction,Plated,PTH,ComponentDrill
T6C0.0512
; #@! TA.AperFunction,Plated,PTH,ComponentDrill
T7C0.0520
; #@! TA.AperFunction,Plated,PTH,ComponentDrill
T8C0.0669
%
G90
G05
T1
X0.7Y-3.0
X0.8Y-4.1
X0.9Y-1.4
X0.9Y-1.6
X0.9Y-2.6
X0.9Y-3.4
X1.2Y-4.4
X1.3Y-2.9
X1.3728Y-2.1
X1.4Y-2.7
X1.5Y-1.6
X1.5Y-3.3
X1.7626Y-4.8374
X1.8Y-3.2386
X2.2Y-2.9
X2.4Y-2.3
X2.4Y-3.0
X2.4Y-4.3
X2.5Y-4.8
X2.7Y-4.4
X2.7Y-4.6
X2.9Y-4.3
X2.9Y-4.7
X3.1Y-4.8
X3.2Y-4.6
X3.4Y-4.4
X3.7Y-4.3
T2
X0.75Y-3.55
X0.75Y-3.85
X0.75Y-4.3
X0.75Y-4.6
X0.85Y-3.55
X0.85Y-3.85
X0.85Y-4.3
X0.85Y-4.6
X0.95Y-3.55
X0.95Y-3.85
X0.95Y-4.3
X0.95Y-4.6
X1.05Y-3.55
X1.05Y-3.85
X1.05Y-4.3
X1.05Y-4.6
X1.15Y-3.55
X1.15Y-3.85
X1.15Y-4.3
X1.15Y-4.6
X1.25Y-3.55
X1.25Y-3.85
X1.25Y-4.3
X1.25Y-4.6
X1.35Y-3.55
X1.35Y-3.85
X1.35Y-4.3
X1.35Y-4.6
X1.45Y-3.55
X1.45Y-3.85
X1.45Y-4.3
X1.45Y-4.6
X1.55Y-3.55
X1.55Y-3.85
X1.55Y-4.3
X1.55Y-4.6
X1.65Y-3.55
X1.65Y-3.85
X1.65Y-4.3
X1.65Y-4.6
T3
X3.3Y-2.3
X3.3Y-2.4
X3.6Y-4.1
X3.6Y-4.2
T4
X1.7Y-1.2181
X1.7Y-1.415
X2.1Y-2.7
X2.1063Y-1.9
X2.3Y-1.2181
X2.3Y-1.415
X2.4Y-3.7
X2.4Y-4.5
X2.4937Y-2.7
X2.5Y-1.9
X2.7937Y-3.7
X2.7937Y-4.5
X2.9Y-1.2181
X2.9Y-1.415
X2.9Y-1.8
X2.9Y-1.9969
X2.9Y-2.6
X2.9Y-2.7969
X3.0Y-3.2
X3.0Y-3.3969
X3.1Y-4.0
X3.1Y-4.1969
X3.5Y-1.2181
X3.5Y-1.415
T5
X1.0Y-1.55
X1.0Y-1.65
X1.0Y-1.75
X1.0Y-1.85
X1.0Y-1.95
X1.0Y-2.05
X1.0Y-2.15
X1.0Y-2.55
X1.0Y-2.65
X1.0Y-2.75
X1.0Y-2.85
X1.0Y-2.95
X1.0Y-3.05
X1.0Y-3.15
X1.2Y-1.5
X1.2Y-1.6
X1.2Y-1.7
X1.2Y-1.8
X1.2Y-1.9
X1.2Y-2.0
X1.2Y-2.1
X1.2Y-2.2
X1.2Y-2.5
X1.2Y-2.6
X1.2Y-2.7
X1.2Y-2.8
X1.2Y-2.9
X1.2Y-3.0
X1.2Y-3.1
X1.2Y-3.2
T6
X2.0953Y-0.9
X2.3Y-0.9
X2.6976Y-0.9
X2.9024Y-0.9
T7
X1.0Y-0.9181
X1.0Y-1.115
X3.5Y-1.9031
X3.5Y-2.1
X3.6Y-3.5
X3.6Y-3.6969
T8
X1.7Y-0.8
X1.8559Y-0.8
X3.6Y-2.7
X3.6Y-2.8559
T0
M30
