%TF.GenerationSoftware,KiCad,Pcbnew,(6.0.1)*%
%TF.CreationDate,2022-02-20T14:47:32+01:00*%
%TF.ProjectId,PSU,5053552e-6b69-4636-9164-5f7063625858,rev?*%
%TF.SameCoordinates,Original*%
%TF.FileFunction,Legend,Top*%
%TF.FilePolarity,Positive*%
%FSLAX46Y46*%
G04 Gerber Fmt 4.6, Leading zero omitted, Abs format (unit mm)*
G04 Created by KiCad (PCBNEW (6.0.1)) date 2022-02-20 14:47:32*
%MOMM*%
%LPD*%
G01*
G04 APERTURE LIST*
%ADD10C,0.150000*%
%ADD11C,0.120000*%
G04 APERTURE END LIST*
D10*
X90006666Y-84272380D02*
X89606666Y-84272380D01*
X89806666Y-84272380D02*
X89806666Y-83272380D01*
X89740000Y-83415238D01*
X89673333Y-83510476D01*
X89606666Y-83558095D01*
X90273333Y-83367619D02*
X90306666Y-83320000D01*
X90373333Y-83272380D01*
X90540000Y-83272380D01*
X90606666Y-83320000D01*
X90640000Y-83367619D01*
X90673333Y-83462857D01*
X90673333Y-83558095D01*
X90640000Y-83700952D01*
X90240000Y-84272380D01*
X90673333Y-84272380D01*
X90873333Y-83272380D02*
X91106666Y-84272380D01*
X91340000Y-83272380D01*
X91706666Y-83272380D02*
X91840000Y-83272380D01*
X91906666Y-83320000D01*
X91973333Y-83415238D01*
X92006666Y-83605714D01*
X92006666Y-83939047D01*
X91973333Y-84129523D01*
X91906666Y-84224761D01*
X91840000Y-84272380D01*
X91706666Y-84272380D01*
X91640000Y-84224761D01*
X91573333Y-84129523D01*
X91540000Y-83939047D01*
X91540000Y-83605714D01*
X91573333Y-83415238D01*
X91640000Y-83320000D01*
X91706666Y-83272380D01*
X92306666Y-83272380D02*
X92306666Y-84081904D01*
X92340000Y-84177142D01*
X92373333Y-84224761D01*
X92440000Y-84272380D01*
X92573333Y-84272380D01*
X92640000Y-84224761D01*
X92673333Y-84177142D01*
X92706666Y-84081904D01*
X92706666Y-83272380D01*
X92940000Y-83272380D02*
X93340000Y-83272380D01*
X93140000Y-84272380D02*
X93140000Y-83272380D01*
X95972380Y-52419047D02*
X95972380Y-52895238D01*
X96448571Y-52942857D01*
X96400952Y-52895238D01*
X96353333Y-52800000D01*
X96353333Y-52561904D01*
X96400952Y-52466666D01*
X96448571Y-52419047D01*
X96543809Y-52371428D01*
X96781904Y-52371428D01*
X96877142Y-52419047D01*
X96924761Y-52466666D01*
X96972380Y-52561904D01*
X96972380Y-52800000D01*
X96924761Y-52895238D01*
X96877142Y-52942857D01*
X95972380Y-52085714D02*
X96972380Y-51752380D01*
X95972380Y-51419047D01*
X95972380Y-50895238D02*
X95972380Y-50704761D01*
X96020000Y-50609523D01*
X96115238Y-50514285D01*
X96305714Y-50466666D01*
X96639047Y-50466666D01*
X96829523Y-50514285D01*
X96924761Y-50609523D01*
X96972380Y-50704761D01*
X96972380Y-50895238D01*
X96924761Y-50990476D01*
X96829523Y-51085714D01*
X96639047Y-51133333D01*
X96305714Y-51133333D01*
X96115238Y-51085714D01*
X96020000Y-50990476D01*
X95972380Y-50895238D01*
X95972380Y-50038095D02*
X96781904Y-50038095D01*
X96877142Y-49990476D01*
X96924761Y-49942857D01*
X96972380Y-49847619D01*
X96972380Y-49657142D01*
X96924761Y-49561904D01*
X96877142Y-49514285D01*
X96781904Y-49466666D01*
X95972380Y-49466666D01*
X95972380Y-49133333D02*
X95972380Y-48561904D01*
X96972380Y-48847619D02*
X95972380Y-48847619D01*
X65644761Y-22788571D02*
X65978095Y-22788571D01*
X66120952Y-23312380D02*
X65644761Y-23312380D01*
X65644761Y-22312380D01*
X66120952Y-22312380D01*
X66549523Y-22312380D02*
X66549523Y-23121904D01*
X66597142Y-23217142D01*
X66644761Y-23264761D01*
X66740000Y-23312380D01*
X66930476Y-23312380D01*
X67025714Y-23264761D01*
X67073333Y-23217142D01*
X67120952Y-23121904D01*
X67120952Y-22312380D01*
X68168571Y-23312380D02*
X67835238Y-22836190D01*
X67597142Y-23312380D02*
X67597142Y-22312380D01*
X67978095Y-22312380D01*
X68073333Y-22360000D01*
X68120952Y-22407619D01*
X68168571Y-22502857D01*
X68168571Y-22645714D01*
X68120952Y-22740952D01*
X68073333Y-22788571D01*
X67978095Y-22836190D01*
X67597142Y-22836190D01*
X68787619Y-22312380D02*
X68978095Y-22312380D01*
X69073333Y-22360000D01*
X69168571Y-22455238D01*
X69216190Y-22645714D01*
X69216190Y-22979047D01*
X69168571Y-23169523D01*
X69073333Y-23264761D01*
X68978095Y-23312380D01*
X68787619Y-23312380D01*
X68692380Y-23264761D01*
X68597142Y-23169523D01*
X68549523Y-22979047D01*
X68549523Y-22645714D01*
X68597142Y-22455238D01*
X68692380Y-22360000D01*
X68787619Y-22312380D01*
X69978095Y-22788571D02*
X70120952Y-22836190D01*
X70168571Y-22883809D01*
X70216190Y-22979047D01*
X70216190Y-23121904D01*
X70168571Y-23217142D01*
X70120952Y-23264761D01*
X70025714Y-23312380D01*
X69644761Y-23312380D01*
X69644761Y-22312380D01*
X69978095Y-22312380D01*
X70073333Y-22360000D01*
X70120952Y-22407619D01*
X70168571Y-22502857D01*
X70168571Y-22598095D01*
X70120952Y-22693333D01*
X70073333Y-22740952D01*
X69978095Y-22788571D01*
X69644761Y-22788571D01*
X70835238Y-22312380D02*
X71025714Y-22312380D01*
X71120952Y-22360000D01*
X71216190Y-22455238D01*
X71263809Y-22645714D01*
X71263809Y-22979047D01*
X71216190Y-23169523D01*
X71120952Y-23264761D01*
X71025714Y-23312380D01*
X70835238Y-23312380D01*
X70740000Y-23264761D01*
X70644761Y-23169523D01*
X70597142Y-22979047D01*
X70597142Y-22645714D01*
X70644761Y-22455238D01*
X70740000Y-22360000D01*
X70835238Y-22312380D01*
X71549523Y-22312380D02*
X72120952Y-22312380D01*
X71835238Y-23312380D02*
X71835238Y-22312380D01*
X73216190Y-23312380D02*
X73216190Y-22312380D01*
X73597142Y-22312380D01*
X73692380Y-22360000D01*
X73740000Y-22407619D01*
X73787619Y-22502857D01*
X73787619Y-22645714D01*
X73740000Y-22740952D01*
X73692380Y-22788571D01*
X73597142Y-22836190D01*
X73216190Y-22836190D01*
X74168571Y-23264761D02*
X74311428Y-23312380D01*
X74549523Y-23312380D01*
X74644761Y-23264761D01*
X74692380Y-23217142D01*
X74740000Y-23121904D01*
X74740000Y-23026666D01*
X74692380Y-22931428D01*
X74644761Y-22883809D01*
X74549523Y-22836190D01*
X74359047Y-22788571D01*
X74263809Y-22740952D01*
X74216190Y-22693333D01*
X74168571Y-22598095D01*
X74168571Y-22502857D01*
X74216190Y-22407619D01*
X74263809Y-22360000D01*
X74359047Y-22312380D01*
X74597142Y-22312380D01*
X74740000Y-22360000D01*
X75168571Y-22312380D02*
X75168571Y-23121904D01*
X75216190Y-23217142D01*
X75263809Y-23264761D01*
X75359047Y-23312380D01*
X75549523Y-23312380D01*
X75644761Y-23264761D01*
X75692380Y-23217142D01*
X75740000Y-23121904D01*
X75740000Y-22312380D01*
X76978095Y-22931428D02*
X77740000Y-22931428D01*
X78930476Y-23026666D02*
X79406666Y-23026666D01*
X78835238Y-23312380D02*
X79168571Y-22312380D01*
X79501904Y-23312380D01*
X80406666Y-23312380D02*
X80073333Y-22836190D01*
X79835238Y-23312380D02*
X79835238Y-22312380D01*
X80216190Y-22312380D01*
X80311428Y-22360000D01*
X80359047Y-22407619D01*
X80406666Y-22502857D01*
X80406666Y-22645714D01*
X80359047Y-22740952D01*
X80311428Y-22788571D01*
X80216190Y-22836190D01*
X79835238Y-22836190D01*
X80835238Y-22788571D02*
X81168571Y-22788571D01*
X81311428Y-23312380D02*
X80835238Y-23312380D01*
X80835238Y-22312380D01*
X81311428Y-22312380D01*
X81740000Y-23312380D02*
X81740000Y-22312380D01*
X82073333Y-23026666D01*
X82406666Y-22312380D01*
X82406666Y-23312380D01*
X83644761Y-23312380D02*
X83644761Y-22312380D01*
X84073333Y-23264761D02*
X84216190Y-23312380D01*
X84454285Y-23312380D01*
X84549523Y-23264761D01*
X84597142Y-23217142D01*
X84644761Y-23121904D01*
X84644761Y-23026666D01*
X84597142Y-22931428D01*
X84549523Y-22883809D01*
X84454285Y-22836190D01*
X84263809Y-22788571D01*
X84168571Y-22740952D01*
X84120952Y-22693333D01*
X84073333Y-22598095D01*
X84073333Y-22502857D01*
X84120952Y-22407619D01*
X84168571Y-22360000D01*
X84263809Y-22312380D01*
X84501904Y-22312380D01*
X84644761Y-22360000D01*
X85073333Y-23312380D02*
X85073333Y-22312380D01*
X85406666Y-23026666D01*
X85740000Y-22312380D01*
X85740000Y-23312380D01*
X86216190Y-23312380D02*
X86216190Y-22312380D01*
X86692380Y-23312380D02*
X86692380Y-22312380D01*
X87263809Y-23312380D01*
X87263809Y-22312380D01*
X88454285Y-22407619D02*
X88501904Y-22360000D01*
X88597142Y-22312380D01*
X88835238Y-22312380D01*
X88930476Y-22360000D01*
X88978095Y-22407619D01*
X89025714Y-22502857D01*
X89025714Y-22598095D01*
X88978095Y-22740952D01*
X88406666Y-23312380D01*
X89025714Y-23312380D01*
X89644761Y-22312380D02*
X89740000Y-22312380D01*
X89835238Y-22360000D01*
X89882857Y-22407619D01*
X89930476Y-22502857D01*
X89978095Y-22693333D01*
X89978095Y-22931428D01*
X89930476Y-23121904D01*
X89882857Y-23217142D01*
X89835238Y-23264761D01*
X89740000Y-23312380D01*
X89644761Y-23312380D01*
X89549523Y-23264761D01*
X89501904Y-23217142D01*
X89454285Y-23121904D01*
X89406666Y-22931428D01*
X89406666Y-22693333D01*
X89454285Y-22502857D01*
X89501904Y-22407619D01*
X89549523Y-22360000D01*
X89644761Y-22312380D01*
X90359047Y-22407619D02*
X90406666Y-22360000D01*
X90501904Y-22312380D01*
X90740000Y-22312380D01*
X90835238Y-22360000D01*
X90882857Y-22407619D01*
X90930476Y-22502857D01*
X90930476Y-22598095D01*
X90882857Y-22740952D01*
X90311428Y-23312380D01*
X90930476Y-23312380D01*
X91311428Y-22407619D02*
X91359047Y-22360000D01*
X91454285Y-22312380D01*
X91692380Y-22312380D01*
X91787619Y-22360000D01*
X91835238Y-22407619D01*
X91882857Y-22502857D01*
X91882857Y-22598095D01*
X91835238Y-22740952D01*
X91263809Y-23312380D01*
X91882857Y-23312380D01*
%TO.C,SW1*%
X43826666Y-15824761D02*
X43969523Y-15872380D01*
X44207619Y-15872380D01*
X44302857Y-15824761D01*
X44350476Y-15777142D01*
X44398095Y-15681904D01*
X44398095Y-15586666D01*
X44350476Y-15491428D01*
X44302857Y-15443809D01*
X44207619Y-15396190D01*
X44017142Y-15348571D01*
X43921904Y-15300952D01*
X43874285Y-15253333D01*
X43826666Y-15158095D01*
X43826666Y-15062857D01*
X43874285Y-14967619D01*
X43921904Y-14920000D01*
X44017142Y-14872380D01*
X44255238Y-14872380D01*
X44398095Y-14920000D01*
X44731428Y-14872380D02*
X44969523Y-15872380D01*
X45160000Y-15158095D01*
X45350476Y-15872380D01*
X45588571Y-14872380D01*
X46493333Y-15872380D02*
X45921904Y-15872380D01*
X46207619Y-15872380D02*
X46207619Y-14872380D01*
X46112380Y-15015238D01*
X46017142Y-15110476D01*
X45921904Y-15158095D01*
%TO.C,C5*%
X40587142Y-85576666D02*
X40634761Y-85624285D01*
X40682380Y-85767142D01*
X40682380Y-85862380D01*
X40634761Y-86005238D01*
X40539523Y-86100476D01*
X40444285Y-86148095D01*
X40253809Y-86195714D01*
X40110952Y-86195714D01*
X39920476Y-86148095D01*
X39825238Y-86100476D01*
X39730000Y-86005238D01*
X39682380Y-85862380D01*
X39682380Y-85767142D01*
X39730000Y-85624285D01*
X39777619Y-85576666D01*
X39682380Y-84671904D02*
X39682380Y-85148095D01*
X40158571Y-85195714D01*
X40110952Y-85148095D01*
X40063333Y-85052857D01*
X40063333Y-84814761D01*
X40110952Y-84719523D01*
X40158571Y-84671904D01*
X40253809Y-84624285D01*
X40491904Y-84624285D01*
X40587142Y-84671904D01*
X40634761Y-84719523D01*
X40682380Y-84814761D01*
X40682380Y-85052857D01*
X40634761Y-85148095D01*
X40587142Y-85195714D01*
%TO.C,C15*%
X93337142Y-112117142D02*
X93289523Y-112164761D01*
X93146666Y-112212380D01*
X93051428Y-112212380D01*
X92908571Y-112164761D01*
X92813333Y-112069523D01*
X92765714Y-111974285D01*
X92718095Y-111783809D01*
X92718095Y-111640952D01*
X92765714Y-111450476D01*
X92813333Y-111355238D01*
X92908571Y-111260000D01*
X93051428Y-111212380D01*
X93146666Y-111212380D01*
X93289523Y-111260000D01*
X93337142Y-111307619D01*
X94289523Y-112212380D02*
X93718095Y-112212380D01*
X94003809Y-112212380D02*
X94003809Y-111212380D01*
X93908571Y-111355238D01*
X93813333Y-111450476D01*
X93718095Y-111498095D01*
X95194285Y-111212380D02*
X94718095Y-111212380D01*
X94670476Y-111688571D01*
X94718095Y-111640952D01*
X94813333Y-111593333D01*
X95051428Y-111593333D01*
X95146666Y-111640952D01*
X95194285Y-111688571D01*
X95241904Y-111783809D01*
X95241904Y-112021904D01*
X95194285Y-112117142D01*
X95146666Y-112164761D01*
X95051428Y-112212380D01*
X94813333Y-112212380D01*
X94718095Y-112164761D01*
X94670476Y-112117142D01*
%TO.C,R11*%
X33092380Y-122562857D02*
X32616190Y-122896190D01*
X33092380Y-123134285D02*
X32092380Y-123134285D01*
X32092380Y-122753333D01*
X32140000Y-122658095D01*
X32187619Y-122610476D01*
X32282857Y-122562857D01*
X32425714Y-122562857D01*
X32520952Y-122610476D01*
X32568571Y-122658095D01*
X32616190Y-122753333D01*
X32616190Y-123134285D01*
X33092380Y-121610476D02*
X33092380Y-122181904D01*
X33092380Y-121896190D02*
X32092380Y-121896190D01*
X32235238Y-121991428D01*
X32330476Y-122086666D01*
X32378095Y-122181904D01*
X33092380Y-120658095D02*
X33092380Y-121229523D01*
X33092380Y-120943809D02*
X32092380Y-120943809D01*
X32235238Y-121039047D01*
X32330476Y-121134285D01*
X32378095Y-121229523D01*
%TO.C,C3*%
X84307142Y-83946666D02*
X84354761Y-83994285D01*
X84402380Y-84137142D01*
X84402380Y-84232380D01*
X84354761Y-84375238D01*
X84259523Y-84470476D01*
X84164285Y-84518095D01*
X83973809Y-84565714D01*
X83830952Y-84565714D01*
X83640476Y-84518095D01*
X83545238Y-84470476D01*
X83450000Y-84375238D01*
X83402380Y-84232380D01*
X83402380Y-84137142D01*
X83450000Y-83994285D01*
X83497619Y-83946666D01*
X83402380Y-83613333D02*
X83402380Y-82994285D01*
X83783333Y-83327619D01*
X83783333Y-83184761D01*
X83830952Y-83089523D01*
X83878571Y-83041904D01*
X83973809Y-82994285D01*
X84211904Y-82994285D01*
X84307142Y-83041904D01*
X84354761Y-83089523D01*
X84402380Y-83184761D01*
X84402380Y-83470476D01*
X84354761Y-83565714D01*
X84307142Y-83613333D01*
%TO.C,J1*%
X31842380Y-21733333D02*
X32556666Y-21733333D01*
X32699523Y-21780952D01*
X32794761Y-21876190D01*
X32842380Y-22019047D01*
X32842380Y-22114285D01*
X32842380Y-20733333D02*
X32842380Y-21304761D01*
X32842380Y-21019047D02*
X31842380Y-21019047D01*
X31985238Y-21114285D01*
X32080476Y-21209523D01*
X32128095Y-21304761D01*
%TO.C,L4*%
X58173333Y-61782380D02*
X57697142Y-61782380D01*
X57697142Y-60782380D01*
X58935238Y-61115714D02*
X58935238Y-61782380D01*
X58697142Y-60734761D02*
X58459047Y-61449047D01*
X59078095Y-61449047D01*
%TO.C,C25*%
X38867142Y-122562857D02*
X38914761Y-122610476D01*
X38962380Y-122753333D01*
X38962380Y-122848571D01*
X38914761Y-122991428D01*
X38819523Y-123086666D01*
X38724285Y-123134285D01*
X38533809Y-123181904D01*
X38390952Y-123181904D01*
X38200476Y-123134285D01*
X38105238Y-123086666D01*
X38010000Y-122991428D01*
X37962380Y-122848571D01*
X37962380Y-122753333D01*
X38010000Y-122610476D01*
X38057619Y-122562857D01*
X38057619Y-122181904D02*
X38010000Y-122134285D01*
X37962380Y-122039047D01*
X37962380Y-121800952D01*
X38010000Y-121705714D01*
X38057619Y-121658095D01*
X38152857Y-121610476D01*
X38248095Y-121610476D01*
X38390952Y-121658095D01*
X38962380Y-122229523D01*
X38962380Y-121610476D01*
X37962380Y-120705714D02*
X37962380Y-121181904D01*
X38438571Y-121229523D01*
X38390952Y-121181904D01*
X38343333Y-121086666D01*
X38343333Y-120848571D01*
X38390952Y-120753333D01*
X38438571Y-120705714D01*
X38533809Y-120658095D01*
X38771904Y-120658095D01*
X38867142Y-120705714D01*
X38914761Y-120753333D01*
X38962380Y-120848571D01*
X38962380Y-121086666D01*
X38914761Y-121181904D01*
X38867142Y-121229523D01*
%TO.C,C23*%
X97007142Y-34082857D02*
X97054761Y-34130476D01*
X97102380Y-34273333D01*
X97102380Y-34368571D01*
X97054761Y-34511428D01*
X96959523Y-34606666D01*
X96864285Y-34654285D01*
X96673809Y-34701904D01*
X96530952Y-34701904D01*
X96340476Y-34654285D01*
X96245238Y-34606666D01*
X96150000Y-34511428D01*
X96102380Y-34368571D01*
X96102380Y-34273333D01*
X96150000Y-34130476D01*
X96197619Y-34082857D01*
X96197619Y-33701904D02*
X96150000Y-33654285D01*
X96102380Y-33559047D01*
X96102380Y-33320952D01*
X96150000Y-33225714D01*
X96197619Y-33178095D01*
X96292857Y-33130476D01*
X96388095Y-33130476D01*
X96530952Y-33178095D01*
X97102380Y-33749523D01*
X97102380Y-33130476D01*
X96102380Y-32797142D02*
X96102380Y-32178095D01*
X96483333Y-32511428D01*
X96483333Y-32368571D01*
X96530952Y-32273333D01*
X96578571Y-32225714D01*
X96673809Y-32178095D01*
X96911904Y-32178095D01*
X97007142Y-32225714D01*
X97054761Y-32273333D01*
X97102380Y-32368571D01*
X97102380Y-32654285D01*
X97054761Y-32749523D01*
X97007142Y-32797142D01*
%TO.C,R5*%
X33092380Y-104306666D02*
X32616190Y-104640000D01*
X33092380Y-104878095D02*
X32092380Y-104878095D01*
X32092380Y-104497142D01*
X32140000Y-104401904D01*
X32187619Y-104354285D01*
X32282857Y-104306666D01*
X32425714Y-104306666D01*
X32520952Y-104354285D01*
X32568571Y-104401904D01*
X32616190Y-104497142D01*
X32616190Y-104878095D01*
X32092380Y-103401904D02*
X32092380Y-103878095D01*
X32568571Y-103925714D01*
X32520952Y-103878095D01*
X32473333Y-103782857D01*
X32473333Y-103544761D01*
X32520952Y-103449523D01*
X32568571Y-103401904D01*
X32663809Y-103354285D01*
X32901904Y-103354285D01*
X32997142Y-103401904D01*
X33044761Y-103449523D01*
X33092380Y-103544761D01*
X33092380Y-103782857D01*
X33044761Y-103878095D01*
X32997142Y-103925714D01*
%TO.C,U4*%
X52578095Y-108380280D02*
X52578095Y-109189804D01*
X52625714Y-109285042D01*
X52673333Y-109332661D01*
X52768571Y-109380280D01*
X52959047Y-109380280D01*
X53054285Y-109332661D01*
X53101904Y-109285042D01*
X53149523Y-109189804D01*
X53149523Y-108380280D01*
X54054285Y-108713614D02*
X54054285Y-109380280D01*
X53816190Y-108332661D02*
X53578095Y-109046947D01*
X54197142Y-109046947D01*
X47387619Y-109332661D02*
X47530476Y-109380280D01*
X47768571Y-109380280D01*
X47863809Y-109332661D01*
X47911428Y-109285042D01*
X47959047Y-109189804D01*
X47959047Y-109094566D01*
X47911428Y-108999328D01*
X47863809Y-108951709D01*
X47768571Y-108904090D01*
X47578095Y-108856471D01*
X47482857Y-108808852D01*
X47435238Y-108761233D01*
X47387619Y-108665995D01*
X47387619Y-108570757D01*
X47435238Y-108475519D01*
X47482857Y-108427900D01*
X47578095Y-108380280D01*
X47816190Y-108380280D01*
X47959047Y-108427900D01*
X48244761Y-108380280D02*
X48816190Y-108380280D01*
X48530476Y-109380280D02*
X48530476Y-108380280D01*
X49149523Y-109380280D02*
X49149523Y-108380280D01*
X49530476Y-108380280D01*
X49625714Y-108427900D01*
X49673333Y-108475519D01*
X49720952Y-108570757D01*
X49720952Y-108713614D01*
X49673333Y-108808852D01*
X49625714Y-108856471D01*
X49530476Y-108904090D01*
X49149523Y-108904090D01*
X50101904Y-109332661D02*
X50244761Y-109380280D01*
X50482857Y-109380280D01*
X50578095Y-109332661D01*
X50625714Y-109285042D01*
X50673333Y-109189804D01*
X50673333Y-109094566D01*
X50625714Y-108999328D01*
X50578095Y-108951709D01*
X50482857Y-108904090D01*
X50292380Y-108856471D01*
X50197142Y-108808852D01*
X50149523Y-108761233D01*
X50101904Y-108665995D01*
X50101904Y-108570757D01*
X50149523Y-108475519D01*
X50197142Y-108427900D01*
X50292380Y-108380280D01*
X50530476Y-108380280D01*
X50673333Y-108427900D01*
X51625714Y-109380280D02*
X51054285Y-109380280D01*
X51340000Y-109380280D02*
X51340000Y-108380280D01*
X51244761Y-108523138D01*
X51149523Y-108618376D01*
X51054285Y-108665995D01*
X52244761Y-108380280D02*
X52340000Y-108380280D01*
X52435238Y-108427900D01*
X52482857Y-108475519D01*
X52530476Y-108570757D01*
X52578095Y-108761233D01*
X52578095Y-108999328D01*
X52530476Y-109189804D01*
X52482857Y-109285042D01*
X52435238Y-109332661D01*
X52340000Y-109380280D01*
X52244761Y-109380280D01*
X52149523Y-109332661D01*
X52101904Y-109285042D01*
X52054285Y-109189804D01*
X52006666Y-108999328D01*
X52006666Y-108761233D01*
X52054285Y-108570757D01*
X52101904Y-108475519D01*
X52149523Y-108427900D01*
X52244761Y-108380280D01*
X53482857Y-109380280D02*
X53006666Y-109380280D01*
X53006666Y-108380280D01*
X53768571Y-108475519D02*
X53816190Y-108427900D01*
X53911428Y-108380280D01*
X54149523Y-108380280D01*
X54244761Y-108427900D01*
X54292380Y-108475519D01*
X54340000Y-108570757D01*
X54340000Y-108665995D01*
X54292380Y-108808852D01*
X53720952Y-109380280D01*
X54340000Y-109380280D01*
X55244761Y-108380280D02*
X54768571Y-108380280D01*
X54720952Y-108856471D01*
X54768571Y-108808852D01*
X54863809Y-108761233D01*
X55101904Y-108761233D01*
X55197142Y-108808852D01*
X55244761Y-108856471D01*
X55292380Y-108951709D01*
X55292380Y-109189804D01*
X55244761Y-109285042D01*
X55197142Y-109332661D01*
X55101904Y-109380280D01*
X54863809Y-109380280D01*
X54768571Y-109332661D01*
X54720952Y-109285042D01*
X56244761Y-108427900D02*
X56149523Y-108380280D01*
X56006666Y-108380280D01*
X55863809Y-108427900D01*
X55768571Y-108523138D01*
X55720952Y-108618376D01*
X55673333Y-108808852D01*
X55673333Y-108951709D01*
X55720952Y-109142185D01*
X55768571Y-109237423D01*
X55863809Y-109332661D01*
X56006666Y-109380280D01*
X56101904Y-109380280D01*
X56244761Y-109332661D01*
X56292380Y-109285042D01*
X56292380Y-108951709D01*
X56101904Y-108951709D01*
X56720952Y-108999328D02*
X57482857Y-108999328D01*
X57816190Y-108380280D02*
X58387619Y-108380280D01*
X58101904Y-109380280D02*
X58101904Y-108380280D01*
X59292380Y-109380280D02*
X58959047Y-108904090D01*
X58720952Y-109380280D02*
X58720952Y-108380280D01*
X59101904Y-108380280D01*
X59197142Y-108427900D01*
X59244761Y-108475519D01*
X59292380Y-108570757D01*
X59292380Y-108713614D01*
X59244761Y-108808852D01*
X59197142Y-108856471D01*
X59101904Y-108904090D01*
X58720952Y-108904090D01*
X49530000Y-117143280D02*
X49530000Y-117381376D01*
X49291904Y-117286138D02*
X49530000Y-117381376D01*
X49768095Y-117286138D01*
X49387142Y-117571852D02*
X49530000Y-117381376D01*
X49672857Y-117571852D01*
X49530000Y-117143280D02*
X49530000Y-117381376D01*
X49291904Y-117286138D02*
X49530000Y-117381376D01*
X49768095Y-117286138D01*
X49387142Y-117571852D02*
X49530000Y-117381376D01*
X49672857Y-117571852D01*
%TO.C,C12*%
X38867142Y-104782857D02*
X38914761Y-104830476D01*
X38962380Y-104973333D01*
X38962380Y-105068571D01*
X38914761Y-105211428D01*
X38819523Y-105306666D01*
X38724285Y-105354285D01*
X38533809Y-105401904D01*
X38390952Y-105401904D01*
X38200476Y-105354285D01*
X38105238Y-105306666D01*
X38010000Y-105211428D01*
X37962380Y-105068571D01*
X37962380Y-104973333D01*
X38010000Y-104830476D01*
X38057619Y-104782857D01*
X38962380Y-103830476D02*
X38962380Y-104401904D01*
X38962380Y-104116190D02*
X37962380Y-104116190D01*
X38105238Y-104211428D01*
X38200476Y-104306666D01*
X38248095Y-104401904D01*
X38057619Y-103449523D02*
X38010000Y-103401904D01*
X37962380Y-103306666D01*
X37962380Y-103068571D01*
X38010000Y-102973333D01*
X38057619Y-102925714D01*
X38152857Y-102878095D01*
X38248095Y-102878095D01*
X38390952Y-102925714D01*
X38962380Y-103497142D01*
X38962380Y-102878095D01*
%TO.C,C24*%
X17137142Y-59637142D02*
X17089523Y-59684761D01*
X16946666Y-59732380D01*
X16851428Y-59732380D01*
X16708571Y-59684761D01*
X16613333Y-59589523D01*
X16565714Y-59494285D01*
X16518095Y-59303809D01*
X16518095Y-59160952D01*
X16565714Y-58970476D01*
X16613333Y-58875238D01*
X16708571Y-58780000D01*
X16851428Y-58732380D01*
X16946666Y-58732380D01*
X17089523Y-58780000D01*
X17137142Y-58827619D01*
X17518095Y-58827619D02*
X17565714Y-58780000D01*
X17660952Y-58732380D01*
X17899047Y-58732380D01*
X17994285Y-58780000D01*
X18041904Y-58827619D01*
X18089523Y-58922857D01*
X18089523Y-59018095D01*
X18041904Y-59160952D01*
X17470476Y-59732380D01*
X18089523Y-59732380D01*
X18946666Y-59065714D02*
X18946666Y-59732380D01*
X18708571Y-58684761D02*
X18470476Y-59399047D01*
X19089523Y-59399047D01*
%TO.C,CR2*%
X30837142Y-113696666D02*
X30884761Y-113744285D01*
X30932380Y-113887142D01*
X30932380Y-113982380D01*
X30884761Y-114125238D01*
X30789523Y-114220476D01*
X30694285Y-114268095D01*
X30503809Y-114315714D01*
X30360952Y-114315714D01*
X30170476Y-114268095D01*
X30075238Y-114220476D01*
X29980000Y-114125238D01*
X29932380Y-113982380D01*
X29932380Y-113887142D01*
X29980000Y-113744285D01*
X30027619Y-113696666D01*
X30932380Y-112696666D02*
X30456190Y-113030000D01*
X30932380Y-113268095D02*
X29932380Y-113268095D01*
X29932380Y-112887142D01*
X29980000Y-112791904D01*
X30027619Y-112744285D01*
X30122857Y-112696666D01*
X30265714Y-112696666D01*
X30360952Y-112744285D01*
X30408571Y-112791904D01*
X30456190Y-112887142D01*
X30456190Y-113268095D01*
X30027619Y-112315714D02*
X29980000Y-112268095D01*
X29932380Y-112172857D01*
X29932380Y-111934761D01*
X29980000Y-111839523D01*
X30027619Y-111791904D01*
X30122857Y-111744285D01*
X30218095Y-111744285D01*
X30360952Y-111791904D01*
X30932380Y-112363333D01*
X30932380Y-111744285D01*
X33472380Y-115053809D02*
X33472380Y-115530000D01*
X32472380Y-115530000D01*
X32805714Y-114291904D02*
X33472380Y-114291904D01*
X32424761Y-114530000D02*
X33139047Y-114768095D01*
X33139047Y-114149047D01*
X33472380Y-113720476D02*
X33472380Y-113530000D01*
X33424761Y-113434761D01*
X33377142Y-113387142D01*
X33234285Y-113291904D01*
X33043809Y-113244285D01*
X32662857Y-113244285D01*
X32567619Y-113291904D01*
X32520000Y-113339523D01*
X32472380Y-113434761D01*
X32472380Y-113625238D01*
X32520000Y-113720476D01*
X32567619Y-113768095D01*
X32662857Y-113815714D01*
X32900952Y-113815714D01*
X32996190Y-113768095D01*
X33043809Y-113720476D01*
X33091428Y-113625238D01*
X33091428Y-113434761D01*
X33043809Y-113339523D01*
X32996190Y-113291904D01*
X32900952Y-113244285D01*
X32472380Y-112910952D02*
X32472380Y-112244285D01*
X33472380Y-112672857D01*
X32805714Y-111434761D02*
X33472380Y-111434761D01*
X32424761Y-111672857D02*
X33139047Y-111910952D01*
X33139047Y-111291904D01*
X33186666Y-110958571D02*
X33186666Y-110482380D01*
X33472380Y-111053809D02*
X32472380Y-110720476D01*
X33472380Y-110387142D01*
X42759380Y-109220000D02*
X42997476Y-109220000D01*
X42902238Y-109458095D02*
X42997476Y-109220000D01*
X42902238Y-108981904D01*
X43187952Y-109362857D02*
X42997476Y-109220000D01*
X43187952Y-109077142D01*
X42759380Y-109220000D02*
X42997476Y-109220000D01*
X42902238Y-109458095D02*
X42997476Y-109220000D01*
X42902238Y-108981904D01*
X43187952Y-109362857D02*
X42997476Y-109220000D01*
X43187952Y-109077142D01*
%TO.C,R1*%
X73493333Y-112212380D02*
X73160000Y-111736190D01*
X72921904Y-112212380D02*
X72921904Y-111212380D01*
X73302857Y-111212380D01*
X73398095Y-111260000D01*
X73445714Y-111307619D01*
X73493333Y-111402857D01*
X73493333Y-111545714D01*
X73445714Y-111640952D01*
X73398095Y-111688571D01*
X73302857Y-111736190D01*
X72921904Y-111736190D01*
X74445714Y-112212380D02*
X73874285Y-112212380D01*
X74160000Y-112212380D02*
X74160000Y-111212380D01*
X74064761Y-111355238D01*
X73969523Y-111450476D01*
X73874285Y-111498095D01*
%TO.C,C17*%
X95877142Y-117197142D02*
X95829523Y-117244761D01*
X95686666Y-117292380D01*
X95591428Y-117292380D01*
X95448571Y-117244761D01*
X95353333Y-117149523D01*
X95305714Y-117054285D01*
X95258095Y-116863809D01*
X95258095Y-116720952D01*
X95305714Y-116530476D01*
X95353333Y-116435238D01*
X95448571Y-116340000D01*
X95591428Y-116292380D01*
X95686666Y-116292380D01*
X95829523Y-116340000D01*
X95877142Y-116387619D01*
X96829523Y-117292380D02*
X96258095Y-117292380D01*
X96543809Y-117292380D02*
X96543809Y-116292380D01*
X96448571Y-116435238D01*
X96353333Y-116530476D01*
X96258095Y-116578095D01*
X97162857Y-116292380D02*
X97829523Y-116292380D01*
X97400952Y-117292380D01*
%TO.C,U5*%
X44958095Y-67740280D02*
X44958095Y-68549804D01*
X45005714Y-68645042D01*
X45053333Y-68692661D01*
X45148571Y-68740280D01*
X45339047Y-68740280D01*
X45434285Y-68692661D01*
X45481904Y-68645042D01*
X45529523Y-68549804D01*
X45529523Y-67740280D01*
X46481904Y-67740280D02*
X46005714Y-67740280D01*
X45958095Y-68216471D01*
X46005714Y-68168852D01*
X46100952Y-68121233D01*
X46339047Y-68121233D01*
X46434285Y-68168852D01*
X46481904Y-68216471D01*
X46529523Y-68311709D01*
X46529523Y-68549804D01*
X46481904Y-68645042D01*
X46434285Y-68692661D01*
X46339047Y-68740280D01*
X46100952Y-68740280D01*
X46005714Y-68692661D01*
X45958095Y-68645042D01*
X39767619Y-68692661D02*
X39910476Y-68740280D01*
X40148571Y-68740280D01*
X40243809Y-68692661D01*
X40291428Y-68645042D01*
X40339047Y-68549804D01*
X40339047Y-68454566D01*
X40291428Y-68359328D01*
X40243809Y-68311709D01*
X40148571Y-68264090D01*
X39958095Y-68216471D01*
X39862857Y-68168852D01*
X39815238Y-68121233D01*
X39767619Y-68025995D01*
X39767619Y-67930757D01*
X39815238Y-67835519D01*
X39862857Y-67787900D01*
X39958095Y-67740280D01*
X40196190Y-67740280D01*
X40339047Y-67787900D01*
X40624761Y-67740280D02*
X41196190Y-67740280D01*
X40910476Y-68740280D02*
X40910476Y-67740280D01*
X41529523Y-68740280D02*
X41529523Y-67740280D01*
X41910476Y-67740280D01*
X42005714Y-67787900D01*
X42053333Y-67835519D01*
X42100952Y-67930757D01*
X42100952Y-68073614D01*
X42053333Y-68168852D01*
X42005714Y-68216471D01*
X41910476Y-68264090D01*
X41529523Y-68264090D01*
X42481904Y-68692661D02*
X42624761Y-68740280D01*
X42862857Y-68740280D01*
X42958095Y-68692661D01*
X43005714Y-68645042D01*
X43053333Y-68549804D01*
X43053333Y-68454566D01*
X43005714Y-68359328D01*
X42958095Y-68311709D01*
X42862857Y-68264090D01*
X42672380Y-68216471D01*
X42577142Y-68168852D01*
X42529523Y-68121233D01*
X42481904Y-68025995D01*
X42481904Y-67930757D01*
X42529523Y-67835519D01*
X42577142Y-67787900D01*
X42672380Y-67740280D01*
X42910476Y-67740280D01*
X43053333Y-67787900D01*
X44005714Y-68740280D02*
X43434285Y-68740280D01*
X43720000Y-68740280D02*
X43720000Y-67740280D01*
X43624761Y-67883138D01*
X43529523Y-67978376D01*
X43434285Y-68025995D01*
X44624761Y-67740280D02*
X44720000Y-67740280D01*
X44815238Y-67787900D01*
X44862857Y-67835519D01*
X44910476Y-67930757D01*
X44958095Y-68121233D01*
X44958095Y-68359328D01*
X44910476Y-68549804D01*
X44862857Y-68645042D01*
X44815238Y-68692661D01*
X44720000Y-68740280D01*
X44624761Y-68740280D01*
X44529523Y-68692661D01*
X44481904Y-68645042D01*
X44434285Y-68549804D01*
X44386666Y-68359328D01*
X44386666Y-68121233D01*
X44434285Y-67930757D01*
X44481904Y-67835519D01*
X44529523Y-67787900D01*
X44624761Y-67740280D01*
X45862857Y-68740280D02*
X45386666Y-68740280D01*
X45386666Y-67740280D01*
X46148571Y-67835519D02*
X46196190Y-67787900D01*
X46291428Y-67740280D01*
X46529523Y-67740280D01*
X46624761Y-67787900D01*
X46672380Y-67835519D01*
X46720000Y-67930757D01*
X46720000Y-68025995D01*
X46672380Y-68168852D01*
X46100952Y-68740280D01*
X46720000Y-68740280D01*
X47624761Y-67740280D02*
X47148571Y-67740280D01*
X47100952Y-68216471D01*
X47148571Y-68168852D01*
X47243809Y-68121233D01*
X47481904Y-68121233D01*
X47577142Y-68168852D01*
X47624761Y-68216471D01*
X47672380Y-68311709D01*
X47672380Y-68549804D01*
X47624761Y-68645042D01*
X47577142Y-68692661D01*
X47481904Y-68740280D01*
X47243809Y-68740280D01*
X47148571Y-68692661D01*
X47100952Y-68645042D01*
X48624761Y-67787900D02*
X48529523Y-67740280D01*
X48386666Y-67740280D01*
X48243809Y-67787900D01*
X48148571Y-67883138D01*
X48100952Y-67978376D01*
X48053333Y-68168852D01*
X48053333Y-68311709D01*
X48100952Y-68502185D01*
X48148571Y-68597423D01*
X48243809Y-68692661D01*
X48386666Y-68740280D01*
X48481904Y-68740280D01*
X48624761Y-68692661D01*
X48672380Y-68645042D01*
X48672380Y-68311709D01*
X48481904Y-68311709D01*
X49100952Y-68359328D02*
X49862857Y-68359328D01*
X50196190Y-67740280D02*
X50767619Y-67740280D01*
X50481904Y-68740280D02*
X50481904Y-67740280D01*
X51672380Y-68740280D02*
X51339047Y-68264090D01*
X51100952Y-68740280D02*
X51100952Y-67740280D01*
X51481904Y-67740280D01*
X51577142Y-67787900D01*
X51624761Y-67835519D01*
X51672380Y-67930757D01*
X51672380Y-68073614D01*
X51624761Y-68168852D01*
X51577142Y-68216471D01*
X51481904Y-68264090D01*
X51100952Y-68264090D01*
X41910000Y-76503280D02*
X41910000Y-76741376D01*
X41671904Y-76646138D02*
X41910000Y-76741376D01*
X42148095Y-76646138D01*
X41767142Y-76931852D02*
X41910000Y-76741376D01*
X42052857Y-76931852D01*
X41910000Y-76503280D02*
X41910000Y-76741376D01*
X41671904Y-76646138D02*
X41910000Y-76741376D01*
X42148095Y-76646138D01*
X41767142Y-76931852D02*
X41910000Y-76741376D01*
X42052857Y-76931852D01*
%TO.C,C10*%
X66527142Y-34082857D02*
X66574761Y-34130476D01*
X66622380Y-34273333D01*
X66622380Y-34368571D01*
X66574761Y-34511428D01*
X66479523Y-34606666D01*
X66384285Y-34654285D01*
X66193809Y-34701904D01*
X66050952Y-34701904D01*
X65860476Y-34654285D01*
X65765238Y-34606666D01*
X65670000Y-34511428D01*
X65622380Y-34368571D01*
X65622380Y-34273333D01*
X65670000Y-34130476D01*
X65717619Y-34082857D01*
X66622380Y-33130476D02*
X66622380Y-33701904D01*
X66622380Y-33416190D02*
X65622380Y-33416190D01*
X65765238Y-33511428D01*
X65860476Y-33606666D01*
X65908095Y-33701904D01*
X65622380Y-32511428D02*
X65622380Y-32416190D01*
X65670000Y-32320952D01*
X65717619Y-32273333D01*
X65812857Y-32225714D01*
X66003333Y-32178095D01*
X66241428Y-32178095D01*
X66431904Y-32225714D01*
X66527142Y-32273333D01*
X66574761Y-32320952D01*
X66622380Y-32416190D01*
X66622380Y-32511428D01*
X66574761Y-32606666D01*
X66527142Y-32654285D01*
X66431904Y-32701904D01*
X66241428Y-32749523D01*
X66003333Y-32749523D01*
X65812857Y-32701904D01*
X65717619Y-32654285D01*
X65670000Y-32606666D01*
X65622380Y-32511428D01*
%TO.C,C11*%
X17137142Y-34237142D02*
X17089523Y-34284761D01*
X16946666Y-34332380D01*
X16851428Y-34332380D01*
X16708571Y-34284761D01*
X16613333Y-34189523D01*
X16565714Y-34094285D01*
X16518095Y-33903809D01*
X16518095Y-33760952D01*
X16565714Y-33570476D01*
X16613333Y-33475238D01*
X16708571Y-33380000D01*
X16851428Y-33332380D01*
X16946666Y-33332380D01*
X17089523Y-33380000D01*
X17137142Y-33427619D01*
X18089523Y-34332380D02*
X17518095Y-34332380D01*
X17803809Y-34332380D02*
X17803809Y-33332380D01*
X17708571Y-33475238D01*
X17613333Y-33570476D01*
X17518095Y-33618095D01*
X19041904Y-34332380D02*
X18470476Y-34332380D01*
X18756190Y-34332380D02*
X18756190Y-33332380D01*
X18660952Y-33475238D01*
X18565714Y-33570476D01*
X18470476Y-33618095D01*
%TO.C,J5*%
X83272380Y-58753333D02*
X83986666Y-58753333D01*
X84129523Y-58800952D01*
X84224761Y-58896190D01*
X84272380Y-59039047D01*
X84272380Y-59134285D01*
X83272380Y-57800952D02*
X83272380Y-58277142D01*
X83748571Y-58324761D01*
X83700952Y-58277142D01*
X83653333Y-58181904D01*
X83653333Y-57943809D01*
X83700952Y-57848571D01*
X83748571Y-57800952D01*
X83843809Y-57753333D01*
X84081904Y-57753333D01*
X84177142Y-57800952D01*
X84224761Y-57848571D01*
X84272380Y-57943809D01*
X84272380Y-58181904D01*
X84224761Y-58277142D01*
X84177142Y-58324761D01*
%TO.C,C7*%
X37597142Y-48426666D02*
X37644761Y-48474285D01*
X37692380Y-48617142D01*
X37692380Y-48712380D01*
X37644761Y-48855238D01*
X37549523Y-48950476D01*
X37454285Y-48998095D01*
X37263809Y-49045714D01*
X37120952Y-49045714D01*
X36930476Y-48998095D01*
X36835238Y-48950476D01*
X36740000Y-48855238D01*
X36692380Y-48712380D01*
X36692380Y-48617142D01*
X36740000Y-48474285D01*
X36787619Y-48426666D01*
X36692380Y-48093333D02*
X36692380Y-47426666D01*
X37692380Y-47855238D01*
%TO.C,CR1*%
X33377142Y-94646666D02*
X33424761Y-94694285D01*
X33472380Y-94837142D01*
X33472380Y-94932380D01*
X33424761Y-95075238D01*
X33329523Y-95170476D01*
X33234285Y-95218095D01*
X33043809Y-95265714D01*
X32900952Y-95265714D01*
X32710476Y-95218095D01*
X32615238Y-95170476D01*
X32520000Y-95075238D01*
X32472380Y-94932380D01*
X32472380Y-94837142D01*
X32520000Y-94694285D01*
X32567619Y-94646666D01*
X33472380Y-93646666D02*
X32996190Y-93980000D01*
X33472380Y-94218095D02*
X32472380Y-94218095D01*
X32472380Y-93837142D01*
X32520000Y-93741904D01*
X32567619Y-93694285D01*
X32662857Y-93646666D01*
X32805714Y-93646666D01*
X32900952Y-93694285D01*
X32948571Y-93741904D01*
X32996190Y-93837142D01*
X32996190Y-94218095D01*
X33472380Y-92694285D02*
X33472380Y-93265714D01*
X33472380Y-92980000D02*
X32472380Y-92980000D01*
X32615238Y-93075238D01*
X32710476Y-93170476D01*
X32758095Y-93265714D01*
X30932380Y-96003809D02*
X30932380Y-96480000D01*
X29932380Y-96480000D01*
X30265714Y-95241904D02*
X30932380Y-95241904D01*
X29884761Y-95480000D02*
X30599047Y-95718095D01*
X30599047Y-95099047D01*
X30932380Y-94670476D02*
X30932380Y-94480000D01*
X30884761Y-94384761D01*
X30837142Y-94337142D01*
X30694285Y-94241904D01*
X30503809Y-94194285D01*
X30122857Y-94194285D01*
X30027619Y-94241904D01*
X29980000Y-94289523D01*
X29932380Y-94384761D01*
X29932380Y-94575238D01*
X29980000Y-94670476D01*
X30027619Y-94718095D01*
X30122857Y-94765714D01*
X30360952Y-94765714D01*
X30456190Y-94718095D01*
X30503809Y-94670476D01*
X30551428Y-94575238D01*
X30551428Y-94384761D01*
X30503809Y-94289523D01*
X30456190Y-94241904D01*
X30360952Y-94194285D01*
X29932380Y-93860952D02*
X29932380Y-93194285D01*
X30932380Y-93622857D01*
X30265714Y-92384761D02*
X30932380Y-92384761D01*
X29884761Y-92622857D02*
X30599047Y-92860952D01*
X30599047Y-92241904D01*
X30646666Y-91908571D02*
X30646666Y-91432380D01*
X30932380Y-92003809D02*
X29932380Y-91670476D01*
X30932380Y-91337142D01*
X42759380Y-90170000D02*
X42997476Y-90170000D01*
X42902238Y-90408095D02*
X42997476Y-90170000D01*
X42902238Y-89931904D01*
X43187952Y-90312857D02*
X42997476Y-90170000D01*
X43187952Y-90027142D01*
X42759380Y-90170000D02*
X42997476Y-90170000D01*
X42902238Y-90408095D02*
X42997476Y-90170000D01*
X42902238Y-89931904D01*
X43187952Y-90312857D02*
X42997476Y-90170000D01*
X43187952Y-90027142D01*
%TO.C,C20*%
X37597142Y-74302857D02*
X37644761Y-74350476D01*
X37692380Y-74493333D01*
X37692380Y-74588571D01*
X37644761Y-74731428D01*
X37549523Y-74826666D01*
X37454285Y-74874285D01*
X37263809Y-74921904D01*
X37120952Y-74921904D01*
X36930476Y-74874285D01*
X36835238Y-74826666D01*
X36740000Y-74731428D01*
X36692380Y-74588571D01*
X36692380Y-74493333D01*
X36740000Y-74350476D01*
X36787619Y-74302857D01*
X36787619Y-73921904D02*
X36740000Y-73874285D01*
X36692380Y-73779047D01*
X36692380Y-73540952D01*
X36740000Y-73445714D01*
X36787619Y-73398095D01*
X36882857Y-73350476D01*
X36978095Y-73350476D01*
X37120952Y-73398095D01*
X37692380Y-73969523D01*
X37692380Y-73350476D01*
X36692380Y-72731428D02*
X36692380Y-72636190D01*
X36740000Y-72540952D01*
X36787619Y-72493333D01*
X36882857Y-72445714D01*
X37073333Y-72398095D01*
X37311428Y-72398095D01*
X37501904Y-72445714D01*
X37597142Y-72493333D01*
X37644761Y-72540952D01*
X37692380Y-72636190D01*
X37692380Y-72731428D01*
X37644761Y-72826666D01*
X37597142Y-72874285D01*
X37501904Y-72921904D01*
X37311428Y-72969523D01*
X37073333Y-72969523D01*
X36882857Y-72921904D01*
X36787619Y-72874285D01*
X36740000Y-72826666D01*
X36692380Y-72731428D01*
%TO.C,R6*%
X17613333Y-47822380D02*
X17280000Y-47346190D01*
X17041904Y-47822380D02*
X17041904Y-46822380D01*
X17422857Y-46822380D01*
X17518095Y-46870000D01*
X17565714Y-46917619D01*
X17613333Y-47012857D01*
X17613333Y-47155714D01*
X17565714Y-47250952D01*
X17518095Y-47298571D01*
X17422857Y-47346190D01*
X17041904Y-47346190D01*
X18470476Y-46822380D02*
X18280000Y-46822380D01*
X18184761Y-46870000D01*
X18137142Y-46917619D01*
X18041904Y-47060476D01*
X17994285Y-47250952D01*
X17994285Y-47631904D01*
X18041904Y-47727142D01*
X18089523Y-47774761D01*
X18184761Y-47822380D01*
X18375238Y-47822380D01*
X18470476Y-47774761D01*
X18518095Y-47727142D01*
X18565714Y-47631904D01*
X18565714Y-47393809D01*
X18518095Y-47298571D01*
X18470476Y-47250952D01*
X18375238Y-47203333D01*
X18184761Y-47203333D01*
X18089523Y-47250952D01*
X18041904Y-47298571D01*
X17994285Y-47393809D01*
%TO.C,C16*%
X86847142Y-104742857D02*
X86894761Y-104790476D01*
X86942380Y-104933333D01*
X86942380Y-105028571D01*
X86894761Y-105171428D01*
X86799523Y-105266666D01*
X86704285Y-105314285D01*
X86513809Y-105361904D01*
X86370952Y-105361904D01*
X86180476Y-105314285D01*
X86085238Y-105266666D01*
X85990000Y-105171428D01*
X85942380Y-105028571D01*
X85942380Y-104933333D01*
X85990000Y-104790476D01*
X86037619Y-104742857D01*
X86942380Y-103790476D02*
X86942380Y-104361904D01*
X86942380Y-104076190D02*
X85942380Y-104076190D01*
X86085238Y-104171428D01*
X86180476Y-104266666D01*
X86228095Y-104361904D01*
X85942380Y-102933333D02*
X85942380Y-103123809D01*
X85990000Y-103219047D01*
X86037619Y-103266666D01*
X86180476Y-103361904D01*
X86370952Y-103409523D01*
X86751904Y-103409523D01*
X86847142Y-103361904D01*
X86894761Y-103314285D01*
X86942380Y-103219047D01*
X86942380Y-103028571D01*
X86894761Y-102933333D01*
X86847142Y-102885714D01*
X86751904Y-102838095D01*
X86513809Y-102838095D01*
X86418571Y-102885714D01*
X86370952Y-102933333D01*
X86323333Y-103028571D01*
X86323333Y-103219047D01*
X86370952Y-103314285D01*
X86418571Y-103361904D01*
X86513809Y-103409523D01*
%TO.C,R8*%
X91273333Y-117292380D02*
X90940000Y-116816190D01*
X90701904Y-117292380D02*
X90701904Y-116292380D01*
X91082857Y-116292380D01*
X91178095Y-116340000D01*
X91225714Y-116387619D01*
X91273333Y-116482857D01*
X91273333Y-116625714D01*
X91225714Y-116720952D01*
X91178095Y-116768571D01*
X91082857Y-116816190D01*
X90701904Y-116816190D01*
X91844761Y-116720952D02*
X91749523Y-116673333D01*
X91701904Y-116625714D01*
X91654285Y-116530476D01*
X91654285Y-116482857D01*
X91701904Y-116387619D01*
X91749523Y-116340000D01*
X91844761Y-116292380D01*
X92035238Y-116292380D01*
X92130476Y-116340000D01*
X92178095Y-116387619D01*
X92225714Y-116482857D01*
X92225714Y-116530476D01*
X92178095Y-116625714D01*
X92130476Y-116673333D01*
X92035238Y-116720952D01*
X91844761Y-116720952D01*
X91749523Y-116768571D01*
X91701904Y-116816190D01*
X91654285Y-116911428D01*
X91654285Y-117101904D01*
X91701904Y-117197142D01*
X91749523Y-117244761D01*
X91844761Y-117292380D01*
X92035238Y-117292380D01*
X92130476Y-117244761D01*
X92178095Y-117197142D01*
X92225714Y-117101904D01*
X92225714Y-116911428D01*
X92178095Y-116816190D01*
X92130476Y-116768571D01*
X92035238Y-116720952D01*
%TO.C,U6*%
X22764246Y-73151904D02*
X23573770Y-73151904D01*
X23669008Y-73104285D01*
X23716627Y-73056666D01*
X23764246Y-72961428D01*
X23764246Y-72770952D01*
X23716627Y-72675714D01*
X23669008Y-72628095D01*
X23573770Y-72580476D01*
X22764246Y-72580476D01*
X22764246Y-71675714D02*
X22764246Y-71866190D01*
X22811866Y-71961428D01*
X22859485Y-72009047D01*
X23002342Y-72104285D01*
X23192818Y-72151904D01*
X23573770Y-72151904D01*
X23669008Y-72104285D01*
X23716627Y-72056666D01*
X23764246Y-71961428D01*
X23764246Y-71770952D01*
X23716627Y-71675714D01*
X23669008Y-71628095D01*
X23573770Y-71580476D01*
X23335675Y-71580476D01*
X23240437Y-71628095D01*
X23192818Y-71675714D01*
X23145199Y-71770952D01*
X23145199Y-71961428D01*
X23192818Y-72056666D01*
X23240437Y-72104285D01*
X23335675Y-72151904D01*
X28392380Y-74413809D02*
X28392380Y-74890000D01*
X27392380Y-74890000D01*
X27725714Y-73651904D02*
X28392380Y-73651904D01*
X27344761Y-73890000D02*
X28059047Y-74128095D01*
X28059047Y-73509047D01*
X28392380Y-73080476D02*
X28392380Y-72890000D01*
X28344761Y-72794761D01*
X28297142Y-72747142D01*
X28154285Y-72651904D01*
X27963809Y-72604285D01*
X27582857Y-72604285D01*
X27487619Y-72651904D01*
X27440000Y-72699523D01*
X27392380Y-72794761D01*
X27392380Y-72985238D01*
X27440000Y-73080476D01*
X27487619Y-73128095D01*
X27582857Y-73175714D01*
X27820952Y-73175714D01*
X27916190Y-73128095D01*
X27963809Y-73080476D01*
X28011428Y-72985238D01*
X28011428Y-72794761D01*
X27963809Y-72699523D01*
X27916190Y-72651904D01*
X27820952Y-72604285D01*
X27392380Y-72270952D02*
X27392380Y-71604285D01*
X28392380Y-72032857D01*
X27392380Y-70747142D02*
X27392380Y-71223333D01*
X27868571Y-71270952D01*
X27820952Y-71223333D01*
X27773333Y-71128095D01*
X27773333Y-70890000D01*
X27820952Y-70794761D01*
X27868571Y-70747142D01*
X27963809Y-70699523D01*
X28201904Y-70699523D01*
X28297142Y-70747142D01*
X28344761Y-70794761D01*
X28392380Y-70890000D01*
X28392380Y-71128095D01*
X28344761Y-71223333D01*
X28297142Y-71270952D01*
X28106666Y-70318571D02*
X28106666Y-69842380D01*
X28392380Y-70413809D02*
X27392380Y-70080476D01*
X28392380Y-69747142D01*
X29932380Y-81280000D02*
X30170476Y-81280000D01*
X30075238Y-81518095D02*
X30170476Y-81280000D01*
X30075238Y-81041904D01*
X30360952Y-81422857D02*
X30170476Y-81280000D01*
X30360952Y-81137142D01*
%TO.C,R12*%
X17137142Y-73222380D02*
X16803809Y-72746190D01*
X16565714Y-73222380D02*
X16565714Y-72222380D01*
X16946666Y-72222380D01*
X17041904Y-72270000D01*
X17089523Y-72317619D01*
X17137142Y-72412857D01*
X17137142Y-72555714D01*
X17089523Y-72650952D01*
X17041904Y-72698571D01*
X16946666Y-72746190D01*
X16565714Y-72746190D01*
X18089523Y-73222380D02*
X17518095Y-73222380D01*
X17803809Y-73222380D02*
X17803809Y-72222380D01*
X17708571Y-72365238D01*
X17613333Y-72460476D01*
X17518095Y-72508095D01*
X18470476Y-72317619D02*
X18518095Y-72270000D01*
X18613333Y-72222380D01*
X18851428Y-72222380D01*
X18946666Y-72270000D01*
X18994285Y-72317619D01*
X19041904Y-72412857D01*
X19041904Y-72508095D01*
X18994285Y-72650952D01*
X18422857Y-73222380D01*
X19041904Y-73222380D01*
%TO.C,C9*%
X51287142Y-33606666D02*
X51334761Y-33654285D01*
X51382380Y-33797142D01*
X51382380Y-33892380D01*
X51334761Y-34035238D01*
X51239523Y-34130476D01*
X51144285Y-34178095D01*
X50953809Y-34225714D01*
X50810952Y-34225714D01*
X50620476Y-34178095D01*
X50525238Y-34130476D01*
X50430000Y-34035238D01*
X50382380Y-33892380D01*
X50382380Y-33797142D01*
X50430000Y-33654285D01*
X50477619Y-33606666D01*
X51382380Y-33130476D02*
X51382380Y-32940000D01*
X51334761Y-32844761D01*
X51287142Y-32797142D01*
X51144285Y-32701904D01*
X50953809Y-32654285D01*
X50572857Y-32654285D01*
X50477619Y-32701904D01*
X50430000Y-32749523D01*
X50382380Y-32844761D01*
X50382380Y-33035238D01*
X50430000Y-33130476D01*
X50477619Y-33178095D01*
X50572857Y-33225714D01*
X50810952Y-33225714D01*
X50906190Y-33178095D01*
X50953809Y-33130476D01*
X51001428Y-33035238D01*
X51001428Y-32844761D01*
X50953809Y-32749523D01*
X50906190Y-32701904D01*
X50810952Y-32654285D01*
%TO.C,C14*%
X80637142Y-117197142D02*
X80589523Y-117244761D01*
X80446666Y-117292380D01*
X80351428Y-117292380D01*
X80208571Y-117244761D01*
X80113333Y-117149523D01*
X80065714Y-117054285D01*
X80018095Y-116863809D01*
X80018095Y-116720952D01*
X80065714Y-116530476D01*
X80113333Y-116435238D01*
X80208571Y-116340000D01*
X80351428Y-116292380D01*
X80446666Y-116292380D01*
X80589523Y-116340000D01*
X80637142Y-116387619D01*
X81589523Y-117292380D02*
X81018095Y-117292380D01*
X81303809Y-117292380D02*
X81303809Y-116292380D01*
X81208571Y-116435238D01*
X81113333Y-116530476D01*
X81018095Y-116578095D01*
X82446666Y-116625714D02*
X82446666Y-117292380D01*
X82208571Y-116244761D02*
X81970476Y-116959047D01*
X82589523Y-116959047D01*
%TO.C,R9*%
X96353333Y-112212380D02*
X96020000Y-111736190D01*
X95781904Y-112212380D02*
X95781904Y-111212380D01*
X96162857Y-111212380D01*
X96258095Y-111260000D01*
X96305714Y-111307619D01*
X96353333Y-111402857D01*
X96353333Y-111545714D01*
X96305714Y-111640952D01*
X96258095Y-111688571D01*
X96162857Y-111736190D01*
X95781904Y-111736190D01*
X96829523Y-112212380D02*
X97020000Y-112212380D01*
X97115238Y-112164761D01*
X97162857Y-112117142D01*
X97258095Y-111974285D01*
X97305714Y-111783809D01*
X97305714Y-111402857D01*
X97258095Y-111307619D01*
X97210476Y-111260000D01*
X97115238Y-111212380D01*
X96924761Y-111212380D01*
X96829523Y-111260000D01*
X96781904Y-111307619D01*
X96734285Y-111402857D01*
X96734285Y-111640952D01*
X96781904Y-111736190D01*
X96829523Y-111783809D01*
X96924761Y-111831428D01*
X97115238Y-111831428D01*
X97210476Y-111783809D01*
X97258095Y-111736190D01*
X97305714Y-111640952D01*
%TO.C,C26*%
X16457142Y-66682857D02*
X16504761Y-66730476D01*
X16552380Y-66873333D01*
X16552380Y-66968571D01*
X16504761Y-67111428D01*
X16409523Y-67206666D01*
X16314285Y-67254285D01*
X16123809Y-67301904D01*
X15980952Y-67301904D01*
X15790476Y-67254285D01*
X15695238Y-67206666D01*
X15600000Y-67111428D01*
X15552380Y-66968571D01*
X15552380Y-66873333D01*
X15600000Y-66730476D01*
X15647619Y-66682857D01*
X15647619Y-66301904D02*
X15600000Y-66254285D01*
X15552380Y-66159047D01*
X15552380Y-65920952D01*
X15600000Y-65825714D01*
X15647619Y-65778095D01*
X15742857Y-65730476D01*
X15838095Y-65730476D01*
X15980952Y-65778095D01*
X16552380Y-66349523D01*
X16552380Y-65730476D01*
X15552380Y-64873333D02*
X15552380Y-65063809D01*
X15600000Y-65159047D01*
X15647619Y-65206666D01*
X15790476Y-65301904D01*
X15980952Y-65349523D01*
X16361904Y-65349523D01*
X16457142Y-65301904D01*
X16504761Y-65254285D01*
X16552380Y-65159047D01*
X16552380Y-64968571D01*
X16504761Y-64873333D01*
X16457142Y-64825714D01*
X16361904Y-64778095D01*
X16123809Y-64778095D01*
X16028571Y-64825714D01*
X15980952Y-64873333D01*
X15933333Y-64968571D01*
X15933333Y-65159047D01*
X15980952Y-65254285D01*
X16028571Y-65301904D01*
X16123809Y-65349523D01*
%TO.C,EMER_STOP1*%
X96268571Y-75036190D02*
X96268571Y-74702857D01*
X96792380Y-74560000D02*
X96792380Y-75036190D01*
X95792380Y-75036190D01*
X95792380Y-74560000D01*
X96792380Y-74131428D02*
X95792380Y-74131428D01*
X96506666Y-73798095D01*
X95792380Y-73464761D01*
X96792380Y-73464761D01*
X96268571Y-72988571D02*
X96268571Y-72655238D01*
X96792380Y-72512380D02*
X96792380Y-72988571D01*
X95792380Y-72988571D01*
X95792380Y-72512380D01*
X96792380Y-71512380D02*
X96316190Y-71845714D01*
X96792380Y-72083809D02*
X95792380Y-72083809D01*
X95792380Y-71702857D01*
X95840000Y-71607619D01*
X95887619Y-71560000D01*
X95982857Y-71512380D01*
X96125714Y-71512380D01*
X96220952Y-71560000D01*
X96268571Y-71607619D01*
X96316190Y-71702857D01*
X96316190Y-72083809D01*
X96887619Y-71321904D02*
X96887619Y-70560000D01*
X96744761Y-70369523D02*
X96792380Y-70226666D01*
X96792380Y-69988571D01*
X96744761Y-69893333D01*
X96697142Y-69845714D01*
X96601904Y-69798095D01*
X96506666Y-69798095D01*
X96411428Y-69845714D01*
X96363809Y-69893333D01*
X96316190Y-69988571D01*
X96268571Y-70179047D01*
X96220952Y-70274285D01*
X96173333Y-70321904D01*
X96078095Y-70369523D01*
X95982857Y-70369523D01*
X95887619Y-70321904D01*
X95840000Y-70274285D01*
X95792380Y-70179047D01*
X95792380Y-69940952D01*
X95840000Y-69798095D01*
X95792380Y-69512380D02*
X95792380Y-68940952D01*
X96792380Y-69226666D02*
X95792380Y-69226666D01*
X95792380Y-68417142D02*
X95792380Y-68226666D01*
X95840000Y-68131428D01*
X95935238Y-68036190D01*
X96125714Y-67988571D01*
X96459047Y-67988571D01*
X96649523Y-68036190D01*
X96744761Y-68131428D01*
X96792380Y-68226666D01*
X96792380Y-68417142D01*
X96744761Y-68512380D01*
X96649523Y-68607619D01*
X96459047Y-68655238D01*
X96125714Y-68655238D01*
X95935238Y-68607619D01*
X95840000Y-68512380D01*
X95792380Y-68417142D01*
X96792380Y-67560000D02*
X95792380Y-67560000D01*
X95792380Y-67179047D01*
X95840000Y-67083809D01*
X95887619Y-67036190D01*
X95982857Y-66988571D01*
X96125714Y-66988571D01*
X96220952Y-67036190D01*
X96268571Y-67083809D01*
X96316190Y-67179047D01*
X96316190Y-67560000D01*
X96792380Y-66036190D02*
X96792380Y-66607619D01*
X96792380Y-66321904D02*
X95792380Y-66321904D01*
X95935238Y-66417142D01*
X96030476Y-66512380D01*
X96078095Y-66607619D01*
%TO.C,C4*%
X88733333Y-112117142D02*
X88685714Y-112164761D01*
X88542857Y-112212380D01*
X88447619Y-112212380D01*
X88304761Y-112164761D01*
X88209523Y-112069523D01*
X88161904Y-111974285D01*
X88114285Y-111783809D01*
X88114285Y-111640952D01*
X88161904Y-111450476D01*
X88209523Y-111355238D01*
X88304761Y-111260000D01*
X88447619Y-111212380D01*
X88542857Y-111212380D01*
X88685714Y-111260000D01*
X88733333Y-111307619D01*
X89590476Y-111545714D02*
X89590476Y-112212380D01*
X89352380Y-111164761D02*
X89114285Y-111879047D01*
X89733333Y-111879047D01*
%TO.C,R14*%
X82622380Y-66682857D02*
X82146190Y-67016190D01*
X82622380Y-67254285D02*
X81622380Y-67254285D01*
X81622380Y-66873333D01*
X81670000Y-66778095D01*
X81717619Y-66730476D01*
X81812857Y-66682857D01*
X81955714Y-66682857D01*
X82050952Y-66730476D01*
X82098571Y-66778095D01*
X82146190Y-66873333D01*
X82146190Y-67254285D01*
X82622380Y-65730476D02*
X82622380Y-66301904D01*
X82622380Y-66016190D02*
X81622380Y-66016190D01*
X81765238Y-66111428D01*
X81860476Y-66206666D01*
X81908095Y-66301904D01*
X81955714Y-64873333D02*
X82622380Y-64873333D01*
X81574761Y-65111428D02*
X82289047Y-65349523D01*
X82289047Y-64730476D01*
%TO.C,F1*%
X63136666Y-18838571D02*
X62803333Y-18838571D01*
X62803333Y-19362380D02*
X62803333Y-18362380D01*
X63279523Y-18362380D01*
X64184285Y-19362380D02*
X63612857Y-19362380D01*
X63898571Y-19362380D02*
X63898571Y-18362380D01*
X63803333Y-18505238D01*
X63708095Y-18600476D01*
X63612857Y-18648095D01*
%TO.C,U3*%
X22764246Y-47751904D02*
X23573770Y-47751904D01*
X23669008Y-47704285D01*
X23716627Y-47656666D01*
X23764246Y-47561428D01*
X23764246Y-47370952D01*
X23716627Y-47275714D01*
X23669008Y-47228095D01*
X23573770Y-47180476D01*
X22764246Y-47180476D01*
X22764246Y-46799523D02*
X22764246Y-46180476D01*
X23145199Y-46513809D01*
X23145199Y-46370952D01*
X23192818Y-46275714D01*
X23240437Y-46228095D01*
X23335675Y-46180476D01*
X23573770Y-46180476D01*
X23669008Y-46228095D01*
X23716627Y-46275714D01*
X23764246Y-46370952D01*
X23764246Y-46656666D01*
X23716627Y-46751904D01*
X23669008Y-46799523D01*
X28392380Y-49013809D02*
X28392380Y-49490000D01*
X27392380Y-49490000D01*
X27725714Y-48251904D02*
X28392380Y-48251904D01*
X27344761Y-48490000D02*
X28059047Y-48728095D01*
X28059047Y-48109047D01*
X28392380Y-47680476D02*
X28392380Y-47490000D01*
X28344761Y-47394761D01*
X28297142Y-47347142D01*
X28154285Y-47251904D01*
X27963809Y-47204285D01*
X27582857Y-47204285D01*
X27487619Y-47251904D01*
X27440000Y-47299523D01*
X27392380Y-47394761D01*
X27392380Y-47585238D01*
X27440000Y-47680476D01*
X27487619Y-47728095D01*
X27582857Y-47775714D01*
X27820952Y-47775714D01*
X27916190Y-47728095D01*
X27963809Y-47680476D01*
X28011428Y-47585238D01*
X28011428Y-47394761D01*
X27963809Y-47299523D01*
X27916190Y-47251904D01*
X27820952Y-47204285D01*
X27392380Y-46870952D02*
X27392380Y-46204285D01*
X28392380Y-46632857D01*
X27392380Y-45347142D02*
X27392380Y-45823333D01*
X27868571Y-45870952D01*
X27820952Y-45823333D01*
X27773333Y-45728095D01*
X27773333Y-45490000D01*
X27820952Y-45394761D01*
X27868571Y-45347142D01*
X27963809Y-45299523D01*
X28201904Y-45299523D01*
X28297142Y-45347142D01*
X28344761Y-45394761D01*
X28392380Y-45490000D01*
X28392380Y-45728095D01*
X28344761Y-45823333D01*
X28297142Y-45870952D01*
X28106666Y-44918571D02*
X28106666Y-44442380D01*
X28392380Y-45013809D02*
X27392380Y-44680476D01*
X28392380Y-44347142D01*
X29932380Y-55880000D02*
X30170476Y-55880000D01*
X30075238Y-56118095D02*
X30170476Y-55880000D01*
X30075238Y-55641904D01*
X30360952Y-56022857D02*
X30170476Y-55880000D01*
X30360952Y-55737142D01*
%TO.C,C8*%
X81767142Y-48386666D02*
X81814761Y-48434285D01*
X81862380Y-48577142D01*
X81862380Y-48672380D01*
X81814761Y-48815238D01*
X81719523Y-48910476D01*
X81624285Y-48958095D01*
X81433809Y-49005714D01*
X81290952Y-49005714D01*
X81100476Y-48958095D01*
X81005238Y-48910476D01*
X80910000Y-48815238D01*
X80862380Y-48672380D01*
X80862380Y-48577142D01*
X80910000Y-48434285D01*
X80957619Y-48386666D01*
X81290952Y-47815238D02*
X81243333Y-47910476D01*
X81195714Y-47958095D01*
X81100476Y-48005714D01*
X81052857Y-48005714D01*
X80957619Y-47958095D01*
X80910000Y-47910476D01*
X80862380Y-47815238D01*
X80862380Y-47624761D01*
X80910000Y-47529523D01*
X80957619Y-47481904D01*
X81052857Y-47434285D01*
X81100476Y-47434285D01*
X81195714Y-47481904D01*
X81243333Y-47529523D01*
X81290952Y-47624761D01*
X81290952Y-47815238D01*
X81338571Y-47910476D01*
X81386190Y-47958095D01*
X81481428Y-48005714D01*
X81671904Y-48005714D01*
X81767142Y-47958095D01*
X81814761Y-47910476D01*
X81862380Y-47815238D01*
X81862380Y-47624761D01*
X81814761Y-47529523D01*
X81767142Y-47481904D01*
X81671904Y-47434285D01*
X81481428Y-47434285D01*
X81386190Y-47481904D01*
X81338571Y-47529523D01*
X81290952Y-47624761D01*
%TO.C,J3*%
X83902380Y-96153333D02*
X84616666Y-96153333D01*
X84759523Y-96200952D01*
X84854761Y-96296190D01*
X84902380Y-96439047D01*
X84902380Y-96534285D01*
X83902380Y-95772380D02*
X83902380Y-95153333D01*
X84283333Y-95486666D01*
X84283333Y-95343809D01*
X84330952Y-95248571D01*
X84378571Y-95200952D01*
X84473809Y-95153333D01*
X84711904Y-95153333D01*
X84807142Y-95200952D01*
X84854761Y-95248571D01*
X84902380Y-95343809D01*
X84902380Y-95629523D01*
X84854761Y-95724761D01*
X84807142Y-95772380D01*
%TO.C,C19*%
X17137142Y-79957142D02*
X17089523Y-80004761D01*
X16946666Y-80052380D01*
X16851428Y-80052380D01*
X16708571Y-80004761D01*
X16613333Y-79909523D01*
X16565714Y-79814285D01*
X16518095Y-79623809D01*
X16518095Y-79480952D01*
X16565714Y-79290476D01*
X16613333Y-79195238D01*
X16708571Y-79100000D01*
X16851428Y-79052380D01*
X16946666Y-79052380D01*
X17089523Y-79100000D01*
X17137142Y-79147619D01*
X18089523Y-80052380D02*
X17518095Y-80052380D01*
X17803809Y-80052380D02*
X17803809Y-79052380D01*
X17708571Y-79195238D01*
X17613333Y-79290476D01*
X17518095Y-79338095D01*
X18565714Y-80052380D02*
X18756190Y-80052380D01*
X18851428Y-80004761D01*
X18899047Y-79957142D01*
X18994285Y-79814285D01*
X19041904Y-79623809D01*
X19041904Y-79242857D01*
X18994285Y-79147619D01*
X18946666Y-79100000D01*
X18851428Y-79052380D01*
X18660952Y-79052380D01*
X18565714Y-79100000D01*
X18518095Y-79147619D01*
X18470476Y-79242857D01*
X18470476Y-79480952D01*
X18518095Y-79576190D01*
X18565714Y-79623809D01*
X18660952Y-79671428D01*
X18851428Y-79671428D01*
X18946666Y-79623809D01*
X18994285Y-79576190D01*
X19041904Y-79480952D01*
%TO.C,D2*%
X80312380Y-60428095D02*
X79312380Y-60428095D01*
X79312380Y-60190000D01*
X79360000Y-60047142D01*
X79455238Y-59951904D01*
X79550476Y-59904285D01*
X79740952Y-59856666D01*
X79883809Y-59856666D01*
X80074285Y-59904285D01*
X80169523Y-59951904D01*
X80264761Y-60047142D01*
X80312380Y-60190000D01*
X80312380Y-60428095D01*
X79407619Y-59475714D02*
X79360000Y-59428095D01*
X79312380Y-59332857D01*
X79312380Y-59094761D01*
X79360000Y-58999523D01*
X79407619Y-58951904D01*
X79502857Y-58904285D01*
X79598095Y-58904285D01*
X79740952Y-58951904D01*
X80312380Y-59523333D01*
X80312380Y-58904285D01*
%TO.C,U2*%
X44958095Y-47420280D02*
X44958095Y-48229804D01*
X45005714Y-48325042D01*
X45053333Y-48372661D01*
X45148571Y-48420280D01*
X45339047Y-48420280D01*
X45434285Y-48372661D01*
X45481904Y-48325042D01*
X45529523Y-48229804D01*
X45529523Y-47420280D01*
X45958095Y-47515519D02*
X46005714Y-47467900D01*
X46100952Y-47420280D01*
X46339047Y-47420280D01*
X46434285Y-47467900D01*
X46481904Y-47515519D01*
X46529523Y-47610757D01*
X46529523Y-47705995D01*
X46481904Y-47848852D01*
X45910476Y-48420280D01*
X46529523Y-48420280D01*
X39767619Y-48372661D02*
X39910476Y-48420280D01*
X40148571Y-48420280D01*
X40243809Y-48372661D01*
X40291428Y-48325042D01*
X40339047Y-48229804D01*
X40339047Y-48134566D01*
X40291428Y-48039328D01*
X40243809Y-47991709D01*
X40148571Y-47944090D01*
X39958095Y-47896471D01*
X39862857Y-47848852D01*
X39815238Y-47801233D01*
X39767619Y-47705995D01*
X39767619Y-47610757D01*
X39815238Y-47515519D01*
X39862857Y-47467900D01*
X39958095Y-47420280D01*
X40196190Y-47420280D01*
X40339047Y-47467900D01*
X40624761Y-47420280D02*
X41196190Y-47420280D01*
X40910476Y-48420280D02*
X40910476Y-47420280D01*
X41529523Y-48420280D02*
X41529523Y-47420280D01*
X41910476Y-47420280D01*
X42005714Y-47467900D01*
X42053333Y-47515519D01*
X42100952Y-47610757D01*
X42100952Y-47753614D01*
X42053333Y-47848852D01*
X42005714Y-47896471D01*
X41910476Y-47944090D01*
X41529523Y-47944090D01*
X42481904Y-48372661D02*
X42624761Y-48420280D01*
X42862857Y-48420280D01*
X42958095Y-48372661D01*
X43005714Y-48325042D01*
X43053333Y-48229804D01*
X43053333Y-48134566D01*
X43005714Y-48039328D01*
X42958095Y-47991709D01*
X42862857Y-47944090D01*
X42672380Y-47896471D01*
X42577142Y-47848852D01*
X42529523Y-47801233D01*
X42481904Y-47705995D01*
X42481904Y-47610757D01*
X42529523Y-47515519D01*
X42577142Y-47467900D01*
X42672380Y-47420280D01*
X42910476Y-47420280D01*
X43053333Y-47467900D01*
X44005714Y-48420280D02*
X43434285Y-48420280D01*
X43720000Y-48420280D02*
X43720000Y-47420280D01*
X43624761Y-47563138D01*
X43529523Y-47658376D01*
X43434285Y-47705995D01*
X44624761Y-47420280D02*
X44720000Y-47420280D01*
X44815238Y-47467900D01*
X44862857Y-47515519D01*
X44910476Y-47610757D01*
X44958095Y-47801233D01*
X44958095Y-48039328D01*
X44910476Y-48229804D01*
X44862857Y-48325042D01*
X44815238Y-48372661D01*
X44720000Y-48420280D01*
X44624761Y-48420280D01*
X44529523Y-48372661D01*
X44481904Y-48325042D01*
X44434285Y-48229804D01*
X44386666Y-48039328D01*
X44386666Y-47801233D01*
X44434285Y-47610757D01*
X44481904Y-47515519D01*
X44529523Y-47467900D01*
X44624761Y-47420280D01*
X45862857Y-48420280D02*
X45386666Y-48420280D01*
X45386666Y-47420280D01*
X46148571Y-47515519D02*
X46196190Y-47467900D01*
X46291428Y-47420280D01*
X46529523Y-47420280D01*
X46624761Y-47467900D01*
X46672380Y-47515519D01*
X46720000Y-47610757D01*
X46720000Y-47705995D01*
X46672380Y-47848852D01*
X46100952Y-48420280D01*
X46720000Y-48420280D01*
X47624761Y-47420280D02*
X47148571Y-47420280D01*
X47100952Y-47896471D01*
X47148571Y-47848852D01*
X47243809Y-47801233D01*
X47481904Y-47801233D01*
X47577142Y-47848852D01*
X47624761Y-47896471D01*
X47672380Y-47991709D01*
X47672380Y-48229804D01*
X47624761Y-48325042D01*
X47577142Y-48372661D01*
X47481904Y-48420280D01*
X47243809Y-48420280D01*
X47148571Y-48372661D01*
X47100952Y-48325042D01*
X48624761Y-47467900D02*
X48529523Y-47420280D01*
X48386666Y-47420280D01*
X48243809Y-47467900D01*
X48148571Y-47563138D01*
X48100952Y-47658376D01*
X48053333Y-47848852D01*
X48053333Y-47991709D01*
X48100952Y-48182185D01*
X48148571Y-48277423D01*
X48243809Y-48372661D01*
X48386666Y-48420280D01*
X48481904Y-48420280D01*
X48624761Y-48372661D01*
X48672380Y-48325042D01*
X48672380Y-47991709D01*
X48481904Y-47991709D01*
X49100952Y-48039328D02*
X49862857Y-48039328D01*
X50196190Y-47420280D02*
X50767619Y-47420280D01*
X50481904Y-48420280D02*
X50481904Y-47420280D01*
X51672380Y-48420280D02*
X51339047Y-47944090D01*
X51100952Y-48420280D02*
X51100952Y-47420280D01*
X51481904Y-47420280D01*
X51577142Y-47467900D01*
X51624761Y-47515519D01*
X51672380Y-47610757D01*
X51672380Y-47753614D01*
X51624761Y-47848852D01*
X51577142Y-47896471D01*
X51481904Y-47944090D01*
X51100952Y-47944090D01*
X41910000Y-56183280D02*
X41910000Y-56421376D01*
X41671904Y-56326138D02*
X41910000Y-56421376D01*
X42148095Y-56326138D01*
X41767142Y-56611852D02*
X41910000Y-56421376D01*
X42052857Y-56611852D01*
X41910000Y-56183280D02*
X41910000Y-56421376D01*
X41671904Y-56326138D02*
X41910000Y-56421376D01*
X42148095Y-56326138D01*
X41767142Y-56611852D02*
X41910000Y-56421376D01*
X42052857Y-56611852D01*
%TO.C,R10*%
X34917142Y-83382380D02*
X34583809Y-82906190D01*
X34345714Y-83382380D02*
X34345714Y-82382380D01*
X34726666Y-82382380D01*
X34821904Y-82430000D01*
X34869523Y-82477619D01*
X34917142Y-82572857D01*
X34917142Y-82715714D01*
X34869523Y-82810952D01*
X34821904Y-82858571D01*
X34726666Y-82906190D01*
X34345714Y-82906190D01*
X35869523Y-83382380D02*
X35298095Y-83382380D01*
X35583809Y-83382380D02*
X35583809Y-82382380D01*
X35488571Y-82525238D01*
X35393333Y-82620476D01*
X35298095Y-82668095D01*
X36488571Y-82382380D02*
X36583809Y-82382380D01*
X36679047Y-82430000D01*
X36726666Y-82477619D01*
X36774285Y-82572857D01*
X36821904Y-82763333D01*
X36821904Y-83001428D01*
X36774285Y-83191904D01*
X36726666Y-83287142D01*
X36679047Y-83334761D01*
X36583809Y-83382380D01*
X36488571Y-83382380D01*
X36393333Y-83334761D01*
X36345714Y-83287142D01*
X36298095Y-83191904D01*
X36250476Y-83001428D01*
X36250476Y-82763333D01*
X36298095Y-82572857D01*
X36345714Y-82477619D01*
X36393333Y-82430000D01*
X36488571Y-82382380D01*
%TO.C,C22*%
X81767142Y-34082857D02*
X81814761Y-34130476D01*
X81862380Y-34273333D01*
X81862380Y-34368571D01*
X81814761Y-34511428D01*
X81719523Y-34606666D01*
X81624285Y-34654285D01*
X81433809Y-34701904D01*
X81290952Y-34701904D01*
X81100476Y-34654285D01*
X81005238Y-34606666D01*
X80910000Y-34511428D01*
X80862380Y-34368571D01*
X80862380Y-34273333D01*
X80910000Y-34130476D01*
X80957619Y-34082857D01*
X80957619Y-33701904D02*
X80910000Y-33654285D01*
X80862380Y-33559047D01*
X80862380Y-33320952D01*
X80910000Y-33225714D01*
X80957619Y-33178095D01*
X81052857Y-33130476D01*
X81148095Y-33130476D01*
X81290952Y-33178095D01*
X81862380Y-33749523D01*
X81862380Y-33130476D01*
X80957619Y-32749523D02*
X80910000Y-32701904D01*
X80862380Y-32606666D01*
X80862380Y-32368571D01*
X80910000Y-32273333D01*
X80957619Y-32225714D01*
X81052857Y-32178095D01*
X81148095Y-32178095D01*
X81290952Y-32225714D01*
X81862380Y-32797142D01*
X81862380Y-32178095D01*
%TO.C,R13*%
X90242380Y-99702857D02*
X89766190Y-100036190D01*
X90242380Y-100274285D02*
X89242380Y-100274285D01*
X89242380Y-99893333D01*
X89290000Y-99798095D01*
X89337619Y-99750476D01*
X89432857Y-99702857D01*
X89575714Y-99702857D01*
X89670952Y-99750476D01*
X89718571Y-99798095D01*
X89766190Y-99893333D01*
X89766190Y-100274285D01*
X90242380Y-98750476D02*
X90242380Y-99321904D01*
X90242380Y-99036190D02*
X89242380Y-99036190D01*
X89385238Y-99131428D01*
X89480476Y-99226666D01*
X89528095Y-99321904D01*
X89242380Y-98417142D02*
X89242380Y-97798095D01*
X89623333Y-98131428D01*
X89623333Y-97988571D01*
X89670952Y-97893333D01*
X89718571Y-97845714D01*
X89813809Y-97798095D01*
X90051904Y-97798095D01*
X90147142Y-97845714D01*
X90194761Y-97893333D01*
X90242380Y-97988571D01*
X90242380Y-98274285D01*
X90194761Y-98369523D01*
X90147142Y-98417142D01*
%TO.C,C6*%
X17613333Y-54557142D02*
X17565714Y-54604761D01*
X17422857Y-54652380D01*
X17327619Y-54652380D01*
X17184761Y-54604761D01*
X17089523Y-54509523D01*
X17041904Y-54414285D01*
X16994285Y-54223809D01*
X16994285Y-54080952D01*
X17041904Y-53890476D01*
X17089523Y-53795238D01*
X17184761Y-53700000D01*
X17327619Y-53652380D01*
X17422857Y-53652380D01*
X17565714Y-53700000D01*
X17613333Y-53747619D01*
X18470476Y-53652380D02*
X18280000Y-53652380D01*
X18184761Y-53700000D01*
X18137142Y-53747619D01*
X18041904Y-53890476D01*
X17994285Y-54080952D01*
X17994285Y-54461904D01*
X18041904Y-54557142D01*
X18089523Y-54604761D01*
X18184761Y-54652380D01*
X18375238Y-54652380D01*
X18470476Y-54604761D01*
X18518095Y-54557142D01*
X18565714Y-54461904D01*
X18565714Y-54223809D01*
X18518095Y-54128571D01*
X18470476Y-54080952D01*
X18375238Y-54033333D01*
X18184761Y-54033333D01*
X18089523Y-54080952D01*
X18041904Y-54128571D01*
X17994285Y-54223809D01*
%TO.C,C2*%
X83653333Y-112117142D02*
X83605714Y-112164761D01*
X83462857Y-112212380D01*
X83367619Y-112212380D01*
X83224761Y-112164761D01*
X83129523Y-112069523D01*
X83081904Y-111974285D01*
X83034285Y-111783809D01*
X83034285Y-111640952D01*
X83081904Y-111450476D01*
X83129523Y-111355238D01*
X83224761Y-111260000D01*
X83367619Y-111212380D01*
X83462857Y-111212380D01*
X83605714Y-111260000D01*
X83653333Y-111307619D01*
X84034285Y-111307619D02*
X84081904Y-111260000D01*
X84177142Y-111212380D01*
X84415238Y-111212380D01*
X84510476Y-111260000D01*
X84558095Y-111307619D01*
X84605714Y-111402857D01*
X84605714Y-111498095D01*
X84558095Y-111640952D01*
X83986666Y-112212380D01*
X84605714Y-112212380D01*
%TO.C,C13*%
X16457142Y-41282857D02*
X16504761Y-41330476D01*
X16552380Y-41473333D01*
X16552380Y-41568571D01*
X16504761Y-41711428D01*
X16409523Y-41806666D01*
X16314285Y-41854285D01*
X16123809Y-41901904D01*
X15980952Y-41901904D01*
X15790476Y-41854285D01*
X15695238Y-41806666D01*
X15600000Y-41711428D01*
X15552380Y-41568571D01*
X15552380Y-41473333D01*
X15600000Y-41330476D01*
X15647619Y-41282857D01*
X16552380Y-40330476D02*
X16552380Y-40901904D01*
X16552380Y-40616190D02*
X15552380Y-40616190D01*
X15695238Y-40711428D01*
X15790476Y-40806666D01*
X15838095Y-40901904D01*
X15552380Y-39997142D02*
X15552380Y-39378095D01*
X15933333Y-39711428D01*
X15933333Y-39568571D01*
X15980952Y-39473333D01*
X16028571Y-39425714D01*
X16123809Y-39378095D01*
X16361904Y-39378095D01*
X16457142Y-39425714D01*
X16504761Y-39473333D01*
X16552380Y-39568571D01*
X16552380Y-39854285D01*
X16504761Y-39949523D01*
X16457142Y-39997142D01*
%TO.C,C21*%
X81767142Y-69182857D02*
X81814761Y-69230476D01*
X81862380Y-69373333D01*
X81862380Y-69468571D01*
X81814761Y-69611428D01*
X81719523Y-69706666D01*
X81624285Y-69754285D01*
X81433809Y-69801904D01*
X81290952Y-69801904D01*
X81100476Y-69754285D01*
X81005238Y-69706666D01*
X80910000Y-69611428D01*
X80862380Y-69468571D01*
X80862380Y-69373333D01*
X80910000Y-69230476D01*
X80957619Y-69182857D01*
X80957619Y-68801904D02*
X80910000Y-68754285D01*
X80862380Y-68659047D01*
X80862380Y-68420952D01*
X80910000Y-68325714D01*
X80957619Y-68278095D01*
X81052857Y-68230476D01*
X81148095Y-68230476D01*
X81290952Y-68278095D01*
X81862380Y-68849523D01*
X81862380Y-68230476D01*
X81862380Y-67278095D02*
X81862380Y-67849523D01*
X81862380Y-67563809D02*
X80862380Y-67563809D01*
X81005238Y-67659047D01*
X81100476Y-67754285D01*
X81148095Y-67849523D01*
%TO.C,U1*%
X52578095Y-88060280D02*
X52578095Y-88869804D01*
X52625714Y-88965042D01*
X52673333Y-89012661D01*
X52768571Y-89060280D01*
X52959047Y-89060280D01*
X53054285Y-89012661D01*
X53101904Y-88965042D01*
X53149523Y-88869804D01*
X53149523Y-88060280D01*
X54149523Y-89060280D02*
X53578095Y-89060280D01*
X53863809Y-89060280D02*
X53863809Y-88060280D01*
X53768571Y-88203138D01*
X53673333Y-88298376D01*
X53578095Y-88345995D01*
X47387619Y-89012661D02*
X47530476Y-89060280D01*
X47768571Y-89060280D01*
X47863809Y-89012661D01*
X47911428Y-88965042D01*
X47959047Y-88869804D01*
X47959047Y-88774566D01*
X47911428Y-88679328D01*
X47863809Y-88631709D01*
X47768571Y-88584090D01*
X47578095Y-88536471D01*
X47482857Y-88488852D01*
X47435238Y-88441233D01*
X47387619Y-88345995D01*
X47387619Y-88250757D01*
X47435238Y-88155519D01*
X47482857Y-88107900D01*
X47578095Y-88060280D01*
X47816190Y-88060280D01*
X47959047Y-88107900D01*
X48244761Y-88060280D02*
X48816190Y-88060280D01*
X48530476Y-89060280D02*
X48530476Y-88060280D01*
X49149523Y-89060280D02*
X49149523Y-88060280D01*
X49530476Y-88060280D01*
X49625714Y-88107900D01*
X49673333Y-88155519D01*
X49720952Y-88250757D01*
X49720952Y-88393614D01*
X49673333Y-88488852D01*
X49625714Y-88536471D01*
X49530476Y-88584090D01*
X49149523Y-88584090D01*
X50101904Y-89012661D02*
X50244761Y-89060280D01*
X50482857Y-89060280D01*
X50578095Y-89012661D01*
X50625714Y-88965042D01*
X50673333Y-88869804D01*
X50673333Y-88774566D01*
X50625714Y-88679328D01*
X50578095Y-88631709D01*
X50482857Y-88584090D01*
X50292380Y-88536471D01*
X50197142Y-88488852D01*
X50149523Y-88441233D01*
X50101904Y-88345995D01*
X50101904Y-88250757D01*
X50149523Y-88155519D01*
X50197142Y-88107900D01*
X50292380Y-88060280D01*
X50530476Y-88060280D01*
X50673333Y-88107900D01*
X51625714Y-89060280D02*
X51054285Y-89060280D01*
X51340000Y-89060280D02*
X51340000Y-88060280D01*
X51244761Y-88203138D01*
X51149523Y-88298376D01*
X51054285Y-88345995D01*
X52244761Y-88060280D02*
X52340000Y-88060280D01*
X52435238Y-88107900D01*
X52482857Y-88155519D01*
X52530476Y-88250757D01*
X52578095Y-88441233D01*
X52578095Y-88679328D01*
X52530476Y-88869804D01*
X52482857Y-88965042D01*
X52435238Y-89012661D01*
X52340000Y-89060280D01*
X52244761Y-89060280D01*
X52149523Y-89012661D01*
X52101904Y-88965042D01*
X52054285Y-88869804D01*
X52006666Y-88679328D01*
X52006666Y-88441233D01*
X52054285Y-88250757D01*
X52101904Y-88155519D01*
X52149523Y-88107900D01*
X52244761Y-88060280D01*
X53482857Y-89060280D02*
X53006666Y-89060280D01*
X53006666Y-88060280D01*
X53768571Y-88155519D02*
X53816190Y-88107900D01*
X53911428Y-88060280D01*
X54149523Y-88060280D01*
X54244761Y-88107900D01*
X54292380Y-88155519D01*
X54340000Y-88250757D01*
X54340000Y-88345995D01*
X54292380Y-88488852D01*
X53720952Y-89060280D01*
X54340000Y-89060280D01*
X55244761Y-88060280D02*
X54768571Y-88060280D01*
X54720952Y-88536471D01*
X54768571Y-88488852D01*
X54863809Y-88441233D01*
X55101904Y-88441233D01*
X55197142Y-88488852D01*
X55244761Y-88536471D01*
X55292380Y-88631709D01*
X55292380Y-88869804D01*
X55244761Y-88965042D01*
X55197142Y-89012661D01*
X55101904Y-89060280D01*
X54863809Y-89060280D01*
X54768571Y-89012661D01*
X54720952Y-88965042D01*
X56244761Y-88107900D02*
X56149523Y-88060280D01*
X56006666Y-88060280D01*
X55863809Y-88107900D01*
X55768571Y-88203138D01*
X55720952Y-88298376D01*
X55673333Y-88488852D01*
X55673333Y-88631709D01*
X55720952Y-88822185D01*
X55768571Y-88917423D01*
X55863809Y-89012661D01*
X56006666Y-89060280D01*
X56101904Y-89060280D01*
X56244761Y-89012661D01*
X56292380Y-88965042D01*
X56292380Y-88631709D01*
X56101904Y-88631709D01*
X56720952Y-88679328D02*
X57482857Y-88679328D01*
X57816190Y-88060280D02*
X58387619Y-88060280D01*
X58101904Y-89060280D02*
X58101904Y-88060280D01*
X59292380Y-89060280D02*
X58959047Y-88584090D01*
X58720952Y-89060280D02*
X58720952Y-88060280D01*
X59101904Y-88060280D01*
X59197142Y-88107900D01*
X59244761Y-88155519D01*
X59292380Y-88250757D01*
X59292380Y-88393614D01*
X59244761Y-88488852D01*
X59197142Y-88536471D01*
X59101904Y-88584090D01*
X58720952Y-88584090D01*
X49530000Y-96823280D02*
X49530000Y-97061376D01*
X49291904Y-96966138D02*
X49530000Y-97061376D01*
X49768095Y-96966138D01*
X49387142Y-97251852D02*
X49530000Y-97061376D01*
X49672857Y-97251852D01*
X49530000Y-96823280D02*
X49530000Y-97061376D01*
X49291904Y-96966138D02*
X49530000Y-97061376D01*
X49768095Y-96966138D01*
X49387142Y-97251852D02*
X49530000Y-97061376D01*
X49672857Y-97251852D01*
%TO.C,L2*%
X58333333Y-41462380D02*
X57857142Y-41462380D01*
X57857142Y-40462380D01*
X58619047Y-40557619D02*
X58666666Y-40510000D01*
X58761904Y-40462380D01*
X59000000Y-40462380D01*
X59095238Y-40510000D01*
X59142857Y-40557619D01*
X59190476Y-40652857D01*
X59190476Y-40748095D01*
X59142857Y-40890952D01*
X58571428Y-41462380D01*
X59190476Y-41462380D01*
%TO.C,R2*%
X76033333Y-117292380D02*
X75700000Y-116816190D01*
X75461904Y-117292380D02*
X75461904Y-116292380D01*
X75842857Y-116292380D01*
X75938095Y-116340000D01*
X75985714Y-116387619D01*
X76033333Y-116482857D01*
X76033333Y-116625714D01*
X75985714Y-116720952D01*
X75938095Y-116768571D01*
X75842857Y-116816190D01*
X75461904Y-116816190D01*
X76414285Y-116387619D02*
X76461904Y-116340000D01*
X76557142Y-116292380D01*
X76795238Y-116292380D01*
X76890476Y-116340000D01*
X76938095Y-116387619D01*
X76985714Y-116482857D01*
X76985714Y-116578095D01*
X76938095Y-116720952D01*
X76366666Y-117292380D01*
X76985714Y-117292380D01*
%TO.C,R3*%
X86193333Y-108022380D02*
X85860000Y-107546190D01*
X85621904Y-108022380D02*
X85621904Y-107022380D01*
X86002857Y-107022380D01*
X86098095Y-107070000D01*
X86145714Y-107117619D01*
X86193333Y-107212857D01*
X86193333Y-107355714D01*
X86145714Y-107450952D01*
X86098095Y-107498571D01*
X86002857Y-107546190D01*
X85621904Y-107546190D01*
X86526666Y-107022380D02*
X87145714Y-107022380D01*
X86812380Y-107403333D01*
X86955238Y-107403333D01*
X87050476Y-107450952D01*
X87098095Y-107498571D01*
X87145714Y-107593809D01*
X87145714Y-107831904D01*
X87098095Y-107927142D01*
X87050476Y-107974761D01*
X86955238Y-108022380D01*
X86669523Y-108022380D01*
X86574285Y-107974761D01*
X86526666Y-107927142D01*
%TO.C,L3*%
X65793333Y-122002380D02*
X65317142Y-122002380D01*
X65317142Y-121002380D01*
X66031428Y-121002380D02*
X66650476Y-121002380D01*
X66317142Y-121383333D01*
X66460000Y-121383333D01*
X66555238Y-121430952D01*
X66602857Y-121478571D01*
X66650476Y-121573809D01*
X66650476Y-121811904D01*
X66602857Y-121907142D01*
X66555238Y-121954761D01*
X66460000Y-122002380D01*
X66174285Y-122002380D01*
X66079047Y-121954761D01*
X66031428Y-121907142D01*
%TO.C,D1*%
X96972380Y-108708095D02*
X95972380Y-108708095D01*
X95972380Y-108470000D01*
X96020000Y-108327142D01*
X96115238Y-108231904D01*
X96210476Y-108184285D01*
X96400952Y-108136666D01*
X96543809Y-108136666D01*
X96734285Y-108184285D01*
X96829523Y-108231904D01*
X96924761Y-108327142D01*
X96972380Y-108470000D01*
X96972380Y-108708095D01*
X96972380Y-107184285D02*
X96972380Y-107755714D01*
X96972380Y-107470000D02*
X95972380Y-107470000D01*
X96115238Y-107565238D01*
X96210476Y-107660476D01*
X96258095Y-107755714D01*
%TO.C,L1*%
X65793333Y-101682380D02*
X65317142Y-101682380D01*
X65317142Y-100682380D01*
X66650476Y-101682380D02*
X66079047Y-101682380D01*
X66364761Y-101682380D02*
X66364761Y-100682380D01*
X66269523Y-100825238D01*
X66174285Y-100920476D01*
X66079047Y-100968095D01*
%TO.C,C18*%
X40587142Y-104782857D02*
X40634761Y-104830476D01*
X40682380Y-104973333D01*
X40682380Y-105068571D01*
X40634761Y-105211428D01*
X40539523Y-105306666D01*
X40444285Y-105354285D01*
X40253809Y-105401904D01*
X40110952Y-105401904D01*
X39920476Y-105354285D01*
X39825238Y-105306666D01*
X39730000Y-105211428D01*
X39682380Y-105068571D01*
X39682380Y-104973333D01*
X39730000Y-104830476D01*
X39777619Y-104782857D01*
X40682380Y-103830476D02*
X40682380Y-104401904D01*
X40682380Y-104116190D02*
X39682380Y-104116190D01*
X39825238Y-104211428D01*
X39920476Y-104306666D01*
X39968095Y-104401904D01*
X40110952Y-103259047D02*
X40063333Y-103354285D01*
X40015714Y-103401904D01*
X39920476Y-103449523D01*
X39872857Y-103449523D01*
X39777619Y-103401904D01*
X39730000Y-103354285D01*
X39682380Y-103259047D01*
X39682380Y-103068571D01*
X39730000Y-102973333D01*
X39777619Y-102925714D01*
X39872857Y-102878095D01*
X39920476Y-102878095D01*
X40015714Y-102925714D01*
X40063333Y-102973333D01*
X40110952Y-103068571D01*
X40110952Y-103259047D01*
X40158571Y-103354285D01*
X40206190Y-103401904D01*
X40301428Y-103449523D01*
X40491904Y-103449523D01*
X40587142Y-103401904D01*
X40634761Y-103354285D01*
X40682380Y-103259047D01*
X40682380Y-103068571D01*
X40634761Y-102973333D01*
X40587142Y-102925714D01*
X40491904Y-102878095D01*
X40301428Y-102878095D01*
X40206190Y-102925714D01*
X40158571Y-102973333D01*
X40110952Y-103068571D01*
%TO.C,R4*%
X35393333Y-57982380D02*
X35060000Y-57506190D01*
X34821904Y-57982380D02*
X34821904Y-56982380D01*
X35202857Y-56982380D01*
X35298095Y-57030000D01*
X35345714Y-57077619D01*
X35393333Y-57172857D01*
X35393333Y-57315714D01*
X35345714Y-57410952D01*
X35298095Y-57458571D01*
X35202857Y-57506190D01*
X34821904Y-57506190D01*
X36250476Y-57315714D02*
X36250476Y-57982380D01*
X36012380Y-56934761D02*
X35774285Y-57649047D01*
X36393333Y-57649047D01*
%TO.C,R7*%
X86193333Y-117292380D02*
X85860000Y-116816190D01*
X85621904Y-117292380D02*
X85621904Y-116292380D01*
X86002857Y-116292380D01*
X86098095Y-116340000D01*
X86145714Y-116387619D01*
X86193333Y-116482857D01*
X86193333Y-116625714D01*
X86145714Y-116720952D01*
X86098095Y-116768571D01*
X86002857Y-116816190D01*
X85621904Y-116816190D01*
X86526666Y-116292380D02*
X87193333Y-116292380D01*
X86764761Y-117292380D01*
%TO.C,C1*%
X78573333Y-112117142D02*
X78525714Y-112164761D01*
X78382857Y-112212380D01*
X78287619Y-112212380D01*
X78144761Y-112164761D01*
X78049523Y-112069523D01*
X78001904Y-111974285D01*
X77954285Y-111783809D01*
X77954285Y-111640952D01*
X78001904Y-111450476D01*
X78049523Y-111355238D01*
X78144761Y-111260000D01*
X78287619Y-111212380D01*
X78382857Y-111212380D01*
X78525714Y-111260000D01*
X78573333Y-111307619D01*
X79525714Y-112212380D02*
X78954285Y-112212380D01*
X79240000Y-112212380D02*
X79240000Y-111212380D01*
X79144761Y-111355238D01*
X79049523Y-111450476D01*
X78954285Y-111498095D01*
D11*
%TO.C,SW1*%
X49200000Y-18210000D02*
X49200000Y-25230000D01*
X49200000Y-25230000D02*
X41120000Y-25230000D01*
X42320000Y-18210000D02*
X42320000Y-16510000D01*
X40320000Y-20020000D02*
X40920000Y-20320000D01*
X40320000Y-20620000D02*
X40320000Y-20020000D01*
X40920000Y-20320000D02*
X40320000Y-20620000D01*
X48000000Y-18210000D02*
X49200000Y-18210000D01*
X41120000Y-25230000D02*
X41120000Y-18210000D01*
X42320000Y-16510000D02*
X48000000Y-16510000D01*
X41120000Y-18210000D02*
X42320000Y-18210000D01*
X48000000Y-16510000D02*
X48000000Y-18210000D01*
%TO.C,C5*%
X41175000Y-85671252D02*
X41175000Y-85148748D01*
X42645000Y-85671252D02*
X42645000Y-85148748D01*
%TO.C,C15*%
X93245000Y-114038748D02*
X93245000Y-114561252D01*
X94715000Y-114038748D02*
X94715000Y-114561252D01*
%TO.C,R11*%
X35025000Y-122147064D02*
X35025000Y-121692936D01*
X33555000Y-122147064D02*
X33555000Y-121692936D01*
%TO.C,C3*%
X82298000Y-86261000D02*
X77640000Y-86261000D01*
X74760000Y-85181000D02*
X69769000Y-85181000D01*
X82727000Y-84621000D02*
X69673000Y-84621000D01*
X74760000Y-86101000D02*
X70039000Y-86101000D01*
X74760000Y-86501000D02*
X70204000Y-86501000D01*
X74760000Y-85461000D02*
X69836000Y-85461000D01*
X81636000Y-87501000D02*
X77640000Y-87501000D01*
X82656000Y-85061000D02*
X77640000Y-85061000D01*
X82631000Y-85181000D02*
X77640000Y-85181000D01*
X82604000Y-85301000D02*
X77640000Y-85301000D01*
X81553000Y-87621000D02*
X77640000Y-87621000D01*
X74760000Y-85741000D02*
X69916000Y-85741000D01*
X74760000Y-87701000D02*
X70905000Y-87701000D01*
X82432000Y-85901000D02*
X77640000Y-85901000D01*
X74760000Y-85621000D02*
X69880000Y-85621000D01*
X81465000Y-87741000D02*
X70935000Y-87741000D01*
X74760000Y-87221000D02*
X70583000Y-87221000D01*
X74760000Y-85261000D02*
X69787000Y-85261000D01*
X74760000Y-85221000D02*
X69778000Y-85221000D01*
X74760000Y-86461000D02*
X70186000Y-86461000D01*
X82418000Y-85941000D02*
X77640000Y-85941000D01*
X82390000Y-86021000D02*
X77640000Y-86021000D01*
X74760000Y-85661000D02*
X69892000Y-85661000D01*
X82773000Y-84100000D02*
X69627000Y-84100000D01*
X82594000Y-85341000D02*
X77640000Y-85341000D01*
X78958000Y-89781000D02*
X73442000Y-89781000D01*
X79933000Y-89221000D02*
X72467000Y-89221000D01*
X74760000Y-87261000D02*
X70608000Y-87261000D01*
X80257000Y-88981000D02*
X72143000Y-88981000D01*
X80882000Y-88421000D02*
X71518000Y-88421000D01*
X74760000Y-86141000D02*
X70054000Y-86141000D01*
X74760000Y-85501000D02*
X69847000Y-85501000D01*
X82780000Y-83820000D02*
X69620000Y-83820000D01*
X76675000Y-90381000D02*
X75725000Y-90381000D01*
X82763000Y-84260000D02*
X69637000Y-84260000D01*
X82716000Y-84701000D02*
X69684000Y-84701000D01*
X79990000Y-89181000D02*
X72410000Y-89181000D01*
X80921000Y-88381000D02*
X71479000Y-88381000D01*
X74760000Y-86061000D02*
X70025000Y-86061000D01*
X74760000Y-87541000D02*
X70791000Y-87541000D01*
X82692000Y-84861000D02*
X77640000Y-84861000D01*
X82020000Y-86861000D02*
X77640000Y-86861000D01*
X82564000Y-85461000D02*
X77640000Y-85461000D01*
X82671000Y-84981000D02*
X77640000Y-84981000D01*
X82214000Y-86461000D02*
X77640000Y-86461000D01*
X81524000Y-87661000D02*
X77640000Y-87661000D01*
X81933000Y-87021000D02*
X77640000Y-87021000D01*
X74760000Y-85901000D02*
X69968000Y-85901000D01*
X82698000Y-84821000D02*
X69702000Y-84821000D01*
X74760000Y-87061000D02*
X70489000Y-87061000D01*
X80761000Y-88541000D02*
X71639000Y-88541000D01*
X82711000Y-84741000D02*
X69689000Y-84741000D01*
X82496000Y-85701000D02*
X77640000Y-85701000D01*
X74760000Y-85821000D02*
X69942000Y-85821000D01*
X82361000Y-86101000D02*
X77640000Y-86101000D01*
X74760000Y-85581000D02*
X69869000Y-85581000D01*
X81342000Y-87901000D02*
X71058000Y-87901000D01*
X82766000Y-84220000D02*
X69634000Y-84220000D01*
X74760000Y-86541000D02*
X70222000Y-86541000D01*
X74760000Y-87381000D02*
X70684000Y-87381000D01*
X79691000Y-89381000D02*
X72709000Y-89381000D01*
X80802000Y-88501000D02*
X71598000Y-88501000D01*
X80960000Y-88341000D02*
X71440000Y-88341000D01*
X81435000Y-87781000D02*
X70965000Y-87781000D01*
X80843000Y-88461000D02*
X71557000Y-88461000D01*
X74760000Y-85941000D02*
X69982000Y-85941000D01*
X79493000Y-89501000D02*
X72907000Y-89501000D01*
X82622000Y-85221000D02*
X77640000Y-85221000D01*
X81999000Y-86901000D02*
X77640000Y-86901000D01*
X81817000Y-87221000D02*
X77640000Y-87221000D01*
X74760000Y-86021000D02*
X70010000Y-86021000D01*
X74760000Y-86341000D02*
X70135000Y-86341000D01*
X80308000Y-88941000D02*
X72092000Y-88941000D01*
X74760000Y-86781000D02*
X70338000Y-86781000D01*
X81864000Y-87141000D02*
X77640000Y-87141000D01*
X82062000Y-86781000D02*
X77640000Y-86781000D01*
X80590000Y-88701000D02*
X71810000Y-88701000D01*
X74760000Y-84861000D02*
X69708000Y-84861000D01*
X74760000Y-87181000D02*
X70559000Y-87181000D01*
X74760000Y-86901000D02*
X70401000Y-86901000D01*
X79561000Y-89461000D02*
X72839000Y-89461000D01*
X82760000Y-84300000D02*
X69640000Y-84300000D01*
X74760000Y-85861000D02*
X69955000Y-85861000D01*
X79754000Y-89341000D02*
X72646000Y-89341000D01*
X79352000Y-89581000D02*
X73048000Y-89581000D01*
X80545000Y-88741000D02*
X71855000Y-88741000D01*
X82508000Y-85661000D02*
X77640000Y-85661000D01*
X74760000Y-87141000D02*
X70536000Y-87141000D01*
X74760000Y-85781000D02*
X69929000Y-85781000D01*
X74760000Y-87581000D02*
X70819000Y-87581000D01*
X81071000Y-88221000D02*
X71329000Y-88221000D01*
X82282000Y-86301000D02*
X77640000Y-86301000D01*
X78255000Y-90061000D02*
X74145000Y-90061000D01*
X74760000Y-85061000D02*
X69744000Y-85061000D01*
X80154000Y-89061000D02*
X72246000Y-89061000D01*
X79875000Y-89261000D02*
X72525000Y-89261000D01*
X74760000Y-85021000D02*
X69737000Y-85021000D01*
X82780000Y-83780000D02*
X69620000Y-83780000D01*
X82471000Y-85781000D02*
X77640000Y-85781000D01*
X80677000Y-88621000D02*
X71723000Y-88621000D01*
X80499000Y-88781000D02*
X71901000Y-88781000D01*
X82314000Y-86221000D02*
X77640000Y-86221000D01*
X82722000Y-84661000D02*
X69678000Y-84661000D01*
X74760000Y-87621000D02*
X70847000Y-87621000D01*
X78131000Y-90101000D02*
X74269000Y-90101000D01*
X81716000Y-87381000D02*
X77640000Y-87381000D01*
X82121000Y-86661000D02*
X77640000Y-86661000D01*
X82196000Y-86501000D02*
X77640000Y-86501000D01*
X79278000Y-89621000D02*
X73122000Y-89621000D01*
X74760000Y-85981000D02*
X69996000Y-85981000D01*
X82741000Y-84501000D02*
X69659000Y-84501000D01*
X82663000Y-85021000D02*
X77640000Y-85021000D01*
X82458000Y-85821000D02*
X77640000Y-85821000D01*
X80997000Y-88301000D02*
X71403000Y-88301000D01*
X74760000Y-86621000D02*
X70260000Y-86621000D01*
X82678000Y-84941000D02*
X77640000Y-84941000D01*
X74760000Y-86261000D02*
X70102000Y-86261000D01*
X82330000Y-86181000D02*
X77640000Y-86181000D01*
X81888000Y-87101000D02*
X77640000Y-87101000D01*
X80453000Y-88821000D02*
X71947000Y-88821000D01*
X81374000Y-87861000D02*
X71026000Y-87861000D01*
X82249000Y-86381000D02*
X77640000Y-86381000D01*
X74760000Y-86741000D02*
X70318000Y-86741000D01*
X74760000Y-84981000D02*
X69729000Y-84981000D01*
X78585000Y-89941000D02*
X73815000Y-89941000D01*
X82265000Y-86341000D02*
X77640000Y-86341000D01*
X82231000Y-86421000D02*
X77640000Y-86421000D01*
X74760000Y-86981000D02*
X70444000Y-86981000D01*
X74760000Y-85541000D02*
X69858000Y-85541000D01*
X81742000Y-87341000D02*
X77640000Y-87341000D01*
X80405000Y-88861000D02*
X71995000Y-88861000D01*
X74760000Y-86381000D02*
X70151000Y-86381000D01*
X82613000Y-85261000D02*
X77640000Y-85261000D01*
X81177000Y-88101000D02*
X71223000Y-88101000D01*
X78481000Y-89981000D02*
X73919000Y-89981000D01*
X82639000Y-85141000D02*
X77640000Y-85141000D01*
X82745000Y-84460000D02*
X69655000Y-84460000D01*
X79627000Y-89421000D02*
X72773000Y-89421000D01*
X77515000Y-90261000D02*
X74885000Y-90261000D01*
X81767000Y-87301000D02*
X77640000Y-87301000D01*
X82749000Y-84420000D02*
X69651000Y-84420000D01*
X74760000Y-87101000D02*
X70512000Y-87101000D01*
X74760000Y-86861000D02*
X70380000Y-86861000D01*
X79815000Y-89301000D02*
X72585000Y-89301000D01*
X82779000Y-83940000D02*
X69621000Y-83940000D01*
X82484000Y-85741000D02*
X77640000Y-85741000D01*
X81278000Y-87981000D02*
X71122000Y-87981000D01*
X74760000Y-86661000D02*
X70279000Y-86661000D01*
X82375000Y-86061000D02*
X77640000Y-86061000D01*
X78684000Y-89901000D02*
X73716000Y-89901000D01*
X81956000Y-86981000D02*
X77640000Y-86981000D01*
X82705000Y-84781000D02*
X69695000Y-84781000D01*
X82779000Y-83900000D02*
X69621000Y-83900000D01*
X74760000Y-87301000D02*
X70633000Y-87301000D01*
X82553000Y-85501000D02*
X77640000Y-85501000D01*
X74760000Y-86941000D02*
X70422000Y-86941000D01*
X74760000Y-85701000D02*
X69904000Y-85701000D01*
X80206000Y-89021000D02*
X72194000Y-89021000D01*
X82346000Y-86141000D02*
X77640000Y-86141000D01*
X74760000Y-85101000D02*
X69752000Y-85101000D01*
X74760000Y-86821000D02*
X70359000Y-86821000D01*
X78371000Y-90021000D02*
X74029000Y-90021000D01*
X82574000Y-85421000D02*
X77640000Y-85421000D01*
X74760000Y-87461000D02*
X70737000Y-87461000D01*
X81034000Y-88261000D02*
X71366000Y-88261000D01*
X82178000Y-86541000D02*
X77640000Y-86541000D01*
X74760000Y-87021000D02*
X70467000Y-87021000D01*
X81581000Y-87581000D02*
X77640000Y-87581000D01*
X82082000Y-86741000D02*
X77640000Y-86741000D01*
X79915000Y-76695431D02*
X79915000Y-77995431D01*
X82140000Y-86621000D02*
X77640000Y-86621000D01*
X82771000Y-84140000D02*
X69629000Y-84140000D01*
X81609000Y-87541000D02*
X77640000Y-87541000D01*
X82753000Y-84380000D02*
X69647000Y-84380000D01*
X74760000Y-87661000D02*
X70876000Y-87661000D01*
X82737000Y-84541000D02*
X69663000Y-84541000D01*
X77694000Y-90221000D02*
X74706000Y-90221000D01*
X80565000Y-77345431D02*
X79265000Y-77345431D01*
X81495000Y-87701000D02*
X77640000Y-87701000D01*
X82404000Y-85981000D02*
X77640000Y-85981000D01*
X79202000Y-89661000D02*
X73198000Y-89661000D01*
X81142000Y-88141000D02*
X71258000Y-88141000D01*
X80719000Y-88581000D02*
X71681000Y-88581000D01*
X80357000Y-88901000D02*
X72043000Y-88901000D01*
X81405000Y-87821000D02*
X70995000Y-87821000D01*
X82159000Y-86581000D02*
X77640000Y-86581000D01*
X81690000Y-87421000D02*
X77640000Y-87421000D01*
X74760000Y-85341000D02*
X69806000Y-85341000D01*
X79042000Y-89741000D02*
X73358000Y-89741000D01*
X74760000Y-85381000D02*
X69816000Y-85381000D01*
X74760000Y-87341000D02*
X70658000Y-87341000D01*
X82732000Y-84581000D02*
X69668000Y-84581000D01*
X74760000Y-85141000D02*
X69761000Y-85141000D01*
X82584000Y-85381000D02*
X77640000Y-85381000D01*
X80100000Y-89101000D02*
X72300000Y-89101000D01*
X82780000Y-83860000D02*
X69620000Y-83860000D01*
X74760000Y-87421000D02*
X70710000Y-87421000D01*
X74760000Y-86221000D02*
X70086000Y-86221000D01*
X82531000Y-85581000D02*
X77640000Y-85581000D01*
X81841000Y-87181000D02*
X77640000Y-87181000D01*
X82102000Y-86701000D02*
X77640000Y-86701000D01*
X82648000Y-85101000D02*
X77640000Y-85101000D01*
X74760000Y-86181000D02*
X70070000Y-86181000D01*
X74760000Y-86421000D02*
X70169000Y-86421000D01*
X81211000Y-88061000D02*
X71189000Y-88061000D01*
X82041000Y-86821000D02*
X77640000Y-86821000D01*
X74760000Y-86701000D02*
X70298000Y-86701000D01*
X82542000Y-85541000D02*
X77640000Y-85541000D01*
X82520000Y-85621000D02*
X77640000Y-85621000D01*
X82776000Y-84020000D02*
X69624000Y-84020000D01*
X74760000Y-85301000D02*
X69796000Y-85301000D01*
X74760000Y-85421000D02*
X69826000Y-85421000D01*
X77853000Y-90181000D02*
X74547000Y-90181000D01*
X80046000Y-89141000D02*
X72354000Y-89141000D01*
X77998000Y-90141000D02*
X74402000Y-90141000D01*
X81911000Y-87061000D02*
X77640000Y-87061000D01*
X81310000Y-87941000D02*
X71090000Y-87941000D01*
X74760000Y-87501000D02*
X70764000Y-87501000D01*
X79423000Y-89541000D02*
X72977000Y-89541000D01*
X82768000Y-84180000D02*
X69632000Y-84180000D01*
X82685000Y-84901000D02*
X77640000Y-84901000D01*
X80634000Y-88661000D02*
X71766000Y-88661000D01*
X74760000Y-86581000D02*
X70241000Y-86581000D01*
X81792000Y-87261000D02*
X77640000Y-87261000D01*
X74760000Y-84901000D02*
X69715000Y-84901000D01*
X81107000Y-88181000D02*
X71293000Y-88181000D01*
X81244000Y-88021000D02*
X71156000Y-88021000D01*
X82757000Y-84340000D02*
X69643000Y-84340000D01*
X82777000Y-83980000D02*
X69623000Y-83980000D01*
X78779000Y-89861000D02*
X73621000Y-89861000D01*
X81663000Y-87461000D02*
X77640000Y-87461000D01*
X78870000Y-89821000D02*
X73530000Y-89821000D01*
X74760000Y-84941000D02*
X69722000Y-84941000D01*
X82445000Y-85861000D02*
X77640000Y-85861000D01*
X82775000Y-84060000D02*
X69625000Y-84060000D01*
X74760000Y-86301000D02*
X70118000Y-86301000D01*
X81978000Y-86941000D02*
X77640000Y-86941000D01*
X77050000Y-90341000D02*
X75350000Y-90341000D01*
X77307000Y-90301000D02*
X75093000Y-90301000D01*
X79123000Y-89701000D02*
X73277000Y-89701000D01*
X82820000Y-83780000D02*
G75*
G03*
X82820000Y-83780000I-6620000J0D01*
G01*
%TO.C,J1*%
X21700000Y-31520000D02*
X21750000Y-31520000D01*
X19100000Y-31020000D02*
X20050000Y-31020000D01*
X21500000Y-31020000D02*
X26900000Y-31020000D01*
X21750000Y-31520000D02*
X21500000Y-31020000D01*
X19100000Y-20670000D02*
X19100000Y-31020000D01*
X31700000Y-20670000D02*
X19100000Y-20670000D01*
X31700000Y-31520000D02*
X31700000Y-20670000D01*
X26600000Y-31520000D02*
X31700000Y-31520000D01*
X20050000Y-31020000D02*
X19800000Y-31520000D01*
X19800000Y-31520000D02*
X21700000Y-31520000D01*
X26900000Y-31020000D02*
X26600000Y-31520000D01*
%TO.C,L4*%
X52396701Y-70040000D02*
G75*
G03*
X64283299Y-70040000I5943299J1460000D01*
G01*
X64283299Y-67120000D02*
G75*
G03*
X52396701Y-67120000I-5943299J-1460000D01*
G01*
%TO.C,C25*%
X36095000Y-121658748D02*
X36095000Y-122181252D01*
X37565000Y-121658748D02*
X37565000Y-122181252D01*
%TO.C,C23*%
X90955000Y-39721000D02*
X86845000Y-39721000D01*
X94541000Y-36841000D02*
X90340000Y-36841000D01*
X93842000Y-37801000D02*
X83958000Y-37801000D01*
X87460000Y-36521000D02*
X83080000Y-36521000D01*
X95432000Y-34241000D02*
X82368000Y-34241000D01*
X94633000Y-36681000D02*
X90340000Y-36681000D01*
X95132000Y-35561000D02*
X90340000Y-35561000D01*
X87460000Y-34801000D02*
X82461000Y-34801000D01*
X92391000Y-39041000D02*
X85409000Y-39041000D01*
X93944000Y-37681000D02*
X83856000Y-37681000D01*
X93697000Y-37961000D02*
X84103000Y-37961000D01*
X87460000Y-35401000D02*
X82616000Y-35401000D01*
X94042000Y-37561000D02*
X83758000Y-37561000D01*
X93419000Y-38241000D02*
X84381000Y-38241000D01*
X95480000Y-33480000D02*
X82320000Y-33480000D01*
X87460000Y-34561000D02*
X82415000Y-34561000D01*
X95363000Y-34681000D02*
X90340000Y-34681000D01*
X87460000Y-36201000D02*
X82922000Y-36201000D01*
X87460000Y-35241000D02*
X82569000Y-35241000D01*
X87460000Y-37041000D02*
X83384000Y-37041000D01*
X87460000Y-37361000D02*
X83605000Y-37361000D01*
X87460000Y-36121000D02*
X82886000Y-36121000D01*
X94678000Y-36601000D02*
X90340000Y-36601000D01*
X94588000Y-36761000D02*
X90340000Y-36761000D01*
X87460000Y-36281000D02*
X82960000Y-36281000D01*
X95479000Y-33560000D02*
X82321000Y-33560000D01*
X93807000Y-37841000D02*
X83993000Y-37841000D01*
X87460000Y-35561000D02*
X82668000Y-35561000D01*
X87460000Y-37081000D02*
X83410000Y-37081000D01*
X93911000Y-37721000D02*
X83889000Y-37721000D01*
X90394000Y-39881000D02*
X87406000Y-39881000D01*
X93978000Y-37641000D02*
X83822000Y-37641000D01*
X93245000Y-38401000D02*
X84555000Y-38401000D01*
X94336000Y-37161000D02*
X90340000Y-37161000D01*
X95242000Y-35201000D02*
X90340000Y-35201000D01*
X94363000Y-37121000D02*
X90340000Y-37121000D01*
X95449000Y-34080000D02*
X82351000Y-34080000D01*
X95313000Y-34921000D02*
X90340000Y-34921000D01*
X93290000Y-38361000D02*
X84510000Y-38361000D01*
X94982000Y-35961000D02*
X90340000Y-35961000D01*
X95475000Y-33720000D02*
X82325000Y-33720000D01*
X87460000Y-35481000D02*
X82642000Y-35481000D01*
X91902000Y-39321000D02*
X85898000Y-39321000D01*
X87460000Y-35321000D02*
X82592000Y-35321000D01*
X87460000Y-36961000D02*
X83333000Y-36961000D01*
X94105000Y-37481000D02*
X83695000Y-37481000D01*
X87460000Y-36561000D02*
X83101000Y-36561000D01*
X94840000Y-36281000D02*
X90340000Y-36281000D01*
X87460000Y-34521000D02*
X82408000Y-34521000D01*
X87460000Y-34681000D02*
X82437000Y-34681000D01*
X95356000Y-34721000D02*
X90340000Y-34721000D01*
X95479000Y-33600000D02*
X82321000Y-33600000D01*
X95220000Y-35281000D02*
X90340000Y-35281000D01*
X94878000Y-36201000D02*
X90340000Y-36201000D01*
X87460000Y-37161000D02*
X83464000Y-37161000D01*
X95158000Y-35481000D02*
X90340000Y-35481000D01*
X87460000Y-35121000D02*
X82536000Y-35121000D01*
X87460000Y-37121000D02*
X83437000Y-37121000D01*
X95196000Y-35361000D02*
X90340000Y-35361000D01*
X91823000Y-39361000D02*
X85977000Y-39361000D01*
X92800000Y-38761000D02*
X85000000Y-38761000D01*
X92633000Y-38881000D02*
X85167000Y-38881000D01*
X91978000Y-39281000D02*
X85822000Y-39281000D01*
X95405000Y-34441000D02*
X82395000Y-34441000D01*
X92575000Y-38921000D02*
X85225000Y-38921000D01*
X93153000Y-38481000D02*
X84647000Y-38481000D01*
X94859000Y-36241000D02*
X90340000Y-36241000D01*
X95477000Y-33640000D02*
X82323000Y-33640000D01*
X87460000Y-35681000D02*
X82710000Y-35681000D01*
X92615000Y-26355431D02*
X92615000Y-27655431D01*
X95480000Y-33440000D02*
X82320000Y-33440000D01*
X93199000Y-38441000D02*
X84601000Y-38441000D01*
X89375000Y-40041000D02*
X88425000Y-40041000D01*
X87460000Y-37321000D02*
X83576000Y-37321000D01*
X92746000Y-38801000D02*
X85054000Y-38801000D01*
X94281000Y-37241000D02*
X90340000Y-37241000D01*
X94224000Y-37321000D02*
X90340000Y-37321000D01*
X87460000Y-36761000D02*
X83212000Y-36761000D01*
X87460000Y-36001000D02*
X82835000Y-36001000D01*
X92327000Y-39081000D02*
X85473000Y-39081000D01*
X94965000Y-36001000D02*
X90340000Y-36001000D01*
X95385000Y-34561000D02*
X90340000Y-34561000D01*
X87460000Y-34641000D02*
X82429000Y-34641000D01*
X91181000Y-39641000D02*
X86619000Y-39641000D01*
X87460000Y-36481000D02*
X83059000Y-36481000D01*
X87460000Y-34601000D02*
X82422000Y-34601000D01*
X95284000Y-35041000D02*
X90340000Y-35041000D01*
X95145000Y-35521000D02*
X90340000Y-35521000D01*
X87460000Y-37241000D02*
X83519000Y-37241000D01*
X87460000Y-34961000D02*
X82496000Y-34961000D01*
X92957000Y-38641000D02*
X84843000Y-38641000D01*
X95331000Y-34841000D02*
X90340000Y-34841000D01*
X95322000Y-34881000D02*
X90340000Y-34881000D01*
X87460000Y-36641000D02*
X83144000Y-36641000D01*
X93502000Y-38161000D02*
X84298000Y-38161000D01*
X87460000Y-36441000D02*
X83038000Y-36441000D01*
X95453000Y-34040000D02*
X82347000Y-34040000D01*
X87460000Y-35841000D02*
X82770000Y-35841000D01*
X94931000Y-36081000D02*
X90340000Y-36081000D01*
X95437000Y-34201000D02*
X82363000Y-34201000D01*
X87460000Y-36041000D02*
X82851000Y-36041000D01*
X95208000Y-35321000D02*
X90340000Y-35321000D01*
X95264000Y-35121000D02*
X90340000Y-35121000D01*
X94309000Y-37201000D02*
X90340000Y-37201000D01*
X95466000Y-33880000D02*
X82334000Y-33880000D01*
X90007000Y-39961000D02*
X87793000Y-39961000D01*
X87460000Y-36881000D02*
X83283000Y-36881000D01*
X87460000Y-35161000D02*
X82547000Y-35161000D01*
X94165000Y-37401000D02*
X83635000Y-37401000D01*
X87460000Y-37281000D02*
X83547000Y-37281000D01*
X94074000Y-37521000D02*
X83726000Y-37521000D01*
X95398000Y-34481000D02*
X82402000Y-34481000D01*
X87460000Y-35441000D02*
X82629000Y-35441000D01*
X95378000Y-34601000D02*
X90340000Y-34601000D01*
X94782000Y-36401000D02*
X90340000Y-36401000D01*
X94492000Y-36921000D02*
X90340000Y-36921000D01*
X87460000Y-36321000D02*
X82979000Y-36321000D01*
X87460000Y-36601000D02*
X83122000Y-36601000D01*
X92261000Y-39121000D02*
X85539000Y-39121000D01*
X87460000Y-35761000D02*
X82739000Y-35761000D01*
X92690000Y-38841000D02*
X85110000Y-38841000D01*
X87460000Y-36681000D02*
X83167000Y-36681000D01*
X87460000Y-36841000D02*
X83259000Y-36841000D01*
X91570000Y-39481000D02*
X86230000Y-39481000D01*
X87460000Y-35361000D02*
X82604000Y-35361000D01*
X94896000Y-36161000D02*
X90340000Y-36161000D01*
X95348000Y-34761000D02*
X90340000Y-34761000D01*
X87460000Y-36161000D02*
X82904000Y-36161000D01*
X87460000Y-35601000D02*
X82682000Y-35601000D01*
X92906000Y-38681000D02*
X84894000Y-38681000D01*
X94741000Y-36481000D02*
X90340000Y-36481000D01*
X94656000Y-36641000D02*
X90340000Y-36641000D01*
X93008000Y-38601000D02*
X84792000Y-38601000D01*
X94762000Y-36441000D02*
X90340000Y-36441000D01*
X87460000Y-35721000D02*
X82725000Y-35721000D01*
X87460000Y-36921000D02*
X83308000Y-36921000D01*
X87460000Y-36721000D02*
X83189000Y-36721000D01*
X95253000Y-35161000D02*
X90340000Y-35161000D01*
X95061000Y-35761000D02*
X90340000Y-35761000D01*
X95460000Y-33960000D02*
X82340000Y-33960000D01*
X93377000Y-38281000D02*
X84423000Y-38281000D01*
X94998000Y-35921000D02*
X90340000Y-35921000D01*
X87460000Y-36801000D02*
X83236000Y-36801000D01*
X90215000Y-39921000D02*
X87585000Y-39921000D01*
X94253000Y-37281000D02*
X90340000Y-37281000D01*
X93621000Y-38041000D02*
X84179000Y-38041000D01*
X87460000Y-37201000D02*
X83491000Y-37201000D01*
X94135000Y-37441000D02*
X83665000Y-37441000D01*
X95304000Y-34961000D02*
X90340000Y-34961000D01*
X95030000Y-35841000D02*
X90340000Y-35841000D01*
X92123000Y-39201000D02*
X85677000Y-39201000D01*
X95473000Y-33760000D02*
X82327000Y-33760000D01*
X87460000Y-35881000D02*
X82786000Y-35881000D01*
X94802000Y-36361000D02*
X90340000Y-36361000D01*
X90831000Y-39761000D02*
X86969000Y-39761000D01*
X95392000Y-34521000D02*
X90340000Y-34521000D01*
X91742000Y-39401000D02*
X86058000Y-39401000D01*
X94821000Y-36321000D02*
X90340000Y-36321000D01*
X92052000Y-39241000D02*
X85748000Y-39241000D01*
X87460000Y-35961000D02*
X82818000Y-35961000D01*
X95371000Y-34641000D02*
X90340000Y-34641000D01*
X87460000Y-35641000D02*
X82696000Y-35641000D01*
X95104000Y-35641000D02*
X90340000Y-35641000D01*
X95274000Y-35081000D02*
X90340000Y-35081000D01*
X95463000Y-33920000D02*
X82337000Y-33920000D01*
X87460000Y-34841000D02*
X82469000Y-34841000D01*
X87460000Y-36241000D02*
X82941000Y-36241000D01*
X90698000Y-39801000D02*
X87102000Y-39801000D01*
X95046000Y-35801000D02*
X90340000Y-35801000D01*
X92854000Y-38721000D02*
X84946000Y-38721000D01*
X87460000Y-35041000D02*
X82516000Y-35041000D01*
X87460000Y-35801000D02*
X82754000Y-35801000D01*
X94442000Y-37001000D02*
X90340000Y-37001000D01*
X93660000Y-38001000D02*
X84140000Y-38001000D01*
X87460000Y-36401000D02*
X83018000Y-36401000D01*
X95422000Y-34321000D02*
X82378000Y-34321000D01*
X93461000Y-38201000D02*
X84339000Y-38201000D01*
X95416000Y-34361000D02*
X82384000Y-34361000D01*
X95468000Y-33840000D02*
X82332000Y-33840000D01*
X93105000Y-38521000D02*
X84695000Y-38521000D01*
X87460000Y-34881000D02*
X82478000Y-34881000D01*
X93543000Y-38121000D02*
X84257000Y-38121000D01*
X94416000Y-37041000D02*
X90340000Y-37041000D01*
X93582000Y-38081000D02*
X84218000Y-38081000D01*
X95075000Y-35721000D02*
X90340000Y-35721000D01*
X95441000Y-34161000D02*
X82359000Y-34161000D01*
X95480000Y-33520000D02*
X82320000Y-33520000D01*
X94564000Y-36801000D02*
X90340000Y-36801000D01*
X94390000Y-37081000D02*
X90340000Y-37081000D01*
X95231000Y-35241000D02*
X90340000Y-35241000D01*
X87460000Y-34721000D02*
X82444000Y-34721000D01*
X87460000Y-35081000D02*
X82526000Y-35081000D01*
X95184000Y-35401000D02*
X90340000Y-35401000D01*
X95427000Y-34281000D02*
X82373000Y-34281000D01*
X92454000Y-39001000D02*
X85346000Y-39001000D01*
X93734000Y-37921000D02*
X84066000Y-37921000D01*
X87460000Y-35521000D02*
X82655000Y-35521000D01*
X91071000Y-39681000D02*
X86729000Y-39681000D01*
X94467000Y-36961000D02*
X90340000Y-36961000D01*
X95445000Y-34120000D02*
X82355000Y-34120000D01*
X93265000Y-27005431D02*
X91965000Y-27005431D01*
X94949000Y-36041000D02*
X90340000Y-36041000D01*
X87460000Y-36081000D02*
X82869000Y-36081000D01*
X93057000Y-38561000D02*
X84743000Y-38561000D01*
X87460000Y-36361000D02*
X82998000Y-36361000D01*
X91658000Y-39441000D02*
X86142000Y-39441000D01*
X91479000Y-39521000D02*
X86321000Y-39521000D01*
X94914000Y-36121000D02*
X90340000Y-36121000D01*
X87460000Y-35281000D02*
X82580000Y-35281000D01*
X95411000Y-34401000D02*
X82389000Y-34401000D01*
X91285000Y-39601000D02*
X86515000Y-39601000D01*
X95339000Y-34801000D02*
X90340000Y-34801000D01*
X94195000Y-37361000D02*
X90340000Y-37361000D01*
X94699000Y-36561000D02*
X90340000Y-36561000D01*
X95457000Y-34000000D02*
X82343000Y-34000000D01*
X91384000Y-39561000D02*
X86416000Y-39561000D01*
X94611000Y-36721000D02*
X90340000Y-36721000D01*
X93771000Y-37881000D02*
X84029000Y-37881000D01*
X87460000Y-35921000D02*
X82802000Y-35921000D01*
X94720000Y-36521000D02*
X90340000Y-36521000D01*
X94010000Y-37601000D02*
X83790000Y-37601000D01*
X95118000Y-35601000D02*
X90340000Y-35601000D01*
X90553000Y-39841000D02*
X87247000Y-39841000D01*
X95014000Y-35881000D02*
X90340000Y-35881000D01*
X87460000Y-37001000D02*
X83358000Y-37001000D01*
X89750000Y-40001000D02*
X88050000Y-40001000D01*
X94517000Y-36881000D02*
X90340000Y-36881000D01*
X95471000Y-33800000D02*
X82329000Y-33800000D01*
X87460000Y-34921000D02*
X82487000Y-34921000D01*
X93334000Y-38321000D02*
X84466000Y-38321000D01*
X93877000Y-37761000D02*
X83923000Y-37761000D01*
X95476000Y-33680000D02*
X82324000Y-33680000D01*
X95171000Y-35441000D02*
X90340000Y-35441000D01*
X92193000Y-39161000D02*
X85607000Y-39161000D01*
X92515000Y-38961000D02*
X85285000Y-38961000D01*
X87460000Y-35001000D02*
X82506000Y-35001000D01*
X87460000Y-35201000D02*
X82558000Y-35201000D01*
X95090000Y-35681000D02*
X90340000Y-35681000D01*
X87460000Y-34761000D02*
X82452000Y-34761000D01*
X95294000Y-35001000D02*
X90340000Y-35001000D01*
X95520000Y-33440000D02*
G75*
G03*
X95520000Y-33440000I-6620000J0D01*
G01*
%TO.C,R5*%
X33555000Y-104367064D02*
X33555000Y-103912936D01*
X35025000Y-104367064D02*
X35025000Y-103912936D01*
%TO.C,U4*%
X54317900Y-115481100D02*
X54317900Y-113728500D01*
X48069500Y-113728500D02*
X52362100Y-113728500D01*
X52362100Y-113728500D02*
X52362100Y-115481100D01*
X55410100Y-114211100D02*
X55410100Y-115836700D01*
X48069500Y-111352949D02*
X48069500Y-113728500D01*
X54317900Y-113728500D02*
X58610500Y-113728500D01*
X58610500Y-113728500D02*
X58610500Y-111352949D01*
X51269900Y-114211100D02*
X51269900Y-115836700D01*
X52362100Y-115481100D02*
X54317900Y-115481100D01*
X50330100Y-114211100D02*
X50330100Y-115836700D01*
X56349900Y-114211100D02*
X56349900Y-115836700D01*
%TO.C,C12*%
X37565000Y-103878748D02*
X37565000Y-104401252D01*
X36095000Y-103878748D02*
X36095000Y-104401252D01*
%TO.C,C24*%
X17518748Y-60225000D02*
X18041252Y-60225000D01*
X17518748Y-61695000D02*
X18041252Y-61695000D01*
%TO.C,CR2*%
X20009370Y-116713000D02*
X20630630Y-116713000D01*
X38410630Y-109347000D02*
X37789370Y-109347000D01*
X20630630Y-109347000D02*
X20009370Y-109347000D01*
X27629370Y-116713000D02*
X28250630Y-116713000D01*
X25710630Y-109347000D02*
X25089370Y-109347000D01*
X28250630Y-109347000D02*
X27629370Y-109347000D01*
X37789370Y-116713000D02*
X38410630Y-116713000D01*
X30790630Y-109347000D02*
X30169370Y-109347000D01*
X30169370Y-116713000D02*
X30790630Y-116713000D01*
X35870630Y-109347000D02*
X35249370Y-109347000D01*
X25089370Y-116713000D02*
X25710630Y-116713000D01*
X23170630Y-109347000D02*
X22549370Y-109347000D01*
X22549370Y-116713000D02*
X23170630Y-116713000D01*
X32709370Y-116713000D02*
X33330630Y-116713000D01*
X35249370Y-116713000D02*
X35870630Y-116713000D01*
X33330630Y-109347000D02*
X32709370Y-109347000D01*
X40942260Y-109347000D02*
X40329370Y-109347000D01*
X43002200Y-116713000D02*
X43002200Y-109347000D01*
X17957800Y-109347000D02*
X17957800Y-116713000D01*
X40329370Y-116713000D02*
X40950630Y-116713000D01*
%TO.C,R1*%
X74395000Y-114527064D02*
X74395000Y-114072936D01*
X72925000Y-114527064D02*
X72925000Y-114072936D01*
%TO.C,C17*%
X97255000Y-119641252D02*
X97255000Y-119118748D01*
X95785000Y-119641252D02*
X95785000Y-119118748D01*
%TO.C,U5*%
X40449500Y-73088500D02*
X44742100Y-73088500D01*
X46697900Y-73088500D02*
X50990500Y-73088500D01*
X47790100Y-73571100D02*
X47790100Y-75196700D01*
X44742100Y-74841100D02*
X46697900Y-74841100D01*
X44742100Y-73088500D02*
X44742100Y-74841100D01*
X42710100Y-73571100D02*
X42710100Y-75196700D01*
X50990500Y-73088500D02*
X50990500Y-70712949D01*
X43649900Y-73571100D02*
X43649900Y-75196700D01*
X40449500Y-70712949D02*
X40449500Y-73088500D01*
X48729900Y-73571100D02*
X48729900Y-75196700D01*
X46697900Y-74841100D02*
X46697900Y-73088500D01*
%TO.C,C10*%
X62153000Y-38881000D02*
X54687000Y-38881000D01*
X56980000Y-34801000D02*
X51981000Y-34801000D01*
X63397000Y-37761000D02*
X53443000Y-37761000D01*
X56980000Y-35201000D02*
X52078000Y-35201000D01*
X64898000Y-34601000D02*
X59860000Y-34601000D01*
X62320000Y-38761000D02*
X54520000Y-38761000D01*
X63936000Y-37041000D02*
X59860000Y-37041000D01*
X56980000Y-36201000D02*
X52442000Y-36201000D01*
X63327000Y-37841000D02*
X53513000Y-37841000D01*
X62719000Y-38441000D02*
X54121000Y-38441000D01*
X64773000Y-35161000D02*
X59860000Y-35161000D01*
X64360000Y-36281000D02*
X59860000Y-36281000D01*
X64379000Y-36241000D02*
X59860000Y-36241000D01*
X56980000Y-35361000D02*
X52124000Y-35361000D01*
X64876000Y-34721000D02*
X59860000Y-34721000D01*
X62854000Y-38321000D02*
X53986000Y-38321000D01*
X56980000Y-34961000D02*
X52016000Y-34961000D01*
X56980000Y-35921000D02*
X52322000Y-35921000D01*
X64652000Y-35561000D02*
X59860000Y-35561000D01*
X64794000Y-35081000D02*
X59860000Y-35081000D01*
X56980000Y-35401000D02*
X52136000Y-35401000D01*
X61911000Y-39041000D02*
X54929000Y-39041000D01*
X63217000Y-37961000D02*
X53623000Y-37961000D01*
X64997000Y-33640000D02*
X51843000Y-33640000D01*
X60999000Y-39521000D02*
X55841000Y-39521000D01*
X62981000Y-38201000D02*
X53859000Y-38201000D01*
X56980000Y-35041000D02*
X52036000Y-35041000D01*
X56980000Y-37121000D02*
X52957000Y-37121000D01*
X64991000Y-33800000D02*
X51849000Y-33800000D01*
X62577000Y-38561000D02*
X54263000Y-38561000D01*
X60073000Y-39841000D02*
X56767000Y-39841000D01*
X56980000Y-34721000D02*
X51964000Y-34721000D01*
X56980000Y-36161000D02*
X52424000Y-36161000D01*
X56980000Y-36961000D02*
X52853000Y-36961000D01*
X56980000Y-35721000D02*
X52245000Y-35721000D01*
X56980000Y-34561000D02*
X51935000Y-34561000D01*
X63291000Y-37881000D02*
X53549000Y-37881000D01*
X63715000Y-37361000D02*
X59860000Y-37361000D01*
X56980000Y-35481000D02*
X52162000Y-35481000D01*
X62673000Y-38481000D02*
X54167000Y-38481000D01*
X64534000Y-35881000D02*
X59860000Y-35881000D01*
X56980000Y-37041000D02*
X52904000Y-37041000D01*
X61643000Y-39201000D02*
X55197000Y-39201000D01*
X64595000Y-35721000D02*
X59860000Y-35721000D01*
X62374000Y-38721000D02*
X54466000Y-38721000D01*
X64581000Y-35761000D02*
X59860000Y-35761000D01*
X56980000Y-34641000D02*
X51949000Y-34641000D01*
X64566000Y-35801000D02*
X59860000Y-35801000D01*
X64518000Y-35921000D02*
X59860000Y-35921000D01*
X59914000Y-39881000D02*
X56926000Y-39881000D01*
X56980000Y-36361000D02*
X52518000Y-36361000D01*
X64240000Y-36521000D02*
X59860000Y-36521000D01*
X59735000Y-39921000D02*
X57105000Y-39921000D01*
X62785000Y-27005431D02*
X61485000Y-27005431D01*
X64153000Y-36681000D02*
X59860000Y-36681000D01*
X64704000Y-35401000D02*
X59860000Y-35401000D01*
X64918000Y-34481000D02*
X51922000Y-34481000D01*
X64176000Y-36641000D02*
X59860000Y-36641000D01*
X56980000Y-35601000D02*
X52202000Y-35601000D01*
X64947000Y-34281000D02*
X51893000Y-34281000D01*
X56980000Y-34761000D02*
X51972000Y-34761000D01*
X60475000Y-39721000D02*
X56365000Y-39721000D01*
X63431000Y-37721000D02*
X53409000Y-37721000D01*
X63022000Y-38161000D02*
X53818000Y-38161000D01*
X64925000Y-34441000D02*
X51915000Y-34441000D01*
X64942000Y-34321000D02*
X51898000Y-34321000D01*
X56980000Y-35081000D02*
X52046000Y-35081000D01*
X64762000Y-35201000D02*
X59860000Y-35201000D01*
X64469000Y-36041000D02*
X59860000Y-36041000D01*
X64891000Y-34641000D02*
X59860000Y-34641000D01*
X56980000Y-36841000D02*
X52779000Y-36841000D01*
X61498000Y-39281000D02*
X55342000Y-39281000D01*
X61847000Y-39081000D02*
X54993000Y-39081000D01*
X60701000Y-39641000D02*
X56139000Y-39641000D01*
X65000000Y-33440000D02*
X51840000Y-33440000D01*
X63464000Y-37681000D02*
X53376000Y-37681000D01*
X56980000Y-35281000D02*
X52100000Y-35281000D01*
X56980000Y-36401000D02*
X52538000Y-36401000D01*
X56980000Y-36081000D02*
X52389000Y-36081000D01*
X64905000Y-34561000D02*
X59860000Y-34561000D01*
X56980000Y-36641000D02*
X52664000Y-36641000D01*
X56980000Y-37001000D02*
X52878000Y-37001000D01*
X62266000Y-38801000D02*
X54574000Y-38801000D01*
X62095000Y-38921000D02*
X54745000Y-38921000D01*
X56980000Y-36601000D02*
X52642000Y-36601000D01*
X58895000Y-40041000D02*
X57945000Y-40041000D01*
X56980000Y-35241000D02*
X52089000Y-35241000D01*
X64957000Y-34201000D02*
X51883000Y-34201000D01*
X56980000Y-35001000D02*
X52026000Y-35001000D01*
X64973000Y-34040000D02*
X51867000Y-34040000D01*
X64434000Y-36121000D02*
X59860000Y-36121000D01*
X63655000Y-37441000D02*
X53185000Y-37441000D01*
X64282000Y-36441000D02*
X59860000Y-36441000D01*
X64451000Y-36081000D02*
X59860000Y-36081000D01*
X64341000Y-36321000D02*
X59860000Y-36321000D01*
X62426000Y-38681000D02*
X54414000Y-38681000D01*
X56980000Y-36801000D02*
X52756000Y-36801000D01*
X64784000Y-35121000D02*
X59860000Y-35121000D01*
X56980000Y-37201000D02*
X53011000Y-37201000D01*
X64678000Y-35481000D02*
X59860000Y-35481000D01*
X63141000Y-38041000D02*
X53699000Y-38041000D01*
X56980000Y-36721000D02*
X52709000Y-36721000D01*
X64931000Y-34401000D02*
X51909000Y-34401000D01*
X62625000Y-38521000D02*
X54215000Y-38521000D01*
X63362000Y-37801000D02*
X53478000Y-37801000D01*
X61974000Y-39001000D02*
X54866000Y-39001000D01*
X56980000Y-37081000D02*
X52930000Y-37081000D01*
X64996000Y-33680000D02*
X51844000Y-33680000D01*
X64952000Y-34241000D02*
X51888000Y-34241000D01*
X56980000Y-35561000D02*
X52188000Y-35561000D01*
X64859000Y-34801000D02*
X59860000Y-34801000D01*
X64084000Y-36801000D02*
X59860000Y-36801000D01*
X63883000Y-37121000D02*
X59860000Y-37121000D01*
X64638000Y-35601000D02*
X59860000Y-35601000D01*
X56980000Y-35761000D02*
X52259000Y-35761000D01*
X64219000Y-36561000D02*
X59860000Y-36561000D01*
X64610000Y-35681000D02*
X59860000Y-35681000D01*
X59527000Y-39961000D02*
X57313000Y-39961000D01*
X56980000Y-36921000D02*
X52828000Y-36921000D01*
X64842000Y-34881000D02*
X59860000Y-34881000D01*
X63962000Y-37001000D02*
X59860000Y-37001000D01*
X56980000Y-34921000D02*
X52007000Y-34921000D01*
X56980000Y-37361000D02*
X53125000Y-37361000D01*
X63856000Y-37161000D02*
X59860000Y-37161000D01*
X56980000Y-36441000D02*
X52558000Y-36441000D01*
X64740000Y-35281000D02*
X59860000Y-35281000D01*
X64302000Y-36401000D02*
X59860000Y-36401000D01*
X56980000Y-36321000D02*
X52499000Y-36321000D01*
X56980000Y-35321000D02*
X52112000Y-35321000D01*
X63744000Y-37321000D02*
X59860000Y-37321000D01*
X56980000Y-35961000D02*
X52338000Y-35961000D01*
X63801000Y-37241000D02*
X59860000Y-37241000D01*
X64977000Y-34000000D02*
X51863000Y-34000000D01*
X59270000Y-40001000D02*
X57570000Y-40001000D01*
X56980000Y-35121000D02*
X52056000Y-35121000D01*
X64986000Y-33880000D02*
X51854000Y-33880000D01*
X64485000Y-36001000D02*
X59860000Y-36001000D01*
X64322000Y-36361000D02*
X59860000Y-36361000D01*
X62528000Y-38601000D02*
X54312000Y-38601000D01*
X64965000Y-34120000D02*
X51875000Y-34120000D01*
X63987000Y-36961000D02*
X59860000Y-36961000D01*
X56980000Y-36041000D02*
X52371000Y-36041000D01*
X63063000Y-38121000D02*
X53777000Y-38121000D01*
X61781000Y-39121000D02*
X55059000Y-39121000D01*
X64804000Y-35041000D02*
X59860000Y-35041000D01*
X61422000Y-39321000D02*
X55418000Y-39321000D01*
X65000000Y-33480000D02*
X51840000Y-33480000D01*
X56980000Y-36281000D02*
X52480000Y-36281000D01*
X64995000Y-33720000D02*
X51845000Y-33720000D01*
X56980000Y-34841000D02*
X51989000Y-34841000D01*
X60805000Y-39601000D02*
X56035000Y-39601000D01*
X64993000Y-33760000D02*
X51847000Y-33760000D01*
X62477000Y-38641000D02*
X54363000Y-38641000D01*
X60591000Y-39681000D02*
X56249000Y-39681000D01*
X56980000Y-34881000D02*
X51998000Y-34881000D01*
X64983000Y-33920000D02*
X51857000Y-33920000D01*
X61262000Y-39401000D02*
X55578000Y-39401000D01*
X62765000Y-38401000D02*
X54075000Y-38401000D01*
X64883000Y-34681000D02*
X59860000Y-34681000D01*
X64037000Y-36881000D02*
X59860000Y-36881000D01*
X56980000Y-36561000D02*
X52621000Y-36561000D01*
X64988000Y-33840000D02*
X51852000Y-33840000D01*
X62810000Y-38361000D02*
X54030000Y-38361000D01*
X60904000Y-39561000D02*
X55936000Y-39561000D01*
X56980000Y-35441000D02*
X52149000Y-35441000D01*
X64198000Y-36601000D02*
X59860000Y-36601000D01*
X61343000Y-39361000D02*
X55497000Y-39361000D01*
X63102000Y-38081000D02*
X53738000Y-38081000D01*
X62035000Y-38961000D02*
X54805000Y-38961000D01*
X56980000Y-37241000D02*
X53039000Y-37241000D01*
X56980000Y-35521000D02*
X52175000Y-35521000D01*
X65000000Y-33520000D02*
X51840000Y-33520000D01*
X64108000Y-36761000D02*
X59860000Y-36761000D01*
X64728000Y-35321000D02*
X59860000Y-35321000D01*
X60218000Y-39801000D02*
X56622000Y-39801000D01*
X56980000Y-36001000D02*
X52355000Y-36001000D01*
X64691000Y-35441000D02*
X59860000Y-35441000D01*
X64550000Y-35841000D02*
X59860000Y-35841000D01*
X56980000Y-36241000D02*
X52461000Y-36241000D01*
X64131000Y-36721000D02*
X59860000Y-36721000D01*
X61090000Y-39481000D02*
X55750000Y-39481000D01*
X64502000Y-35961000D02*
X59860000Y-35961000D01*
X64961000Y-34161000D02*
X51879000Y-34161000D01*
X61713000Y-39161000D02*
X55127000Y-39161000D01*
X64980000Y-33960000D02*
X51860000Y-33960000D01*
X56980000Y-35881000D02*
X52306000Y-35881000D01*
X56980000Y-35641000D02*
X52216000Y-35641000D01*
X62210000Y-38841000D02*
X54630000Y-38841000D01*
X56980000Y-34521000D02*
X51928000Y-34521000D01*
X64716000Y-35361000D02*
X59860000Y-35361000D01*
X64833000Y-34921000D02*
X59860000Y-34921000D01*
X56980000Y-34601000D02*
X51942000Y-34601000D01*
X56980000Y-37281000D02*
X53067000Y-37281000D01*
X56980000Y-36881000D02*
X52803000Y-36881000D01*
X56980000Y-35841000D02*
X52290000Y-35841000D01*
X62939000Y-38241000D02*
X53901000Y-38241000D01*
X64012000Y-36921000D02*
X59860000Y-36921000D01*
X64868000Y-34761000D02*
X59860000Y-34761000D01*
X63685000Y-37401000D02*
X53155000Y-37401000D01*
X64851000Y-34841000D02*
X59860000Y-34841000D01*
X63498000Y-37641000D02*
X53342000Y-37641000D01*
X64416000Y-36161000D02*
X59860000Y-36161000D01*
X64912000Y-34521000D02*
X59860000Y-34521000D01*
X63562000Y-37561000D02*
X53278000Y-37561000D01*
X56980000Y-35801000D02*
X52274000Y-35801000D01*
X63829000Y-37201000D02*
X59860000Y-37201000D01*
X64751000Y-35241000D02*
X59860000Y-35241000D01*
X56980000Y-37321000D02*
X53096000Y-37321000D01*
X63910000Y-37081000D02*
X59860000Y-37081000D01*
X64936000Y-34361000D02*
X51904000Y-34361000D01*
X56980000Y-36521000D02*
X52600000Y-36521000D01*
X64969000Y-34080000D02*
X51871000Y-34080000D01*
X56980000Y-35681000D02*
X52230000Y-35681000D01*
X63594000Y-37521000D02*
X53246000Y-37521000D01*
X63180000Y-38001000D02*
X53660000Y-38001000D01*
X56980000Y-34681000D02*
X51957000Y-34681000D01*
X64398000Y-36201000D02*
X59860000Y-36201000D01*
X63530000Y-37601000D02*
X53310000Y-37601000D01*
X62897000Y-38281000D02*
X53943000Y-38281000D01*
X63254000Y-37921000D02*
X53586000Y-37921000D01*
X56980000Y-36481000D02*
X52579000Y-36481000D01*
X64824000Y-34961000D02*
X59860000Y-34961000D01*
X56980000Y-36681000D02*
X52687000Y-36681000D01*
X56980000Y-35161000D02*
X52067000Y-35161000D01*
X64814000Y-35001000D02*
X59860000Y-35001000D01*
X64261000Y-36481000D02*
X59860000Y-36481000D01*
X56980000Y-36761000D02*
X52732000Y-36761000D01*
X64624000Y-35641000D02*
X59860000Y-35641000D01*
X64665000Y-35521000D02*
X59860000Y-35521000D01*
X63625000Y-37481000D02*
X53215000Y-37481000D01*
X56980000Y-36121000D02*
X52406000Y-36121000D01*
X56980000Y-37161000D02*
X52984000Y-37161000D01*
X61572000Y-39241000D02*
X55268000Y-39241000D01*
X60351000Y-39761000D02*
X56489000Y-39761000D01*
X62135000Y-26355431D02*
X62135000Y-27655431D01*
X64061000Y-36841000D02*
X59860000Y-36841000D01*
X61178000Y-39441000D02*
X55662000Y-39441000D01*
X64999000Y-33600000D02*
X51841000Y-33600000D01*
X63773000Y-37281000D02*
X59860000Y-37281000D01*
X64999000Y-33560000D02*
X51841000Y-33560000D01*
X65040000Y-33440000D02*
G75*
G03*
X65040000Y-33440000I-6620000J0D01*
G01*
%TO.C,C11*%
X17518748Y-34825000D02*
X18041252Y-34825000D01*
X17518748Y-36295000D02*
X18041252Y-36295000D01*
%TO.C,J5*%
X87700000Y-45140000D02*
X82600000Y-45140000D01*
X95200000Y-55990000D02*
X95200000Y-45640000D01*
X87400000Y-45640000D02*
X87700000Y-45140000D01*
X94250000Y-45640000D02*
X94500000Y-45140000D01*
X92600000Y-45140000D02*
X92550000Y-45140000D01*
X95200000Y-45640000D02*
X94250000Y-45640000D01*
X92800000Y-45640000D02*
X87400000Y-45640000D01*
X94500000Y-45140000D02*
X92600000Y-45140000D01*
X82600000Y-45140000D02*
X82600000Y-55990000D01*
X92550000Y-45140000D02*
X92800000Y-45640000D01*
X82600000Y-55990000D02*
X95200000Y-55990000D01*
%TO.C,C7*%
X36295000Y-47998748D02*
X36295000Y-48521252D01*
X34825000Y-47998748D02*
X34825000Y-48521252D01*
%TO.C,CR1*%
X32709370Y-97663000D02*
X33330630Y-97663000D01*
X35249370Y-97663000D02*
X35870630Y-97663000D01*
X20630630Y-90297000D02*
X20009370Y-90297000D01*
X22549370Y-97663000D02*
X23170630Y-97663000D01*
X43002200Y-97663000D02*
X43002200Y-90297000D01*
X30169370Y-97663000D02*
X30790630Y-97663000D01*
X17957800Y-90297000D02*
X17957800Y-97663000D01*
X20009370Y-97663000D02*
X20630630Y-97663000D01*
X30790630Y-90297000D02*
X30169370Y-90297000D01*
X25710630Y-90297000D02*
X25089370Y-90297000D01*
X40329370Y-97663000D02*
X40950630Y-97663000D01*
X23170630Y-90297000D02*
X22549370Y-90297000D01*
X28250630Y-90297000D02*
X27629370Y-90297000D01*
X33330630Y-90297000D02*
X32709370Y-90297000D01*
X40942260Y-90297000D02*
X40329370Y-90297000D01*
X38410630Y-90297000D02*
X37789370Y-90297000D01*
X25089370Y-97663000D02*
X25710630Y-97663000D01*
X27629370Y-97663000D02*
X28250630Y-97663000D01*
X37789370Y-97663000D02*
X38410630Y-97663000D01*
X35870630Y-90297000D02*
X35249370Y-90297000D01*
%TO.C,C20*%
X36295000Y-73398748D02*
X36295000Y-73921252D01*
X34825000Y-73398748D02*
X34825000Y-73921252D01*
%TO.C,R6*%
X18007064Y-44985000D02*
X17552936Y-44985000D01*
X18007064Y-46455000D02*
X17552936Y-46455000D01*
%TO.C,C16*%
X84518000Y-107261000D02*
X80180000Y-107261000D01*
X81663000Y-110021000D02*
X75817000Y-110021000D01*
X82848000Y-109261000D02*
X74632000Y-109261000D01*
X84822000Y-106621000D02*
X80180000Y-106621000D01*
X85114000Y-105741000D02*
X80180000Y-105741000D01*
X85060000Y-105941000D02*
X80180000Y-105941000D01*
X82415000Y-109581000D02*
X75065000Y-109581000D01*
X77300000Y-106541000D02*
X72626000Y-106541000D01*
X82294000Y-109661000D02*
X75186000Y-109661000D01*
X77300000Y-107981000D02*
X73416000Y-107981000D01*
X77300000Y-107661000D02*
X73198000Y-107661000D01*
X84256000Y-107701000D02*
X80180000Y-107701000D01*
X84581000Y-107141000D02*
X80180000Y-107141000D01*
X77300000Y-107541000D02*
X73123000Y-107541000D01*
X81818000Y-109941000D02*
X75662000Y-109941000D01*
X77300000Y-105461000D02*
X72301000Y-105461000D01*
X83217000Y-108941000D02*
X74263000Y-108941000D01*
X85320000Y-104180000D02*
X72160000Y-104180000D01*
X84901000Y-106421000D02*
X80180000Y-106421000D01*
X77300000Y-105221000D02*
X72255000Y-105221000D01*
X83574000Y-108581000D02*
X73906000Y-108581000D01*
X85267000Y-104941000D02*
X72213000Y-104941000D01*
X85011000Y-106101000D02*
X80180000Y-106101000D01*
X85313000Y-104420000D02*
X72167000Y-104420000D01*
X77300000Y-106381000D02*
X72565000Y-106381000D01*
X77300000Y-106821000D02*
X72744000Y-106821000D01*
X84451000Y-107381000D02*
X80180000Y-107381000D01*
X81742000Y-109981000D02*
X75738000Y-109981000D01*
X81319000Y-110181000D02*
X76161000Y-110181000D01*
X84985000Y-106181000D02*
X80180000Y-106181000D01*
X77300000Y-107261000D02*
X72962000Y-107261000D01*
X77300000Y-105741000D02*
X72366000Y-105741000D01*
X77300000Y-107181000D02*
X72920000Y-107181000D01*
X77300000Y-107021000D02*
X72838000Y-107021000D01*
X85293000Y-104700000D02*
X72187000Y-104700000D01*
X84736000Y-106821000D02*
X80180000Y-106821000D01*
X77300000Y-106501000D02*
X72610000Y-106501000D01*
X82694000Y-109381000D02*
X74786000Y-109381000D01*
X84602000Y-107101000D02*
X80180000Y-107101000D01*
X83914000Y-108181000D02*
X73566000Y-108181000D01*
X84064000Y-107981000D02*
X80180000Y-107981000D01*
X77300000Y-106261000D02*
X72522000Y-106261000D01*
X77300000Y-106861000D02*
X72762000Y-106861000D01*
X85179000Y-105461000D02*
X80180000Y-105461000D01*
X85315000Y-104380000D02*
X72165000Y-104380000D01*
X84854000Y-106541000D02*
X80180000Y-106541000D01*
X77300000Y-107141000D02*
X72899000Y-107141000D01*
X85272000Y-104901000D02*
X72208000Y-104901000D01*
X82640000Y-109421000D02*
X74840000Y-109421000D01*
X82101000Y-109781000D02*
X75379000Y-109781000D01*
X83130000Y-109021000D02*
X74350000Y-109021000D01*
X77300000Y-105861000D02*
X72398000Y-105861000D01*
X77300000Y-105381000D02*
X72284000Y-105381000D01*
X77300000Y-106701000D02*
X72691000Y-106701000D01*
X77300000Y-107941000D02*
X73387000Y-107941000D01*
X77300000Y-105621000D02*
X72336000Y-105621000D01*
X82897000Y-109221000D02*
X74583000Y-109221000D01*
X85071000Y-105901000D02*
X80180000Y-105901000D01*
X77300000Y-107821000D02*
X73304000Y-107821000D01*
X84121000Y-107901000D02*
X80180000Y-107901000D01*
X84332000Y-107581000D02*
X80180000Y-107581000D01*
X83174000Y-108981000D02*
X74306000Y-108981000D01*
X81963000Y-109861000D02*
X75517000Y-109861000D01*
X77300000Y-106021000D02*
X72444000Y-106021000D01*
X84699000Y-106901000D02*
X80180000Y-106901000D01*
X81892000Y-109901000D02*
X75588000Y-109901000D01*
X81224000Y-110221000D02*
X76256000Y-110221000D01*
X77300000Y-107221000D02*
X72941000Y-107221000D01*
X83537000Y-108621000D02*
X73943000Y-108621000D01*
X77300000Y-107101000D02*
X72878000Y-107101000D01*
X77300000Y-106141000D02*
X72482000Y-106141000D01*
X85319000Y-104220000D02*
X72161000Y-104220000D01*
X77300000Y-107341000D02*
X73007000Y-107341000D01*
X80795000Y-110381000D02*
X76685000Y-110381000D01*
X84282000Y-107661000D02*
X80180000Y-107661000D01*
X77300000Y-107581000D02*
X73148000Y-107581000D01*
X84972000Y-106221000D02*
X80180000Y-106221000D01*
X80538000Y-110461000D02*
X76942000Y-110461000D01*
X82945000Y-109181000D02*
X74535000Y-109181000D01*
X83342000Y-108821000D02*
X74138000Y-108821000D01*
X85319000Y-104260000D02*
X72161000Y-104260000D01*
X77300000Y-107061000D02*
X72858000Y-107061000D01*
X85196000Y-105381000D02*
X80180000Y-105381000D01*
X80055000Y-110581000D02*
X77425000Y-110581000D01*
X83882000Y-108221000D02*
X73598000Y-108221000D01*
X83751000Y-108381000D02*
X73729000Y-108381000D01*
X85104000Y-105781000D02*
X80180000Y-105781000D01*
X77300000Y-105181000D02*
X72248000Y-105181000D01*
X77300000Y-105261000D02*
X72262000Y-105261000D01*
X84005000Y-108061000D02*
X73475000Y-108061000D01*
X85048000Y-105981000D02*
X80180000Y-105981000D01*
X82993000Y-109141000D02*
X74487000Y-109141000D01*
X77300000Y-105901000D02*
X72409000Y-105901000D01*
X83975000Y-108101000D02*
X73505000Y-108101000D01*
X82167000Y-109741000D02*
X75313000Y-109741000D01*
X82586000Y-109461000D02*
X74894000Y-109461000D01*
X85225000Y-105221000D02*
X80180000Y-105221000D01*
X77300000Y-106421000D02*
X72579000Y-106421000D01*
X84754000Y-106781000D02*
X80180000Y-106781000D01*
X82473000Y-109541000D02*
X75007000Y-109541000D01*
X77300000Y-107901000D02*
X73359000Y-107901000D01*
X85232000Y-105181000D02*
X80180000Y-105181000D01*
X84496000Y-107301000D02*
X80180000Y-107301000D01*
X77300000Y-106221000D02*
X72508000Y-106221000D01*
X77300000Y-107701000D02*
X73224000Y-107701000D01*
X85171000Y-105501000D02*
X80180000Y-105501000D01*
X84789000Y-106701000D02*
X80180000Y-106701000D01*
X79215000Y-110701000D02*
X78265000Y-110701000D01*
X85320000Y-104100000D02*
X72160000Y-104100000D01*
X84473000Y-107341000D02*
X80180000Y-107341000D01*
X82797000Y-109301000D02*
X74683000Y-109301000D01*
X77300000Y-106981000D02*
X72819000Y-106981000D01*
X77300000Y-106621000D02*
X72658000Y-106621000D01*
X81021000Y-110301000D02*
X76459000Y-110301000D01*
X84203000Y-107781000D02*
X80180000Y-107781000D01*
X77300000Y-106461000D02*
X72594000Y-106461000D01*
X83085000Y-109061000D02*
X74395000Y-109061000D01*
X85303000Y-104580000D02*
X72177000Y-104580000D01*
X84870000Y-106501000D02*
X80180000Y-106501000D01*
X84404000Y-107461000D02*
X80180000Y-107461000D01*
X84560000Y-107181000D02*
X80180000Y-107181000D01*
X81410000Y-110141000D02*
X76070000Y-110141000D01*
X84307000Y-107621000D02*
X80180000Y-107621000D01*
X77300000Y-105501000D02*
X72309000Y-105501000D01*
X83383000Y-108781000D02*
X74097000Y-108781000D01*
X83784000Y-108341000D02*
X73696000Y-108341000D01*
X84622000Y-107061000D02*
X80180000Y-107061000D01*
X80911000Y-110341000D02*
X76569000Y-110341000D01*
X83301000Y-108861000D02*
X74179000Y-108861000D01*
X85316000Y-104340000D02*
X72164000Y-104340000D01*
X84357000Y-107541000D02*
X80180000Y-107541000D01*
X83945000Y-108141000D02*
X73535000Y-108141000D01*
X85245000Y-105101000D02*
X72235000Y-105101000D01*
X77300000Y-106341000D02*
X72550000Y-106341000D01*
X77300000Y-105421000D02*
X72292000Y-105421000D01*
X77300000Y-105341000D02*
X72277000Y-105341000D01*
X77300000Y-107501000D02*
X73099000Y-107501000D01*
X84093000Y-107941000D02*
X80180000Y-107941000D01*
X85211000Y-105301000D02*
X80180000Y-105301000D01*
X84539000Y-107221000D02*
X80180000Y-107221000D01*
X85251000Y-105061000D02*
X72229000Y-105061000D01*
X85124000Y-105701000D02*
X80180000Y-105701000D01*
X80671000Y-110421000D02*
X76809000Y-110421000D01*
X85036000Y-106021000D02*
X80180000Y-106021000D01*
X84944000Y-106301000D02*
X80180000Y-106301000D01*
X77300000Y-106941000D02*
X72800000Y-106941000D01*
X84230000Y-107741000D02*
X80180000Y-107741000D01*
X85024000Y-106061000D02*
X80180000Y-106061000D01*
X77300000Y-107381000D02*
X73029000Y-107381000D01*
X84805000Y-106661000D02*
X80180000Y-106661000D01*
X77300000Y-107621000D02*
X73173000Y-107621000D01*
X83850000Y-108261000D02*
X73630000Y-108261000D01*
X85153000Y-105581000D02*
X80180000Y-105581000D01*
X82033000Y-109821000D02*
X75447000Y-109821000D01*
X83717000Y-108421000D02*
X73763000Y-108421000D01*
X85281000Y-104821000D02*
X72199000Y-104821000D01*
X83461000Y-108701000D02*
X74019000Y-108701000D01*
X81125000Y-110261000D02*
X76355000Y-110261000D01*
X85311000Y-104460000D02*
X72169000Y-104460000D01*
X84915000Y-106381000D02*
X80180000Y-106381000D01*
X85300000Y-104620000D02*
X72180000Y-104620000D01*
X77300000Y-105581000D02*
X72327000Y-105581000D01*
X84771000Y-106741000D02*
X80180000Y-106741000D01*
X77300000Y-105701000D02*
X72356000Y-105701000D01*
X85093000Y-105821000D02*
X80180000Y-105821000D01*
X85317000Y-104300000D02*
X72163000Y-104300000D01*
X77300000Y-106901000D02*
X72781000Y-106901000D01*
X83611000Y-108541000D02*
X73869000Y-108541000D01*
X82355000Y-109621000D02*
X75125000Y-109621000D01*
X84176000Y-107821000D02*
X80180000Y-107821000D01*
X77300000Y-105821000D02*
X72387000Y-105821000D01*
X85289000Y-104740000D02*
X72191000Y-104740000D01*
X77300000Y-107741000D02*
X73250000Y-107741000D01*
X84381000Y-107501000D02*
X80180000Y-107501000D01*
X84886000Y-106461000D02*
X80180000Y-106461000D01*
X77300000Y-105941000D02*
X72420000Y-105941000D01*
X85218000Y-105261000D02*
X80180000Y-105261000D01*
X84958000Y-106261000D02*
X80180000Y-106261000D01*
X84661000Y-106981000D02*
X80180000Y-106981000D01*
X81582000Y-110061000D02*
X75898000Y-110061000D01*
X83039000Y-109101000D02*
X74441000Y-109101000D01*
X77300000Y-107301000D02*
X72984000Y-107301000D01*
X77300000Y-105541000D02*
X72318000Y-105541000D01*
X79847000Y-110621000D02*
X77633000Y-110621000D01*
X77300000Y-105661000D02*
X72346000Y-105661000D01*
X83422000Y-108741000D02*
X74058000Y-108741000D01*
X85082000Y-105861000D02*
X80180000Y-105861000D01*
X77300000Y-106741000D02*
X72709000Y-106741000D01*
X77300000Y-105981000D02*
X72432000Y-105981000D01*
X84035000Y-108021000D02*
X80180000Y-108021000D01*
X77300000Y-106061000D02*
X72456000Y-106061000D01*
X77300000Y-107861000D02*
X73331000Y-107861000D01*
X82455000Y-97015431D02*
X82455000Y-98315431D01*
X83500000Y-108661000D02*
X73980000Y-108661000D01*
X85285000Y-104780000D02*
X72195000Y-104780000D01*
X84428000Y-107421000D02*
X80180000Y-107421000D01*
X85188000Y-105421000D02*
X80180000Y-105421000D01*
X85256000Y-105021000D02*
X72224000Y-105021000D01*
X77300000Y-106301000D02*
X72536000Y-106301000D01*
X84149000Y-107861000D02*
X80180000Y-107861000D01*
X84838000Y-106581000D02*
X80180000Y-106581000D01*
X85162000Y-105541000D02*
X80180000Y-105541000D01*
X85262000Y-104981000D02*
X72218000Y-104981000D01*
X81498000Y-110101000D02*
X75982000Y-110101000D01*
X77300000Y-106101000D02*
X72469000Y-106101000D01*
X79590000Y-110661000D02*
X77890000Y-110661000D01*
X84718000Y-106861000D02*
X80180000Y-106861000D01*
X83818000Y-108301000D02*
X73662000Y-108301000D01*
X85134000Y-105661000D02*
X80180000Y-105661000D01*
X84642000Y-107021000D02*
X80180000Y-107021000D01*
X85297000Y-104660000D02*
X72183000Y-104660000D01*
X77300000Y-107461000D02*
X73076000Y-107461000D01*
X85203000Y-105341000D02*
X80180000Y-105341000D01*
X77300000Y-107421000D02*
X73052000Y-107421000D01*
X83647000Y-108501000D02*
X73833000Y-108501000D01*
X77300000Y-106661000D02*
X72675000Y-106661000D01*
X85308000Y-104500000D02*
X72172000Y-104500000D01*
X77300000Y-108021000D02*
X73445000Y-108021000D01*
X85320000Y-104140000D02*
X72160000Y-104140000D01*
X82746000Y-109341000D02*
X74734000Y-109341000D01*
X85144000Y-105621000D02*
X80180000Y-105621000D01*
X77300000Y-105301000D02*
X72269000Y-105301000D01*
X85277000Y-104861000D02*
X72203000Y-104861000D01*
X85238000Y-105141000D02*
X72242000Y-105141000D01*
X77300000Y-107781000D02*
X73277000Y-107781000D01*
X84998000Y-106141000D02*
X80180000Y-106141000D01*
X84930000Y-106341000D02*
X80180000Y-106341000D01*
X83259000Y-108901000D02*
X74221000Y-108901000D01*
X82530000Y-109501000D02*
X74950000Y-109501000D01*
X77300000Y-106181000D02*
X72495000Y-106181000D01*
X80393000Y-110501000D02*
X77087000Y-110501000D01*
X85306000Y-104540000D02*
X72174000Y-104540000D01*
X83105000Y-97665431D02*
X81805000Y-97665431D01*
X80234000Y-110541000D02*
X77246000Y-110541000D01*
X83682000Y-108461000D02*
X73798000Y-108461000D01*
X77300000Y-106581000D02*
X72642000Y-106581000D01*
X77300000Y-106781000D02*
X72726000Y-106781000D01*
X77300000Y-105781000D02*
X72376000Y-105781000D01*
X84680000Y-106941000D02*
X80180000Y-106941000D01*
X82231000Y-109701000D02*
X75249000Y-109701000D01*
X85360000Y-104100000D02*
G75*
G03*
X85360000Y-104100000I-6620000J0D01*
G01*
%TO.C,R8*%
X90705000Y-119152936D02*
X90705000Y-119607064D01*
X92175000Y-119152936D02*
X92175000Y-119607064D01*
%TO.C,U6*%
X25940766Y-78914454D02*
X25940766Y-78565546D01*
X20682966Y-82613500D02*
X25940766Y-82613500D01*
X25940766Y-66214454D02*
X25940766Y-65865546D01*
X25940766Y-76374454D02*
X25940766Y-76025546D01*
X25940766Y-82613500D02*
X25940766Y-81105546D01*
X20682966Y-62166500D02*
X20682966Y-82613500D01*
X21952966Y-82486500D02*
X21952966Y-62293500D01*
X25940766Y-71294454D02*
X25940766Y-70945546D01*
X25940766Y-73834454D02*
X25940766Y-73485546D01*
X25940766Y-68754454D02*
X25940766Y-68405546D01*
X25940766Y-63674454D02*
X25940766Y-62166500D01*
X25940766Y-62166500D02*
X20682966Y-62166500D01*
X30683200Y-84391500D02*
G75*
G03*
X30683200Y-84391500I-203200J0D01*
G01*
%TO.C,R12*%
X18007064Y-70385000D02*
X17552936Y-70385000D01*
X18007064Y-71855000D02*
X17552936Y-71855000D01*
%TO.C,C9*%
X41740000Y-36201000D02*
X37202000Y-36201000D01*
X41740000Y-34921000D02*
X36767000Y-34921000D01*
X49584000Y-34961000D02*
X44620000Y-34961000D01*
X48385000Y-37481000D02*
X37975000Y-37481000D01*
X49651000Y-34641000D02*
X44620000Y-34641000D01*
X46913000Y-38881000D02*
X39447000Y-38881000D01*
X41740000Y-34681000D02*
X36717000Y-34681000D01*
X48504000Y-37321000D02*
X44620000Y-37321000D01*
X48958000Y-36601000D02*
X44620000Y-36601000D01*
X45938000Y-39441000D02*
X40422000Y-39441000D01*
X41740000Y-35321000D02*
X36872000Y-35321000D01*
X48979000Y-36561000D02*
X44620000Y-36561000D01*
X41740000Y-35001000D02*
X36786000Y-35001000D01*
X49398000Y-35601000D02*
X44620000Y-35601000D01*
X49574000Y-35001000D02*
X44620000Y-35001000D01*
X49643000Y-34681000D02*
X44620000Y-34681000D01*
X49101000Y-36321000D02*
X44620000Y-36321000D01*
X49554000Y-35081000D02*
X44620000Y-35081000D01*
X46671000Y-39041000D02*
X39689000Y-39041000D01*
X49476000Y-35361000D02*
X44620000Y-35361000D01*
X48670000Y-37081000D02*
X44620000Y-37081000D01*
X41740000Y-35081000D02*
X36806000Y-35081000D01*
X41740000Y-37321000D02*
X37856000Y-37321000D01*
X49593000Y-34921000D02*
X44620000Y-34921000D01*
X49756000Y-33680000D02*
X36604000Y-33680000D01*
X44495000Y-39921000D02*
X41865000Y-39921000D01*
X49751000Y-33800000D02*
X36609000Y-33800000D01*
X48445000Y-37401000D02*
X37915000Y-37401000D01*
X47699000Y-38241000D02*
X38661000Y-38241000D01*
X49522000Y-35201000D02*
X44620000Y-35201000D01*
X41740000Y-36321000D02*
X37259000Y-36321000D01*
X41740000Y-35521000D02*
X36935000Y-35521000D01*
X49748000Y-33840000D02*
X36612000Y-33840000D01*
X49062000Y-36401000D02*
X44620000Y-36401000D01*
X41740000Y-36281000D02*
X37240000Y-36281000D01*
X49759000Y-33600000D02*
X36601000Y-33600000D01*
X41740000Y-37081000D02*
X37690000Y-37081000D01*
X48868000Y-36761000D02*
X44620000Y-36761000D01*
X41740000Y-36801000D02*
X37516000Y-36801000D01*
X41740000Y-35401000D02*
X36896000Y-35401000D01*
X41740000Y-35881000D02*
X37066000Y-35881000D01*
X41740000Y-37161000D02*
X37744000Y-37161000D01*
X46795000Y-38961000D02*
X39565000Y-38961000D01*
X41740000Y-36001000D02*
X37115000Y-36001000D01*
X49760000Y-33480000D02*
X36600000Y-33480000D01*
X44833000Y-39841000D02*
X41527000Y-39841000D01*
X41740000Y-36401000D02*
X37298000Y-36401000D01*
X41740000Y-35841000D02*
X37050000Y-35841000D01*
X49310000Y-35841000D02*
X44620000Y-35841000D01*
X49707000Y-34281000D02*
X36653000Y-34281000D01*
X41740000Y-35641000D02*
X36976000Y-35641000D01*
X46182000Y-39321000D02*
X40178000Y-39321000D01*
X47614000Y-38321000D02*
X38746000Y-38321000D01*
X41740000Y-37121000D02*
X37717000Y-37121000D01*
X48224000Y-37681000D02*
X38136000Y-37681000D01*
X48290000Y-37601000D02*
X38070000Y-37601000D01*
X41740000Y-37041000D02*
X37664000Y-37041000D01*
X41740000Y-36881000D02*
X37563000Y-36881000D01*
X46855000Y-38921000D02*
X39505000Y-38921000D01*
X47525000Y-38401000D02*
X38835000Y-38401000D01*
X44978000Y-39801000D02*
X41382000Y-39801000D01*
X47570000Y-38361000D02*
X38790000Y-38361000D01*
X41740000Y-36521000D02*
X37360000Y-36521000D01*
X41740000Y-37201000D02*
X37771000Y-37201000D01*
X41740000Y-35201000D02*
X36838000Y-35201000D01*
X41740000Y-34721000D02*
X36724000Y-34721000D01*
X41740000Y-36241000D02*
X37221000Y-36241000D01*
X49412000Y-35561000D02*
X44620000Y-35561000D01*
X48354000Y-37521000D02*
X38006000Y-37521000D01*
X49355000Y-35721000D02*
X44620000Y-35721000D01*
X49438000Y-35481000D02*
X44620000Y-35481000D01*
X44287000Y-39961000D02*
X42073000Y-39961000D01*
X41740000Y-35921000D02*
X37082000Y-35921000D01*
X48191000Y-37721000D02*
X38169000Y-37721000D01*
X49488000Y-35321000D02*
X44620000Y-35321000D01*
X46473000Y-39161000D02*
X39887000Y-39161000D01*
X41740000Y-35481000D02*
X36922000Y-35481000D01*
X49229000Y-36041000D02*
X44620000Y-36041000D01*
X46541000Y-39121000D02*
X39819000Y-39121000D01*
X49737000Y-34000000D02*
X36623000Y-34000000D01*
X49021000Y-36481000D02*
X44620000Y-36481000D01*
X48844000Y-36801000D02*
X44620000Y-36801000D01*
X47741000Y-38201000D02*
X38619000Y-38201000D01*
X47080000Y-38761000D02*
X39280000Y-38761000D01*
X49294000Y-35881000D02*
X44620000Y-35881000D01*
X48696000Y-37041000D02*
X44620000Y-37041000D01*
X47385000Y-38521000D02*
X38975000Y-38521000D01*
X45351000Y-39681000D02*
X41009000Y-39681000D01*
X49725000Y-34120000D02*
X36635000Y-34120000D01*
X48561000Y-37241000D02*
X44620000Y-37241000D01*
X41740000Y-34601000D02*
X36702000Y-34601000D01*
X49760000Y-33440000D02*
X36600000Y-33440000D01*
X48157000Y-37761000D02*
X38203000Y-37761000D01*
X49278000Y-35921000D02*
X44620000Y-35921000D01*
X49511000Y-35241000D02*
X44620000Y-35241000D01*
X45111000Y-39761000D02*
X41249000Y-39761000D01*
X49139000Y-36241000D02*
X44620000Y-36241000D01*
X47862000Y-38081000D02*
X38498000Y-38081000D01*
X41740000Y-36441000D02*
X37318000Y-36441000D01*
X49000000Y-36521000D02*
X44620000Y-36521000D01*
X41740000Y-35121000D02*
X36816000Y-35121000D01*
X45850000Y-39481000D02*
X40510000Y-39481000D01*
X41740000Y-35721000D02*
X37005000Y-35721000D01*
X41740000Y-34881000D02*
X36758000Y-34881000D01*
X41740000Y-35681000D02*
X36990000Y-35681000D01*
X46607000Y-39081000D02*
X39753000Y-39081000D01*
X41740000Y-36081000D02*
X37149000Y-36081000D01*
X49619000Y-34801000D02*
X44620000Y-34801000D01*
X49717000Y-34201000D02*
X36643000Y-34201000D01*
X49326000Y-35801000D02*
X44620000Y-35801000D01*
X41740000Y-36961000D02*
X37613000Y-36961000D01*
X48415000Y-37441000D02*
X37945000Y-37441000D01*
X49757000Y-33640000D02*
X36603000Y-33640000D01*
X49464000Y-35401000D02*
X44620000Y-35401000D01*
X45565000Y-39601000D02*
X40795000Y-39601000D01*
X49658000Y-34601000D02*
X44620000Y-34601000D01*
X41740000Y-35441000D02*
X36909000Y-35441000D01*
X48014000Y-37921000D02*
X38346000Y-37921000D01*
X47823000Y-38121000D02*
X38537000Y-38121000D01*
X49712000Y-34241000D02*
X36648000Y-34241000D01*
X41740000Y-36161000D02*
X37184000Y-36161000D01*
X49636000Y-34721000D02*
X44620000Y-34721000D01*
X49533000Y-35161000D02*
X44620000Y-35161000D01*
X48258000Y-37641000D02*
X38102000Y-37641000D01*
X47782000Y-38161000D02*
X38578000Y-38161000D01*
X41740000Y-35601000D02*
X36962000Y-35601000D01*
X46970000Y-38841000D02*
X39390000Y-38841000D01*
X41740000Y-34961000D02*
X36776000Y-34961000D01*
X41740000Y-34801000D02*
X36741000Y-34801000D01*
X48589000Y-37201000D02*
X44620000Y-37201000D01*
X48913000Y-36681000D02*
X44620000Y-36681000D01*
X49678000Y-34481000D02*
X36682000Y-34481000D01*
X41740000Y-36601000D02*
X37402000Y-36601000D01*
X41740000Y-37001000D02*
X37638000Y-37001000D01*
X47237000Y-38641000D02*
X39123000Y-38641000D01*
X48936000Y-36641000D02*
X44620000Y-36641000D01*
X46895000Y-26355431D02*
X46895000Y-27655431D01*
X49042000Y-36441000D02*
X44620000Y-36441000D01*
X49451000Y-35441000D02*
X44620000Y-35441000D01*
X45461000Y-39641000D02*
X40899000Y-39641000D01*
X49746000Y-33880000D02*
X36614000Y-33880000D01*
X49500000Y-35281000D02*
X44620000Y-35281000D01*
X44674000Y-39881000D02*
X41686000Y-39881000D01*
X43655000Y-40041000D02*
X42705000Y-40041000D01*
X49691000Y-34401000D02*
X36669000Y-34401000D01*
X45759000Y-39521000D02*
X40601000Y-39521000D01*
X41740000Y-35161000D02*
X36827000Y-35161000D01*
X41740000Y-36561000D02*
X37381000Y-36561000D01*
X41740000Y-35281000D02*
X36860000Y-35281000D01*
X41740000Y-37241000D02*
X37799000Y-37241000D01*
X49743000Y-33920000D02*
X36617000Y-33920000D01*
X49755000Y-33720000D02*
X36605000Y-33720000D01*
X41740000Y-36121000D02*
X37166000Y-36121000D01*
X48747000Y-36961000D02*
X44620000Y-36961000D01*
X47479000Y-38441000D02*
X38881000Y-38441000D01*
X41740000Y-35761000D02*
X37019000Y-35761000D01*
X47901000Y-38041000D02*
X38459000Y-38041000D01*
X49425000Y-35521000D02*
X44620000Y-35521000D01*
X49685000Y-34441000D02*
X36675000Y-34441000D01*
X41740000Y-34641000D02*
X36709000Y-34641000D01*
X49544000Y-35121000D02*
X44620000Y-35121000D01*
X49696000Y-34361000D02*
X36664000Y-34361000D01*
X47940000Y-38001000D02*
X38420000Y-38001000D01*
X49245000Y-36001000D02*
X44620000Y-36001000D01*
X49760000Y-33520000D02*
X36600000Y-33520000D01*
X47288000Y-38601000D02*
X39072000Y-38601000D01*
X49341000Y-35761000D02*
X44620000Y-35761000D01*
X45664000Y-39561000D02*
X40696000Y-39561000D01*
X49564000Y-35041000D02*
X44620000Y-35041000D01*
X49611000Y-34841000D02*
X44620000Y-34841000D01*
X48797000Y-36881000D02*
X44620000Y-36881000D01*
X49628000Y-34761000D02*
X44620000Y-34761000D01*
X48821000Y-36841000D02*
X44620000Y-36841000D01*
X41740000Y-34521000D02*
X36688000Y-34521000D01*
X41740000Y-36761000D02*
X37492000Y-36761000D01*
X49759000Y-33560000D02*
X36601000Y-33560000D01*
X49262000Y-35961000D02*
X44620000Y-35961000D01*
X46022000Y-39401000D02*
X40338000Y-39401000D01*
X41740000Y-35241000D02*
X36849000Y-35241000D01*
X47545000Y-27005431D02*
X46245000Y-27005431D01*
X41740000Y-36721000D02*
X37469000Y-36721000D01*
X47026000Y-38801000D02*
X39334000Y-38801000D01*
X47657000Y-38281000D02*
X38703000Y-38281000D01*
X48533000Y-37281000D02*
X44620000Y-37281000D01*
X49211000Y-36081000D02*
X44620000Y-36081000D01*
X47977000Y-37961000D02*
X38383000Y-37961000D01*
X49702000Y-34321000D02*
X36658000Y-34321000D01*
X41740000Y-35561000D02*
X36948000Y-35561000D01*
X48891000Y-36721000D02*
X44620000Y-36721000D01*
X41740000Y-34841000D02*
X36749000Y-34841000D01*
X41740000Y-35041000D02*
X36796000Y-35041000D01*
X48322000Y-37561000D02*
X38038000Y-37561000D01*
X46734000Y-39001000D02*
X39626000Y-39001000D01*
X48122000Y-37801000D02*
X38238000Y-37801000D01*
X49370000Y-35681000D02*
X44620000Y-35681000D01*
X49384000Y-35641000D02*
X44620000Y-35641000D01*
X46403000Y-39201000D02*
X39957000Y-39201000D01*
X49753000Y-33760000D02*
X36607000Y-33760000D01*
X41740000Y-35361000D02*
X36884000Y-35361000D01*
X49672000Y-34521000D02*
X44620000Y-34521000D01*
X48722000Y-37001000D02*
X44620000Y-37001000D01*
X41740000Y-36921000D02*
X37588000Y-36921000D01*
X49740000Y-33960000D02*
X36620000Y-33960000D01*
X49194000Y-36121000D02*
X44620000Y-36121000D01*
X49665000Y-34561000D02*
X44620000Y-34561000D01*
X44030000Y-40001000D02*
X42330000Y-40001000D01*
X48616000Y-37161000D02*
X44620000Y-37161000D01*
X49602000Y-34881000D02*
X44620000Y-34881000D01*
X46103000Y-39361000D02*
X40257000Y-39361000D01*
X41740000Y-36641000D02*
X37424000Y-36641000D01*
X41740000Y-35961000D02*
X37098000Y-35961000D01*
X47433000Y-38481000D02*
X38927000Y-38481000D01*
X49120000Y-36281000D02*
X44620000Y-36281000D01*
X41740000Y-36041000D02*
X37131000Y-36041000D01*
X41740000Y-37361000D02*
X37885000Y-37361000D01*
X48051000Y-37881000D02*
X38309000Y-37881000D01*
X41740000Y-36841000D02*
X37539000Y-36841000D01*
X48087000Y-37841000D02*
X38273000Y-37841000D01*
X49733000Y-34040000D02*
X36627000Y-34040000D01*
X41740000Y-37281000D02*
X37827000Y-37281000D01*
X49721000Y-34161000D02*
X36639000Y-34161000D01*
X41740000Y-36481000D02*
X37339000Y-36481000D01*
X48772000Y-36921000D02*
X44620000Y-36921000D01*
X47337000Y-38561000D02*
X39023000Y-38561000D01*
X48643000Y-37121000D02*
X44620000Y-37121000D01*
X47186000Y-38681000D02*
X39174000Y-38681000D01*
X41740000Y-34761000D02*
X36732000Y-34761000D01*
X49158000Y-36201000D02*
X44620000Y-36201000D01*
X41740000Y-34561000D02*
X36695000Y-34561000D01*
X49082000Y-36361000D02*
X44620000Y-36361000D01*
X49176000Y-36161000D02*
X44620000Y-36161000D01*
X46332000Y-39241000D02*
X40028000Y-39241000D01*
X41740000Y-36681000D02*
X37447000Y-36681000D01*
X49729000Y-34080000D02*
X36631000Y-34080000D01*
X45235000Y-39721000D02*
X41125000Y-39721000D01*
X41740000Y-36361000D02*
X37278000Y-36361000D01*
X47134000Y-38721000D02*
X39226000Y-38721000D01*
X46258000Y-39281000D02*
X40102000Y-39281000D01*
X48475000Y-37361000D02*
X44620000Y-37361000D01*
X41740000Y-35801000D02*
X37034000Y-35801000D01*
X49800000Y-33440000D02*
G75*
G03*
X49800000Y-33440000I-6620000J0D01*
G01*
%TO.C,C14*%
X80545000Y-119641252D02*
X80545000Y-119118748D01*
X82015000Y-119641252D02*
X82015000Y-119118748D01*
%TO.C,R9*%
X95785000Y-114072936D02*
X95785000Y-114527064D01*
X97255000Y-114072936D02*
X97255000Y-114527064D01*
%TO.C,C26*%
X17045000Y-66301252D02*
X17045000Y-65778748D01*
X18515000Y-66301252D02*
X18515000Y-65778748D01*
%TO.C,EMER_STOP1*%
X93550000Y-67720000D02*
X95250000Y-67720000D01*
X93550000Y-66520000D02*
X93550000Y-67720000D01*
X91740000Y-65720000D02*
X91440000Y-66320000D01*
X91140000Y-65720000D02*
X91740000Y-65720000D01*
X95250000Y-73400000D02*
X93550000Y-73400000D01*
X93550000Y-74600000D02*
X86530000Y-74600000D01*
X86530000Y-74600000D02*
X86530000Y-66520000D01*
X93550000Y-73400000D02*
X93550000Y-74600000D01*
X86530000Y-66520000D02*
X93550000Y-66520000D01*
X91440000Y-66320000D02*
X91140000Y-65720000D01*
X95250000Y-67720000D02*
X95250000Y-73400000D01*
%TO.C,C4*%
X88165000Y-114038748D02*
X88165000Y-114561252D01*
X89635000Y-114038748D02*
X89635000Y-114561252D01*
%TO.C,R14*%
X84555000Y-66267064D02*
X84555000Y-65812936D01*
X83085000Y-66267064D02*
X83085000Y-65812936D01*
%TO.C,F1*%
X51470000Y-25560000D02*
X51470000Y-20160000D01*
X51470000Y-20160000D02*
X75470000Y-20160000D01*
X75470000Y-20160000D02*
X75470000Y-25560000D01*
X75470000Y-25560000D02*
X51470000Y-25560000D01*
%TO.C,U3*%
X25940766Y-53514454D02*
X25940766Y-53165546D01*
X20682966Y-57213500D02*
X25940766Y-57213500D01*
X20682966Y-36766500D02*
X20682966Y-57213500D01*
X25940766Y-48434454D02*
X25940766Y-48085546D01*
X25940766Y-50974454D02*
X25940766Y-50625546D01*
X25940766Y-36766500D02*
X20682966Y-36766500D01*
X21952966Y-57086500D02*
X21952966Y-36893500D01*
X25940766Y-45894454D02*
X25940766Y-45545546D01*
X25940766Y-40814454D02*
X25940766Y-40465546D01*
X25940766Y-38274454D02*
X25940766Y-36766500D01*
X25940766Y-57213500D02*
X25940766Y-55705546D01*
X25940766Y-43354454D02*
X25940766Y-43005546D01*
X30683200Y-58991500D02*
G75*
G03*
X30683200Y-58991500I-203200J0D01*
G01*
%TO.C,C8*%
X80171000Y-49181000D02*
X67149000Y-49181000D01*
X77151000Y-53821000D02*
X70169000Y-53821000D01*
X79600000Y-51061000D02*
X75100000Y-51061000D01*
X72220000Y-51541000D02*
X67972000Y-51541000D01*
X77959000Y-53221000D02*
X69361000Y-53221000D01*
X78770000Y-52381000D02*
X68550000Y-52381000D01*
X77506000Y-53581000D02*
X69814000Y-53581000D01*
X72220000Y-51821000D02*
X68144000Y-51821000D01*
X80213000Y-48820000D02*
X67107000Y-48820000D01*
X80123000Y-49461000D02*
X75100000Y-49461000D01*
X80239000Y-48340000D02*
X67081000Y-48340000D01*
X77560000Y-53541000D02*
X69760000Y-53541000D01*
X78802000Y-52341000D02*
X68518000Y-52341000D01*
X72220000Y-50261000D02*
X67402000Y-50261000D01*
X76662000Y-54101000D02*
X70658000Y-54101000D01*
X72220000Y-50061000D02*
X67340000Y-50061000D01*
X75831000Y-54461000D02*
X71489000Y-54461000D01*
X72220000Y-51981000D02*
X68251000Y-51981000D01*
X78179000Y-53021000D02*
X69141000Y-53021000D01*
X80192000Y-49021000D02*
X67128000Y-49021000D01*
X79758000Y-50701000D02*
X75100000Y-50701000D01*
X80201000Y-48941000D02*
X67119000Y-48941000D01*
X76418000Y-54221000D02*
X70902000Y-54221000D01*
X72220000Y-51141000D02*
X67758000Y-51141000D01*
X72220000Y-52101000D02*
X68336000Y-52101000D01*
X72220000Y-51901000D02*
X68197000Y-51901000D01*
X80044000Y-49821000D02*
X75100000Y-49821000D01*
X78005000Y-53181000D02*
X69315000Y-53181000D01*
X78221000Y-52981000D02*
X69099000Y-52981000D01*
X74135000Y-54821000D02*
X73185000Y-54821000D01*
X77450000Y-53621000D02*
X69870000Y-53621000D01*
X72220000Y-50901000D02*
X67646000Y-50901000D01*
X79252000Y-51701000D02*
X75100000Y-51701000D01*
X79638000Y-50981000D02*
X75100000Y-50981000D01*
X78342000Y-52861000D02*
X68978000Y-52861000D01*
X80082000Y-49661000D02*
X75100000Y-49661000D01*
X72220000Y-50621000D02*
X67530000Y-50621000D01*
X79864000Y-50421000D02*
X75100000Y-50421000D01*
X78050000Y-53141000D02*
X69270000Y-53141000D01*
X78738000Y-52421000D02*
X68582000Y-52421000D01*
X78834000Y-52301000D02*
X68486000Y-52301000D01*
X72220000Y-51741000D02*
X68093000Y-51741000D01*
X79980000Y-50061000D02*
X75100000Y-50061000D01*
X72220000Y-50381000D02*
X67442000Y-50381000D01*
X80131000Y-49421000D02*
X75100000Y-49421000D01*
X72220000Y-51701000D02*
X68068000Y-51701000D01*
X80187000Y-49061000D02*
X67133000Y-49061000D01*
X80073000Y-49701000D02*
X75100000Y-49701000D01*
X79931000Y-50221000D02*
X75100000Y-50221000D01*
X72220000Y-50541000D02*
X67499000Y-50541000D01*
X72220000Y-51781000D02*
X68118000Y-51781000D01*
X80231000Y-48580000D02*
X67089000Y-48580000D01*
X74767000Y-54741000D02*
X72553000Y-54741000D01*
X78704000Y-52461000D02*
X68616000Y-52461000D01*
X72220000Y-51101000D02*
X67739000Y-51101000D01*
X72220000Y-51941000D02*
X68224000Y-51941000D01*
X77021000Y-53901000D02*
X70299000Y-53901000D01*
X78602000Y-52581000D02*
X68718000Y-52581000D01*
X79991000Y-50021000D02*
X75100000Y-50021000D01*
X79176000Y-51821000D02*
X75100000Y-51821000D01*
X79438000Y-51381000D02*
X75100000Y-51381000D01*
X72220000Y-49741000D02*
X67256000Y-49741000D01*
X72220000Y-52141000D02*
X68365000Y-52141000D01*
X80226000Y-48660000D02*
X67094000Y-48660000D01*
X79892000Y-50341000D02*
X75100000Y-50341000D01*
X75313000Y-54621000D02*
X72007000Y-54621000D01*
X72220000Y-51501000D02*
X67949000Y-51501000D01*
X78137000Y-53061000D02*
X69183000Y-53061000D01*
X80236000Y-48460000D02*
X67084000Y-48460000D01*
X80228000Y-48620000D02*
X67092000Y-48620000D01*
X79918000Y-50261000D02*
X75100000Y-50261000D01*
X72220000Y-50021000D02*
X67329000Y-50021000D01*
X72220000Y-51461000D02*
X67927000Y-51461000D01*
X78494000Y-52701000D02*
X68826000Y-52701000D01*
X80013000Y-49941000D02*
X75100000Y-49941000D01*
X77768000Y-53381000D02*
X69552000Y-53381000D01*
X79821000Y-50541000D02*
X75100000Y-50541000D01*
X79480000Y-51301000D02*
X75100000Y-51301000D01*
X77865000Y-53301000D02*
X69455000Y-53301000D01*
X79944000Y-50181000D02*
X75100000Y-50181000D01*
X72220000Y-50101000D02*
X67352000Y-50101000D01*
X80145000Y-49341000D02*
X75100000Y-49341000D01*
X74975000Y-54701000D02*
X72345000Y-54701000D01*
X78457000Y-52741000D02*
X68863000Y-52741000D01*
X78895000Y-52221000D02*
X68425000Y-52221000D01*
X72220000Y-50501000D02*
X67485000Y-50501000D01*
X79968000Y-50101000D02*
X75100000Y-50101000D01*
X79227000Y-51741000D02*
X75100000Y-51741000D01*
X80239000Y-48380000D02*
X67081000Y-48380000D01*
X72220000Y-50141000D02*
X67364000Y-50141000D01*
X72220000Y-51341000D02*
X67861000Y-51341000D01*
X72220000Y-49821000D02*
X67276000Y-49821000D01*
X79774000Y-50661000D02*
X75100000Y-50661000D01*
X72220000Y-50701000D02*
X67562000Y-50701000D01*
X79069000Y-51981000D02*
X75100000Y-51981000D01*
X72220000Y-50181000D02*
X67376000Y-50181000D01*
X80034000Y-49861000D02*
X75100000Y-49861000D01*
X76953000Y-53941000D02*
X70367000Y-53941000D01*
X72220000Y-51181000D02*
X67778000Y-51181000D01*
X77335000Y-53701000D02*
X69985000Y-53701000D01*
X76330000Y-54261000D02*
X70990000Y-54261000D01*
X72220000Y-50221000D02*
X67389000Y-50221000D01*
X78420000Y-52781000D02*
X68900000Y-52781000D01*
X77614000Y-53501000D02*
X69706000Y-53501000D01*
X79041000Y-52021000D02*
X75100000Y-52021000D01*
X79562000Y-51141000D02*
X75100000Y-51141000D01*
X72220000Y-51261000D02*
X67819000Y-51261000D01*
X78984000Y-52101000D02*
X75100000Y-52101000D01*
X72220000Y-51061000D02*
X67720000Y-51061000D01*
X72220000Y-50861000D02*
X67629000Y-50861000D01*
X72220000Y-51221000D02*
X67798000Y-51221000D01*
X77817000Y-53341000D02*
X69503000Y-53341000D01*
X79501000Y-51261000D02*
X75100000Y-51261000D01*
X79459000Y-51341000D02*
X75100000Y-51341000D01*
X79806000Y-50581000D02*
X75100000Y-50581000D01*
X77087000Y-53861000D02*
X70233000Y-53861000D01*
X72220000Y-51581000D02*
X67996000Y-51581000D01*
X72220000Y-52061000D02*
X68307000Y-52061000D01*
X72220000Y-49981000D02*
X67318000Y-49981000D01*
X76502000Y-54181000D02*
X70818000Y-54181000D01*
X72220000Y-51381000D02*
X67882000Y-51381000D01*
X79123000Y-51901000D02*
X75100000Y-51901000D01*
X80024000Y-49901000D02*
X75100000Y-49901000D01*
X79581000Y-51101000D02*
X75100000Y-51101000D01*
X72220000Y-50661000D02*
X67546000Y-50661000D01*
X80116000Y-49501000D02*
X75100000Y-49501000D01*
X79691000Y-50861000D02*
X75100000Y-50861000D01*
X79709000Y-50821000D02*
X75100000Y-50821000D01*
X72220000Y-49341000D02*
X67175000Y-49341000D01*
X80240000Y-48300000D02*
X67080000Y-48300000D01*
X79619000Y-51021000D02*
X75100000Y-51021000D01*
X72220000Y-49661000D02*
X67238000Y-49661000D01*
X80233000Y-48540000D02*
X67087000Y-48540000D01*
X80158000Y-49261000D02*
X67162000Y-49261000D01*
X72220000Y-50301000D02*
X67415000Y-50301000D01*
X78671000Y-52501000D02*
X68649000Y-52501000D01*
X80108000Y-49541000D02*
X75100000Y-49541000D01*
X77275000Y-53741000D02*
X70045000Y-53741000D01*
X72220000Y-49541000D02*
X67212000Y-49541000D01*
X72220000Y-50741000D02*
X67578000Y-50741000D01*
X80197000Y-48981000D02*
X67123000Y-48981000D01*
X76144000Y-54341000D02*
X71176000Y-54341000D01*
X72220000Y-49621000D02*
X67229000Y-49621000D01*
X80176000Y-49141000D02*
X67144000Y-49141000D01*
X80099000Y-49581000D02*
X75100000Y-49581000D01*
X72220000Y-50781000D02*
X67595000Y-50781000D01*
X79324000Y-51581000D02*
X75100000Y-51581000D01*
X79277000Y-51661000D02*
X75100000Y-51661000D01*
X79522000Y-51221000D02*
X75100000Y-51221000D01*
X77666000Y-53461000D02*
X69654000Y-53461000D01*
X79096000Y-51941000D02*
X75100000Y-51941000D01*
X79656000Y-50941000D02*
X75100000Y-50941000D01*
X72220000Y-50461000D02*
X67470000Y-50461000D01*
X72220000Y-50821000D02*
X67611000Y-50821000D01*
X79371000Y-51501000D02*
X75100000Y-51501000D01*
X80002000Y-49981000D02*
X75100000Y-49981000D01*
X72220000Y-49861000D02*
X67286000Y-49861000D01*
X72220000Y-50341000D02*
X67428000Y-50341000D01*
X72220000Y-51861000D02*
X68170000Y-51861000D01*
X77214000Y-53781000D02*
X70106000Y-53781000D01*
X80064000Y-49741000D02*
X75100000Y-49741000D01*
X76738000Y-54061000D02*
X70582000Y-54061000D01*
X78567000Y-52621000D02*
X68753000Y-52621000D01*
X72220000Y-49781000D02*
X67266000Y-49781000D01*
X79674000Y-50901000D02*
X75100000Y-50901000D01*
X72220000Y-51621000D02*
X68019000Y-51621000D01*
X80240000Y-48220000D02*
X67080000Y-48220000D01*
X80235000Y-48500000D02*
X67085000Y-48500000D01*
X80237000Y-48420000D02*
X67083000Y-48420000D01*
X79850000Y-50461000D02*
X75100000Y-50461000D01*
X72220000Y-52021000D02*
X68279000Y-52021000D01*
X78637000Y-52541000D02*
X68683000Y-52541000D01*
X77913000Y-53261000D02*
X69407000Y-53261000D01*
X74510000Y-54781000D02*
X72810000Y-54781000D01*
X79013000Y-52061000D02*
X75100000Y-52061000D01*
X72220000Y-49461000D02*
X67197000Y-49461000D01*
X72220000Y-49581000D02*
X67221000Y-49581000D01*
X80223000Y-48700000D02*
X67097000Y-48700000D01*
X72220000Y-49701000D02*
X67247000Y-49701000D01*
X76883000Y-53981000D02*
X70437000Y-53981000D01*
X79956000Y-50141000D02*
X75100000Y-50141000D01*
X80217000Y-48780000D02*
X67103000Y-48780000D01*
X72220000Y-49501000D02*
X67204000Y-49501000D01*
X72220000Y-49901000D02*
X67296000Y-49901000D01*
X78094000Y-53101000D02*
X69226000Y-53101000D01*
X78531000Y-52661000D02*
X68789000Y-52661000D01*
X79905000Y-50301000D02*
X75100000Y-50301000D01*
X78381000Y-52821000D02*
X68939000Y-52821000D01*
X72220000Y-49421000D02*
X67189000Y-49421000D01*
X78262000Y-52941000D02*
X69058000Y-52941000D01*
X77717000Y-53421000D02*
X69603000Y-53421000D01*
X80091000Y-49621000D02*
X75100000Y-49621000D01*
X76583000Y-54141000D02*
X70737000Y-54141000D01*
X80182000Y-49101000D02*
X67138000Y-49101000D01*
X75591000Y-54541000D02*
X71729000Y-54541000D01*
X80054000Y-49781000D02*
X75100000Y-49781000D01*
X78925000Y-52181000D02*
X68395000Y-52181000D01*
X79393000Y-51461000D02*
X75100000Y-51461000D01*
X80240000Y-48260000D02*
X67080000Y-48260000D01*
X72220000Y-51301000D02*
X67840000Y-51301000D01*
X79150000Y-51861000D02*
X75100000Y-51861000D01*
X80138000Y-49381000D02*
X75100000Y-49381000D01*
X78955000Y-52141000D02*
X75100000Y-52141000D01*
X80205000Y-48900000D02*
X67115000Y-48900000D01*
X76239000Y-54301000D02*
X71081000Y-54301000D01*
X72220000Y-50581000D02*
X67514000Y-50581000D01*
X77393000Y-53661000D02*
X69927000Y-53661000D01*
X79725000Y-50781000D02*
X75100000Y-50781000D01*
X76045000Y-54381000D02*
X71275000Y-54381000D01*
X80209000Y-48860000D02*
X67111000Y-48860000D01*
X72220000Y-50981000D02*
X67682000Y-50981000D01*
X78303000Y-52901000D02*
X69017000Y-52901000D01*
X79878000Y-50381000D02*
X75100000Y-50381000D01*
X72220000Y-51421000D02*
X67904000Y-51421000D01*
X79542000Y-51181000D02*
X75100000Y-51181000D01*
X72220000Y-50941000D02*
X67664000Y-50941000D01*
X72220000Y-50421000D02*
X67456000Y-50421000D01*
X72220000Y-49941000D02*
X67307000Y-49941000D01*
X72220000Y-51021000D02*
X67701000Y-51021000D01*
X75941000Y-54421000D02*
X71379000Y-54421000D01*
X75715000Y-54501000D02*
X71605000Y-54501000D01*
X79202000Y-51781000D02*
X75100000Y-51781000D01*
X79790000Y-50621000D02*
X75100000Y-50621000D01*
X75458000Y-54581000D02*
X71862000Y-54581000D01*
X72220000Y-49301000D02*
X67168000Y-49301000D01*
X78025000Y-41785431D02*
X76725000Y-41785431D01*
X72220000Y-49381000D02*
X67182000Y-49381000D01*
X79835000Y-50501000D02*
X75100000Y-50501000D01*
X76812000Y-54021000D02*
X70508000Y-54021000D01*
X75154000Y-54661000D02*
X72166000Y-54661000D01*
X78865000Y-52261000D02*
X68455000Y-52261000D01*
X80152000Y-49301000D02*
X75100000Y-49301000D01*
X79348000Y-51541000D02*
X75100000Y-51541000D01*
X77375000Y-41135431D02*
X77375000Y-42435431D01*
X79742000Y-50741000D02*
X75100000Y-50741000D01*
X79416000Y-51421000D02*
X75100000Y-51421000D01*
X79301000Y-51621000D02*
X75100000Y-51621000D01*
X80165000Y-49221000D02*
X67155000Y-49221000D01*
X80220000Y-48740000D02*
X67100000Y-48740000D01*
X72220000Y-51661000D02*
X68043000Y-51661000D01*
X80280000Y-48220000D02*
G75*
G03*
X80280000Y-48220000I-6620000J0D01*
G01*
%TO.C,J3*%
X97040000Y-85700000D02*
X95140000Y-85700000D01*
X85140000Y-96550000D02*
X97740000Y-96550000D01*
X96790000Y-86200000D02*
X97040000Y-85700000D01*
X95140000Y-85700000D02*
X95090000Y-85700000D01*
X85140000Y-85700000D02*
X85140000Y-96550000D01*
X95340000Y-86200000D02*
X89940000Y-86200000D01*
X97740000Y-96550000D02*
X97740000Y-86200000D01*
X97740000Y-86200000D02*
X96790000Y-86200000D01*
X90240000Y-85700000D02*
X85140000Y-85700000D01*
X95090000Y-85700000D02*
X95340000Y-86200000D01*
X89940000Y-86200000D02*
X90240000Y-85700000D01*
%TO.C,C19*%
X17518748Y-80545000D02*
X18041252Y-80545000D01*
X17518748Y-82015000D02*
X18041252Y-82015000D01*
%TO.C,D2*%
X82275000Y-62250000D02*
X85365000Y-62250000D01*
X83820462Y-56700000D02*
G75*
G03*
X82275170Y-62250000I-462J-2990000D01*
G01*
X85364830Y-62250000D02*
G75*
G03*
X83819538Y-56700000I-1544830J2560000D01*
G01*
X86320000Y-59690000D02*
G75*
G03*
X86320000Y-59690000I-2500000J0D01*
G01*
%TO.C,U2*%
X50990500Y-52768500D02*
X50990500Y-50392949D01*
X42710100Y-53251100D02*
X42710100Y-54876700D01*
X44742100Y-52768500D02*
X44742100Y-54521100D01*
X48729900Y-53251100D02*
X48729900Y-54876700D01*
X40449500Y-52768500D02*
X44742100Y-52768500D01*
X47790100Y-53251100D02*
X47790100Y-54876700D01*
X40449500Y-50392949D02*
X40449500Y-52768500D01*
X43649900Y-53251100D02*
X43649900Y-54876700D01*
X46697900Y-52768500D02*
X50990500Y-52768500D01*
X46697900Y-54521100D02*
X46697900Y-52768500D01*
X44742100Y-54521100D02*
X46697900Y-54521100D01*
%TO.C,R10*%
X35787064Y-82015000D02*
X35332936Y-82015000D01*
X35787064Y-80545000D02*
X35332936Y-80545000D01*
%TO.C,C22*%
X76662000Y-39321000D02*
X70658000Y-39321000D01*
X72220000Y-36001000D02*
X67595000Y-36001000D01*
X72220000Y-34681000D02*
X67197000Y-34681000D01*
X79301000Y-36841000D02*
X75100000Y-36841000D01*
X76583000Y-39361000D02*
X70737000Y-39361000D01*
X72220000Y-34961000D02*
X67256000Y-34961000D01*
X78738000Y-37641000D02*
X68582000Y-37641000D01*
X80209000Y-34080000D02*
X67111000Y-34080000D01*
X78955000Y-37361000D02*
X75100000Y-37361000D01*
X76418000Y-39441000D02*
X70902000Y-39441000D01*
X79324000Y-36801000D02*
X75100000Y-36801000D01*
X80197000Y-34201000D02*
X67123000Y-34201000D01*
X72220000Y-35121000D02*
X67296000Y-35121000D01*
X72220000Y-36761000D02*
X67972000Y-36761000D01*
X75313000Y-39841000D02*
X72007000Y-39841000D01*
X80220000Y-33960000D02*
X67100000Y-33960000D01*
X78262000Y-38161000D02*
X69058000Y-38161000D01*
X72220000Y-36401000D02*
X67778000Y-36401000D01*
X75715000Y-39721000D02*
X71605000Y-39721000D01*
X76330000Y-39481000D02*
X70990000Y-39481000D01*
X79542000Y-36401000D02*
X75100000Y-36401000D01*
X79944000Y-35401000D02*
X75100000Y-35401000D01*
X76738000Y-39281000D02*
X70582000Y-39281000D01*
X72220000Y-35961000D02*
X67578000Y-35961000D01*
X78984000Y-37321000D02*
X75100000Y-37321000D01*
X79968000Y-35321000D02*
X75100000Y-35321000D01*
X79674000Y-36121000D02*
X75100000Y-36121000D01*
X79393000Y-36681000D02*
X75100000Y-36681000D01*
X80182000Y-34321000D02*
X67138000Y-34321000D01*
X72220000Y-36681000D02*
X67927000Y-36681000D01*
X77768000Y-38601000D02*
X69552000Y-38601000D01*
X80192000Y-34241000D02*
X67128000Y-34241000D01*
X79878000Y-35601000D02*
X75100000Y-35601000D01*
X72220000Y-35641000D02*
X67456000Y-35641000D01*
X72220000Y-36521000D02*
X67840000Y-36521000D01*
X72220000Y-35921000D02*
X67562000Y-35921000D01*
X79980000Y-35281000D02*
X75100000Y-35281000D01*
X79227000Y-36961000D02*
X75100000Y-36961000D01*
X80002000Y-35201000D02*
X75100000Y-35201000D01*
X76144000Y-39561000D02*
X71176000Y-39561000D01*
X78671000Y-37721000D02*
X68649000Y-37721000D01*
X75941000Y-39641000D02*
X71379000Y-39641000D01*
X72220000Y-34601000D02*
X67182000Y-34601000D01*
X72220000Y-36201000D02*
X67682000Y-36201000D01*
X72220000Y-36041000D02*
X67611000Y-36041000D01*
X72220000Y-36361000D02*
X67758000Y-36361000D01*
X80231000Y-33800000D02*
X67089000Y-33800000D01*
X72220000Y-35881000D02*
X67546000Y-35881000D01*
X80213000Y-34040000D02*
X67107000Y-34040000D01*
X79619000Y-36241000D02*
X75100000Y-36241000D01*
X79691000Y-36081000D02*
X75100000Y-36081000D01*
X80145000Y-34561000D02*
X75100000Y-34561000D01*
X79348000Y-36761000D02*
X75100000Y-36761000D01*
X78531000Y-37881000D02*
X68789000Y-37881000D01*
X76953000Y-39161000D02*
X70367000Y-39161000D01*
X77450000Y-38841000D02*
X69870000Y-38841000D01*
X74510000Y-40001000D02*
X72810000Y-40001000D01*
X80165000Y-34441000D02*
X67155000Y-34441000D01*
X72220000Y-37201000D02*
X68251000Y-37201000D01*
X77666000Y-38681000D02*
X69654000Y-38681000D01*
X72220000Y-37161000D02*
X68224000Y-37161000D01*
X79850000Y-35681000D02*
X75100000Y-35681000D01*
X72220000Y-36881000D02*
X68043000Y-36881000D01*
X80131000Y-34641000D02*
X75100000Y-34641000D01*
X77817000Y-38561000D02*
X69503000Y-38561000D01*
X72220000Y-35241000D02*
X67329000Y-35241000D01*
X80171000Y-34401000D02*
X67149000Y-34401000D01*
X72220000Y-36241000D02*
X67701000Y-36241000D01*
X72220000Y-35601000D02*
X67442000Y-35601000D01*
X80073000Y-34921000D02*
X75100000Y-34921000D01*
X79638000Y-36201000D02*
X75100000Y-36201000D01*
X72220000Y-35481000D02*
X67402000Y-35481000D01*
X79416000Y-36641000D02*
X75100000Y-36641000D01*
X72220000Y-36321000D02*
X67739000Y-36321000D01*
X80013000Y-35161000D02*
X75100000Y-35161000D01*
X72220000Y-34641000D02*
X67189000Y-34641000D01*
X72220000Y-34921000D02*
X67247000Y-34921000D01*
X80226000Y-33880000D02*
X67094000Y-33880000D01*
X79790000Y-35841000D02*
X75100000Y-35841000D01*
X72220000Y-34881000D02*
X67238000Y-34881000D01*
X80217000Y-34000000D02*
X67103000Y-34000000D01*
X72220000Y-37041000D02*
X68144000Y-37041000D01*
X79835000Y-35721000D02*
X75100000Y-35721000D01*
X72220000Y-35521000D02*
X67415000Y-35521000D01*
X72220000Y-36481000D02*
X67819000Y-36481000D01*
X78303000Y-38121000D02*
X69017000Y-38121000D01*
X80123000Y-34681000D02*
X75100000Y-34681000D01*
X72220000Y-34721000D02*
X67204000Y-34721000D01*
X78381000Y-38041000D02*
X68939000Y-38041000D01*
X80034000Y-35081000D02*
X75100000Y-35081000D01*
X78137000Y-38281000D02*
X69183000Y-38281000D01*
X75831000Y-39681000D02*
X71489000Y-39681000D01*
X78342000Y-38081000D02*
X68978000Y-38081000D01*
X79758000Y-35921000D02*
X75100000Y-35921000D01*
X72220000Y-35281000D02*
X67340000Y-35281000D01*
X76239000Y-39521000D02*
X71081000Y-39521000D01*
X76502000Y-39401000D02*
X70818000Y-39401000D01*
X79013000Y-37281000D02*
X75100000Y-37281000D01*
X76883000Y-39201000D02*
X70437000Y-39201000D01*
X75458000Y-39801000D02*
X71862000Y-39801000D01*
X77865000Y-38521000D02*
X69455000Y-38521000D01*
X80237000Y-33640000D02*
X67083000Y-33640000D01*
X72220000Y-37241000D02*
X68279000Y-37241000D01*
X72220000Y-34801000D02*
X67221000Y-34801000D01*
X80228000Y-33840000D02*
X67092000Y-33840000D01*
X76812000Y-39241000D02*
X70508000Y-39241000D01*
X80240000Y-33480000D02*
X67080000Y-33480000D01*
X79041000Y-37241000D02*
X75100000Y-37241000D01*
X77087000Y-39081000D02*
X70233000Y-39081000D01*
X79480000Y-36521000D02*
X75100000Y-36521000D01*
X79709000Y-36041000D02*
X75100000Y-36041000D01*
X72220000Y-35081000D02*
X67286000Y-35081000D01*
X72220000Y-36441000D02*
X67798000Y-36441000D01*
X79774000Y-35881000D02*
X75100000Y-35881000D01*
X80236000Y-33680000D02*
X67084000Y-33680000D01*
X72220000Y-37281000D02*
X68307000Y-37281000D01*
X79202000Y-37001000D02*
X75100000Y-37001000D01*
X80158000Y-34481000D02*
X67162000Y-34481000D01*
X80024000Y-35121000D02*
X75100000Y-35121000D01*
X72220000Y-35761000D02*
X67499000Y-35761000D01*
X79725000Y-36001000D02*
X75100000Y-36001000D01*
X80116000Y-34721000D02*
X75100000Y-34721000D01*
X80240000Y-33440000D02*
X67080000Y-33440000D01*
X80240000Y-33520000D02*
X67080000Y-33520000D01*
X72220000Y-37121000D02*
X68197000Y-37121000D01*
X77506000Y-38801000D02*
X69814000Y-38801000D01*
X80176000Y-34361000D02*
X67144000Y-34361000D01*
X79371000Y-36721000D02*
X75100000Y-36721000D01*
X80201000Y-34161000D02*
X67119000Y-34161000D01*
X80235000Y-33720000D02*
X67085000Y-33720000D01*
X79956000Y-35361000D02*
X75100000Y-35361000D01*
X74135000Y-40041000D02*
X73185000Y-40041000D01*
X79176000Y-37041000D02*
X75100000Y-37041000D01*
X72220000Y-37361000D02*
X68365000Y-37361000D01*
X72220000Y-37081000D02*
X68170000Y-37081000D01*
X75154000Y-39881000D02*
X72166000Y-39881000D01*
X72220000Y-35561000D02*
X67428000Y-35561000D01*
X72220000Y-36121000D02*
X67646000Y-36121000D01*
X79806000Y-35801000D02*
X75100000Y-35801000D01*
X74767000Y-39961000D02*
X72553000Y-39961000D01*
X79742000Y-35961000D02*
X75100000Y-35961000D01*
X72220000Y-36961000D02*
X68093000Y-36961000D01*
X80099000Y-34801000D02*
X75100000Y-34801000D01*
X72220000Y-36081000D02*
X67629000Y-36081000D01*
X72220000Y-37321000D02*
X68336000Y-37321000D01*
X78802000Y-37561000D02*
X68518000Y-37561000D01*
X72220000Y-35001000D02*
X67266000Y-35001000D01*
X80044000Y-35041000D02*
X75100000Y-35041000D01*
X80233000Y-33760000D02*
X67087000Y-33760000D01*
X79501000Y-36481000D02*
X75100000Y-36481000D01*
X72220000Y-35841000D02*
X67530000Y-35841000D01*
X78834000Y-37521000D02*
X68486000Y-37521000D01*
X72220000Y-36601000D02*
X67882000Y-36601000D01*
X77375000Y-26355431D02*
X77375000Y-27655431D01*
X80138000Y-34601000D02*
X75100000Y-34601000D01*
X79991000Y-35241000D02*
X75100000Y-35241000D01*
X72220000Y-35681000D02*
X67470000Y-35681000D01*
X79459000Y-36561000D02*
X75100000Y-36561000D01*
X72220000Y-34841000D02*
X67229000Y-34841000D01*
X72220000Y-35041000D02*
X67276000Y-35041000D01*
X76045000Y-39601000D02*
X71275000Y-39601000D01*
X72220000Y-35721000D02*
X67485000Y-35721000D01*
X77959000Y-38441000D02*
X69361000Y-38441000D01*
X78457000Y-37961000D02*
X68863000Y-37961000D01*
X80054000Y-35001000D02*
X75100000Y-35001000D01*
X72220000Y-36801000D02*
X67996000Y-36801000D01*
X79522000Y-36441000D02*
X75100000Y-36441000D01*
X72220000Y-34561000D02*
X67175000Y-34561000D01*
X72220000Y-36641000D02*
X67904000Y-36641000D01*
X72220000Y-35361000D02*
X67364000Y-35361000D01*
X79656000Y-36161000D02*
X75100000Y-36161000D01*
X77393000Y-38881000D02*
X69927000Y-38881000D01*
X78770000Y-37601000D02*
X68550000Y-37601000D01*
X78865000Y-37481000D02*
X68455000Y-37481000D01*
X77151000Y-39041000D02*
X70169000Y-39041000D01*
X79905000Y-35521000D02*
X75100000Y-35521000D01*
X79931000Y-35441000D02*
X75100000Y-35441000D01*
X72220000Y-35201000D02*
X67318000Y-35201000D01*
X78050000Y-38361000D02*
X69270000Y-38361000D01*
X80239000Y-33560000D02*
X67081000Y-33560000D01*
X77275000Y-38961000D02*
X70045000Y-38961000D01*
X79581000Y-36321000D02*
X75100000Y-36321000D01*
X77214000Y-39001000D02*
X70106000Y-39001000D01*
X78704000Y-37681000D02*
X68616000Y-37681000D01*
X72220000Y-36721000D02*
X67949000Y-36721000D01*
X80239000Y-33600000D02*
X67081000Y-33600000D01*
X79562000Y-36361000D02*
X75100000Y-36361000D01*
X78925000Y-37401000D02*
X68395000Y-37401000D01*
X79277000Y-36881000D02*
X75100000Y-36881000D01*
X77021000Y-39121000D02*
X70299000Y-39121000D01*
X79892000Y-35561000D02*
X75100000Y-35561000D01*
X72220000Y-35321000D02*
X67352000Y-35321000D01*
X72220000Y-35161000D02*
X67307000Y-35161000D01*
X74975000Y-39921000D02*
X72345000Y-39921000D01*
X80082000Y-34881000D02*
X75100000Y-34881000D01*
X72220000Y-36561000D02*
X67861000Y-36561000D01*
X72220000Y-36161000D02*
X67664000Y-36161000D01*
X72220000Y-35401000D02*
X67376000Y-35401000D01*
X79438000Y-36601000D02*
X75100000Y-36601000D01*
X72220000Y-36281000D02*
X67720000Y-36281000D01*
X80152000Y-34521000D02*
X75100000Y-34521000D01*
X78567000Y-37841000D02*
X68753000Y-37841000D01*
X79600000Y-36281000D02*
X75100000Y-36281000D01*
X72220000Y-36841000D02*
X68019000Y-36841000D01*
X80223000Y-33920000D02*
X67097000Y-33920000D01*
X78602000Y-37801000D02*
X68718000Y-37801000D01*
X72220000Y-34521000D02*
X67168000Y-34521000D01*
X77717000Y-38641000D02*
X69603000Y-38641000D01*
X75591000Y-39761000D02*
X71729000Y-39761000D01*
X72220000Y-37001000D02*
X68118000Y-37001000D01*
X79150000Y-37081000D02*
X75100000Y-37081000D01*
X78005000Y-38401000D02*
X69315000Y-38401000D01*
X80108000Y-34761000D02*
X75100000Y-34761000D01*
X79069000Y-37201000D02*
X75100000Y-37201000D01*
X72220000Y-35801000D02*
X67514000Y-35801000D01*
X78221000Y-38201000D02*
X69099000Y-38201000D01*
X79821000Y-35761000D02*
X75100000Y-35761000D01*
X78420000Y-38001000D02*
X68900000Y-38001000D01*
X77913000Y-38481000D02*
X69407000Y-38481000D01*
X80064000Y-34961000D02*
X75100000Y-34961000D01*
X78494000Y-37921000D02*
X68826000Y-37921000D01*
X78637000Y-37761000D02*
X68683000Y-37761000D01*
X80187000Y-34281000D02*
X67133000Y-34281000D01*
X80091000Y-34841000D02*
X75100000Y-34841000D01*
X72220000Y-35441000D02*
X67389000Y-35441000D01*
X72220000Y-34761000D02*
X67212000Y-34761000D01*
X79096000Y-37161000D02*
X75100000Y-37161000D01*
X78179000Y-38241000D02*
X69141000Y-38241000D01*
X78094000Y-38321000D02*
X69226000Y-38321000D01*
X72220000Y-36921000D02*
X68068000Y-36921000D01*
X78895000Y-37441000D02*
X68425000Y-37441000D01*
X79252000Y-36921000D02*
X75100000Y-36921000D01*
X78025000Y-27005431D02*
X76725000Y-27005431D01*
X80205000Y-34120000D02*
X67115000Y-34120000D01*
X77335000Y-38921000D02*
X69985000Y-38921000D01*
X79864000Y-35641000D02*
X75100000Y-35641000D01*
X77560000Y-38761000D02*
X69760000Y-38761000D01*
X79123000Y-37121000D02*
X75100000Y-37121000D01*
X79918000Y-35481000D02*
X75100000Y-35481000D01*
X77614000Y-38721000D02*
X69706000Y-38721000D01*
X80280000Y-33440000D02*
G75*
G03*
X80280000Y-33440000I-6620000J0D01*
G01*
%TO.C,R13*%
X90705000Y-99287064D02*
X90705000Y-98832936D01*
X92175000Y-99287064D02*
X92175000Y-98832936D01*
%TO.C,C6*%
X17518748Y-56615000D02*
X18041252Y-56615000D01*
X17518748Y-55145000D02*
X18041252Y-55145000D01*
%TO.C,C2*%
X84555000Y-114038748D02*
X84555000Y-114561252D01*
X83085000Y-114038748D02*
X83085000Y-114561252D01*
%TO.C,C13*%
X17045000Y-40901252D02*
X17045000Y-40378748D01*
X18515000Y-40901252D02*
X18515000Y-40378748D01*
%TO.C,C21*%
X79980000Y-70381000D02*
X75100000Y-70381000D01*
X80220000Y-69060000D02*
X67100000Y-69060000D01*
X77151000Y-74141000D02*
X70169000Y-74141000D01*
X79918000Y-70581000D02*
X75100000Y-70581000D01*
X79581000Y-71421000D02*
X75100000Y-71421000D01*
X80235000Y-68820000D02*
X67085000Y-68820000D01*
X78637000Y-72861000D02*
X68683000Y-72861000D01*
X74767000Y-75061000D02*
X72553000Y-75061000D01*
X77865000Y-73621000D02*
X69455000Y-73621000D01*
X72220000Y-71621000D02*
X67840000Y-71621000D01*
X80152000Y-69621000D02*
X75100000Y-69621000D01*
X72220000Y-72261000D02*
X68224000Y-72261000D01*
X79691000Y-71181000D02*
X75100000Y-71181000D01*
X79600000Y-71381000D02*
X75100000Y-71381000D01*
X72220000Y-69661000D02*
X67175000Y-69661000D01*
X77817000Y-73661000D02*
X69503000Y-73661000D01*
X76738000Y-74381000D02*
X70582000Y-74381000D01*
X72220000Y-71741000D02*
X67904000Y-71741000D01*
X76418000Y-74541000D02*
X70902000Y-74541000D01*
X79202000Y-72101000D02*
X75100000Y-72101000D01*
X72220000Y-72421000D02*
X68336000Y-72421000D01*
X76045000Y-74701000D02*
X71275000Y-74701000D01*
X79725000Y-71101000D02*
X75100000Y-71101000D01*
X72220000Y-70181000D02*
X67286000Y-70181000D01*
X72220000Y-71181000D02*
X67629000Y-71181000D01*
X79619000Y-71341000D02*
X75100000Y-71341000D01*
X72220000Y-71821000D02*
X67949000Y-71821000D01*
X80233000Y-68860000D02*
X67087000Y-68860000D01*
X80240000Y-68580000D02*
X67080000Y-68580000D01*
X72220000Y-71901000D02*
X67996000Y-71901000D01*
X75941000Y-74741000D02*
X71379000Y-74741000D01*
X80002000Y-70301000D02*
X75100000Y-70301000D01*
X78834000Y-72621000D02*
X68486000Y-72621000D01*
X79393000Y-71781000D02*
X75100000Y-71781000D01*
X79638000Y-71301000D02*
X75100000Y-71301000D01*
X79956000Y-70461000D02*
X75100000Y-70461000D01*
X80108000Y-69861000D02*
X75100000Y-69861000D01*
X72220000Y-70781000D02*
X67470000Y-70781000D01*
X72220000Y-70821000D02*
X67485000Y-70821000D01*
X80231000Y-68900000D02*
X67089000Y-68900000D01*
X80237000Y-68740000D02*
X67083000Y-68740000D01*
X72220000Y-70301000D02*
X67318000Y-70301000D01*
X80158000Y-69581000D02*
X67162000Y-69581000D01*
X75313000Y-74941000D02*
X72007000Y-74941000D01*
X78342000Y-73181000D02*
X68978000Y-73181000D01*
X79123000Y-72221000D02*
X75100000Y-72221000D01*
X78802000Y-72661000D02*
X68518000Y-72661000D01*
X72220000Y-70381000D02*
X67340000Y-70381000D01*
X79864000Y-70741000D02*
X75100000Y-70741000D01*
X75715000Y-74821000D02*
X71605000Y-74821000D01*
X78025000Y-62105431D02*
X76725000Y-62105431D01*
X79416000Y-71741000D02*
X75100000Y-71741000D01*
X72220000Y-72381000D02*
X68307000Y-72381000D01*
X77913000Y-73581000D02*
X69407000Y-73581000D01*
X80226000Y-68980000D02*
X67094000Y-68980000D01*
X79709000Y-71141000D02*
X75100000Y-71141000D01*
X77450000Y-73941000D02*
X69870000Y-73941000D01*
X78494000Y-73021000D02*
X68826000Y-73021000D01*
X78381000Y-73141000D02*
X68939000Y-73141000D01*
X79562000Y-71461000D02*
X75100000Y-71461000D01*
X80176000Y-69461000D02*
X67144000Y-69461000D01*
X78531000Y-72981000D02*
X68789000Y-72981000D01*
X72220000Y-72221000D02*
X68197000Y-72221000D01*
X79835000Y-70821000D02*
X75100000Y-70821000D01*
X72220000Y-70661000D02*
X67428000Y-70661000D01*
X79501000Y-71581000D02*
X75100000Y-71581000D01*
X72220000Y-70701000D02*
X67442000Y-70701000D01*
X77959000Y-73541000D02*
X69361000Y-73541000D01*
X76239000Y-74621000D02*
X71081000Y-74621000D01*
X79892000Y-70661000D02*
X75100000Y-70661000D01*
X78865000Y-72581000D02*
X68455000Y-72581000D01*
X80236000Y-68780000D02*
X67084000Y-68780000D01*
X80073000Y-70021000D02*
X75100000Y-70021000D01*
X72220000Y-69781000D02*
X67197000Y-69781000D01*
X76502000Y-74501000D02*
X70818000Y-74501000D01*
X78420000Y-73101000D02*
X68900000Y-73101000D01*
X79878000Y-70701000D02*
X75100000Y-70701000D01*
X78738000Y-72741000D02*
X68582000Y-72741000D01*
X76883000Y-74301000D02*
X70437000Y-74301000D01*
X75591000Y-74861000D02*
X71729000Y-74861000D01*
X72220000Y-71541000D02*
X67798000Y-71541000D01*
X72220000Y-70741000D02*
X67456000Y-70741000D01*
X72220000Y-69621000D02*
X67168000Y-69621000D01*
X79150000Y-72181000D02*
X75100000Y-72181000D01*
X79806000Y-70901000D02*
X75100000Y-70901000D01*
X72220000Y-72141000D02*
X68144000Y-72141000D01*
X80205000Y-69220000D02*
X67115000Y-69220000D01*
X72220000Y-71261000D02*
X67664000Y-71261000D01*
X77375000Y-61455431D02*
X77375000Y-62755431D01*
X77087000Y-74181000D02*
X70233000Y-74181000D01*
X72220000Y-69901000D02*
X67221000Y-69901000D01*
X77717000Y-73741000D02*
X69603000Y-73741000D01*
X76583000Y-74461000D02*
X70737000Y-74461000D01*
X80064000Y-70061000D02*
X75100000Y-70061000D01*
X72220000Y-69941000D02*
X67229000Y-69941000D01*
X79096000Y-72261000D02*
X75100000Y-72261000D01*
X72220000Y-72021000D02*
X68068000Y-72021000D01*
X78602000Y-72901000D02*
X68718000Y-72901000D01*
X72220000Y-70421000D02*
X67352000Y-70421000D01*
X72220000Y-70901000D02*
X67514000Y-70901000D01*
X78179000Y-73341000D02*
X69141000Y-73341000D01*
X80123000Y-69781000D02*
X75100000Y-69781000D01*
X72220000Y-71341000D02*
X67701000Y-71341000D01*
X72220000Y-72061000D02*
X68093000Y-72061000D01*
X79227000Y-72061000D02*
X75100000Y-72061000D01*
X72220000Y-71461000D02*
X67758000Y-71461000D01*
X72220000Y-71061000D02*
X67578000Y-71061000D01*
X72220000Y-71701000D02*
X67882000Y-71701000D01*
X80034000Y-70181000D02*
X75100000Y-70181000D01*
X80240000Y-68540000D02*
X67080000Y-68540000D01*
X79656000Y-71261000D02*
X75100000Y-71261000D01*
X72220000Y-72341000D02*
X68279000Y-72341000D01*
X72220000Y-71501000D02*
X67778000Y-71501000D01*
X79069000Y-72301000D02*
X75100000Y-72301000D01*
X80182000Y-69421000D02*
X67138000Y-69421000D01*
X72220000Y-71021000D02*
X67562000Y-71021000D01*
X72220000Y-70261000D02*
X67307000Y-70261000D01*
X76953000Y-74261000D02*
X70367000Y-74261000D01*
X74510000Y-75101000D02*
X72810000Y-75101000D01*
X79252000Y-72021000D02*
X75100000Y-72021000D01*
X72220000Y-70941000D02*
X67530000Y-70941000D01*
X75154000Y-74981000D02*
X72166000Y-74981000D01*
X72220000Y-72101000D02*
X68118000Y-72101000D01*
X78770000Y-72701000D02*
X68550000Y-72701000D01*
X79905000Y-70621000D02*
X75100000Y-70621000D01*
X79277000Y-71981000D02*
X75100000Y-71981000D01*
X78221000Y-73301000D02*
X69099000Y-73301000D01*
X78895000Y-72541000D02*
X68425000Y-72541000D01*
X72220000Y-71221000D02*
X67646000Y-71221000D01*
X72220000Y-71941000D02*
X68019000Y-71941000D01*
X78094000Y-73421000D02*
X69226000Y-73421000D01*
X78925000Y-72501000D02*
X68395000Y-72501000D01*
X80223000Y-69020000D02*
X67097000Y-69020000D01*
X76144000Y-74661000D02*
X71176000Y-74661000D01*
X72220000Y-70621000D02*
X67415000Y-70621000D01*
X72220000Y-71781000D02*
X67927000Y-71781000D01*
X79324000Y-71901000D02*
X75100000Y-71901000D01*
X72220000Y-72461000D02*
X68365000Y-72461000D01*
X77614000Y-73821000D02*
X69706000Y-73821000D01*
X72220000Y-70061000D02*
X67256000Y-70061000D01*
X77393000Y-73981000D02*
X69927000Y-73981000D01*
X79176000Y-72141000D02*
X75100000Y-72141000D01*
X78137000Y-73381000D02*
X69183000Y-73381000D01*
X80044000Y-70141000D02*
X75100000Y-70141000D01*
X79480000Y-71621000D02*
X75100000Y-71621000D01*
X80240000Y-68620000D02*
X67080000Y-68620000D01*
X77666000Y-73781000D02*
X69654000Y-73781000D01*
X79348000Y-71861000D02*
X75100000Y-71861000D01*
X80099000Y-69901000D02*
X75100000Y-69901000D01*
X72220000Y-70541000D02*
X67389000Y-70541000D01*
X79774000Y-70981000D02*
X75100000Y-70981000D01*
X79013000Y-72381000D02*
X75100000Y-72381000D01*
X80013000Y-70261000D02*
X75100000Y-70261000D01*
X72220000Y-70861000D02*
X67499000Y-70861000D01*
X79968000Y-70421000D02*
X75100000Y-70421000D01*
X76330000Y-74581000D02*
X70990000Y-74581000D01*
X80091000Y-69941000D02*
X75100000Y-69941000D01*
X72220000Y-71861000D02*
X67972000Y-71861000D01*
X79790000Y-70941000D02*
X75100000Y-70941000D01*
X72220000Y-71661000D02*
X67861000Y-71661000D01*
X77214000Y-74101000D02*
X70106000Y-74101000D01*
X72220000Y-69821000D02*
X67204000Y-69821000D01*
X72220000Y-70461000D02*
X67364000Y-70461000D01*
X79438000Y-71701000D02*
X75100000Y-71701000D01*
X72220000Y-70221000D02*
X67296000Y-70221000D01*
X74135000Y-75141000D02*
X73185000Y-75141000D01*
X79542000Y-71501000D02*
X75100000Y-71501000D01*
X72220000Y-72301000D02*
X68251000Y-72301000D01*
X75458000Y-74901000D02*
X71862000Y-74901000D01*
X78262000Y-73261000D02*
X69058000Y-73261000D01*
X79821000Y-70861000D02*
X75100000Y-70861000D01*
X79522000Y-71541000D02*
X75100000Y-71541000D01*
X72220000Y-70021000D02*
X67247000Y-70021000D01*
X72220000Y-70141000D02*
X67276000Y-70141000D01*
X79742000Y-71061000D02*
X75100000Y-71061000D01*
X80138000Y-69701000D02*
X75100000Y-69701000D01*
X72220000Y-71421000D02*
X67739000Y-71421000D01*
X72220000Y-71101000D02*
X67595000Y-71101000D01*
X77768000Y-73701000D02*
X69552000Y-73701000D01*
X72220000Y-71301000D02*
X67682000Y-71301000D01*
X80239000Y-68660000D02*
X67081000Y-68660000D01*
X80165000Y-69541000D02*
X67155000Y-69541000D01*
X78671000Y-72821000D02*
X68649000Y-72821000D01*
X72220000Y-71141000D02*
X67611000Y-71141000D01*
X78303000Y-73221000D02*
X69017000Y-73221000D01*
X79674000Y-71221000D02*
X75100000Y-71221000D01*
X76662000Y-74421000D02*
X70658000Y-74421000D01*
X79758000Y-71021000D02*
X75100000Y-71021000D01*
X72220000Y-72181000D02*
X68170000Y-72181000D01*
X76812000Y-74341000D02*
X70508000Y-74341000D01*
X78005000Y-73501000D02*
X69315000Y-73501000D01*
X80217000Y-69100000D02*
X67103000Y-69100000D01*
X80187000Y-69381000D02*
X67133000Y-69381000D01*
X79931000Y-70541000D02*
X75100000Y-70541000D01*
X79991000Y-70341000D02*
X75100000Y-70341000D01*
X80145000Y-69661000D02*
X75100000Y-69661000D01*
X77275000Y-74061000D02*
X70045000Y-74061000D01*
X78955000Y-72461000D02*
X75100000Y-72461000D01*
X72220000Y-71581000D02*
X67819000Y-71581000D01*
X79301000Y-71941000D02*
X75100000Y-71941000D01*
X72220000Y-69741000D02*
X67189000Y-69741000D01*
X78457000Y-73061000D02*
X68863000Y-73061000D01*
X77335000Y-74021000D02*
X69985000Y-74021000D01*
X80197000Y-69301000D02*
X67123000Y-69301000D01*
X79459000Y-71661000D02*
X75100000Y-71661000D01*
X80239000Y-68700000D02*
X67081000Y-68700000D01*
X79944000Y-70501000D02*
X75100000Y-70501000D01*
X75831000Y-74781000D02*
X71489000Y-74781000D01*
X80209000Y-69180000D02*
X67111000Y-69180000D01*
X80228000Y-68940000D02*
X67092000Y-68940000D01*
X77506000Y-73901000D02*
X69814000Y-73901000D01*
X80131000Y-69741000D02*
X75100000Y-69741000D01*
X80054000Y-70101000D02*
X75100000Y-70101000D01*
X78704000Y-72781000D02*
X68616000Y-72781000D01*
X79371000Y-71821000D02*
X75100000Y-71821000D01*
X78984000Y-72421000D02*
X75100000Y-72421000D01*
X80213000Y-69140000D02*
X67107000Y-69140000D01*
X72220000Y-70341000D02*
X67329000Y-70341000D01*
X72220000Y-69861000D02*
X67212000Y-69861000D01*
X77560000Y-73861000D02*
X69760000Y-73861000D01*
X78050000Y-73461000D02*
X69270000Y-73461000D01*
X80082000Y-69981000D02*
X75100000Y-69981000D01*
X72220000Y-70581000D02*
X67402000Y-70581000D01*
X78567000Y-72941000D02*
X68753000Y-72941000D01*
X72220000Y-69981000D02*
X67238000Y-69981000D01*
X72220000Y-71981000D02*
X68043000Y-71981000D01*
X77021000Y-74221000D02*
X70299000Y-74221000D01*
X80192000Y-69341000D02*
X67128000Y-69341000D01*
X80171000Y-69501000D02*
X67149000Y-69501000D01*
X72220000Y-70981000D02*
X67546000Y-70981000D01*
X72220000Y-69701000D02*
X67182000Y-69701000D01*
X80116000Y-69821000D02*
X75100000Y-69821000D01*
X72220000Y-70101000D02*
X67266000Y-70101000D01*
X74975000Y-75021000D02*
X72345000Y-75021000D01*
X79041000Y-72341000D02*
X75100000Y-72341000D01*
X80201000Y-69261000D02*
X67119000Y-69261000D01*
X80024000Y-70221000D02*
X75100000Y-70221000D01*
X79850000Y-70781000D02*
X75100000Y-70781000D01*
X72220000Y-71381000D02*
X67720000Y-71381000D01*
X72220000Y-70501000D02*
X67376000Y-70501000D01*
X80280000Y-68540000D02*
G75*
G03*
X80280000Y-68540000I-6620000J0D01*
G01*
%TO.C,U1*%
X54317900Y-93408500D02*
X58610500Y-93408500D01*
X55410100Y-93891100D02*
X55410100Y-95516700D01*
X52362100Y-95161100D02*
X54317900Y-95161100D01*
X56349900Y-93891100D02*
X56349900Y-95516700D01*
X51269900Y-93891100D02*
X51269900Y-95516700D01*
X52362100Y-93408500D02*
X52362100Y-95161100D01*
X58610500Y-93408500D02*
X58610500Y-91032949D01*
X48069500Y-93408500D02*
X52362100Y-93408500D01*
X50330100Y-93891100D02*
X50330100Y-95516700D01*
X48069500Y-91032949D02*
X48069500Y-93408500D01*
X54317900Y-95161100D02*
X54317900Y-93408500D01*
%TO.C,L2*%
X52556701Y-49720000D02*
G75*
G03*
X64443299Y-49720000I5943299J1460000D01*
G01*
X64443299Y-46800000D02*
G75*
G03*
X52556701Y-46800000I-5943299J-1460000D01*
G01*
%TO.C,R2*%
X75465000Y-119607064D02*
X75465000Y-119152936D01*
X76935000Y-119607064D02*
X76935000Y-119152936D01*
%TO.C,R3*%
X86132936Y-108485000D02*
X86587064Y-108485000D01*
X86132936Y-109955000D02*
X86587064Y-109955000D01*
%TO.C,L3*%
X71903299Y-112840000D02*
G75*
G03*
X60016701Y-112840000I-5943299J-1460000D01*
G01*
X60016701Y-115760000D02*
G75*
G03*
X71903299Y-115760000I5943299J1460000D01*
G01*
%TO.C,D1*%
X89895000Y-107970000D02*
X92985000Y-107970000D01*
X92984830Y-107970000D02*
G75*
G03*
X91439538Y-102420000I-1544830J2560000D01*
G01*
X91440462Y-102420000D02*
G75*
G03*
X89895170Y-107970000I-462J-2990000D01*
G01*
X93940000Y-105410000D02*
G75*
G03*
X93940000Y-105410000I-2500000J0D01*
G01*
%TO.C,L1*%
X71903299Y-92520000D02*
G75*
G03*
X60016701Y-92520000I-5943299J-1460000D01*
G01*
X60016701Y-95440000D02*
G75*
G03*
X71903299Y-95440000I5943299J1460000D01*
G01*
%TO.C,C18*%
X42645000Y-104401252D02*
X42645000Y-103878748D01*
X41175000Y-104401252D02*
X41175000Y-103878748D01*
%TO.C,R4*%
X35787064Y-55145000D02*
X35332936Y-55145000D01*
X35787064Y-56615000D02*
X35332936Y-56615000D01*
%TO.C,R7*%
X85625000Y-119152936D02*
X85625000Y-119607064D01*
X87095000Y-119152936D02*
X87095000Y-119607064D01*
%TO.C,C1*%
X79475000Y-114038748D02*
X79475000Y-114561252D01*
X78005000Y-114038748D02*
X78005000Y-114561252D01*
%TD*%
M02*
