%TF.GenerationSoftware,KiCad,Pcbnew,(6.0.1)*%
%TF.CreationDate,2022-02-20T14:47:32+01:00*%
%TF.ProjectId,PSU,5053552e-6b69-4636-9164-5f7063625858,rev?*%
%TF.SameCoordinates,Original*%
%TF.FileFunction,Soldermask,Top*%
%TF.FilePolarity,Negative*%
%FSLAX46Y46*%
G04 Gerber Fmt 4.6, Leading zero omitted, Abs format (unit mm)*
G04 Created by KiCad (PCBNEW (6.0.1)) date 2022-02-20 14:47:32*
%MOMM*%
%LPD*%
G01*
G04 APERTURE LIST*
G04 Aperture macros list*
%AMRoundRect*
0 Rectangle with rounded corners*
0 $1 Rounding radius*
0 $2 $3 $4 $5 $6 $7 $8 $9 X,Y pos of 4 corners*
0 Add a 4 corners polygon primitive as box body*
4,1,4,$2,$3,$4,$5,$6,$7,$8,$9,$2,$3,0*
0 Add four circle primitives for the rounded corners*
1,1,$1+$1,$2,$3*
1,1,$1+$1,$4,$5*
1,1,$1+$1,$6,$7*
1,1,$1+$1,$8,$9*
0 Add four rect primitives between the rounded corners*
20,1,$1+$1,$2,$3,$4,$5,0*
20,1,$1+$1,$4,$5,$6,$7,0*
20,1,$1+$1,$6,$7,$8,$9,0*
20,1,$1+$1,$8,$9,$2,$3,0*%
G04 Aperture macros list end*
%ADD10RoundRect,0.250001X-1.099999X-1.099999X1.099999X-1.099999X1.099999X1.099999X-1.099999X1.099999X0*%
%ADD11C,2.700000*%
%ADD12RoundRect,0.250000X0.475000X-0.250000X0.475000X0.250000X-0.475000X0.250000X-0.475000X-0.250000X0*%
%ADD13RoundRect,0.250000X-0.475000X0.250000X-0.475000X-0.250000X0.475000X-0.250000X0.475000X0.250000X0*%
%ADD14RoundRect,0.250000X0.450000X-0.262500X0.450000X0.262500X-0.450000X0.262500X-0.450000X-0.262500X0*%
%ADD15R,2.400000X2.400000*%
%ADD16C,2.400000*%
%ADD17R,3.960000X1.980000*%
%ADD18O,3.960000X1.980000*%
%ADD19R,0.990600X2.997200*%
%ADD20R,10.337800X8.712200*%
%ADD21RoundRect,0.250000X-0.250000X-0.475000X0.250000X-0.475000X0.250000X0.475000X-0.250000X0.475000X0*%
%ADD22R,1.270000X1.270000*%
%ADD23C,1.270000*%
%ADD24RoundRect,0.250000X0.262500X0.450000X-0.262500X0.450000X-0.262500X-0.450000X0.262500X-0.450000X0*%
%ADD25RoundRect,0.250000X-0.450000X0.262500X-0.450000X-0.262500X0.450000X-0.262500X0.450000X0.262500X0*%
%ADD26R,1.778000X1.778000*%
%ADD27C,1.778000*%
%ADD28RoundRect,0.250001X-1.099999X1.099999X-1.099999X-1.099999X1.099999X-1.099999X1.099999X1.099999X0*%
%ADD29C,2.300000*%
%ADD30R,1.800000X1.800000*%
%ADD31C,1.800000*%
%ADD32RoundRect,0.250000X-0.262500X-0.450000X0.262500X-0.450000X0.262500X0.450000X-0.262500X0.450000X0*%
G04 APERTURE END LIST*
D10*
%TO.C,SW1*%
X43180000Y-20320000D03*
D11*
X47140000Y-20320000D03*
%TD*%
D12*
%TO.C,C5*%
X41910000Y-86360000D03*
X41910000Y-84460000D03*
%TD*%
D13*
%TO.C,C15*%
X93980000Y-113350000D03*
X93980000Y-115250000D03*
%TD*%
D14*
%TO.C,R11*%
X34290000Y-122832500D03*
X34290000Y-121007500D03*
%TD*%
D15*
%TO.C,C3*%
X76200000Y-81280000D03*
D16*
X76200000Y-86280000D03*
%TD*%
D17*
%TO.C,J1*%
X25400000Y-23320000D03*
D18*
X25400000Y-28320000D03*
%TD*%
D16*
%TO.C,L4*%
X53340000Y-68580000D03*
X63340000Y-68580000D03*
%TD*%
D13*
%TO.C,C25*%
X36830000Y-120970000D03*
X36830000Y-122870000D03*
%TD*%
D15*
%TO.C,C23*%
X88900000Y-30940000D03*
D16*
X88900000Y-35940000D03*
%TD*%
D14*
%TO.C,R5*%
X34290000Y-105052500D03*
X34290000Y-103227500D03*
%TD*%
D19*
%TO.C,U4*%
X50800000Y-117690900D03*
X55880000Y-117690900D03*
D20*
X53340000Y-106680000D03*
%TD*%
D13*
%TO.C,C12*%
X36830000Y-103190000D03*
X36830000Y-105090000D03*
%TD*%
D21*
%TO.C,C24*%
X16830000Y-60960000D03*
X18730000Y-60960000D03*
%TD*%
D22*
%TO.C,CR2*%
X41910000Y-109220000D03*
D23*
X39370000Y-109220000D03*
X36830000Y-109220000D03*
X34290000Y-109220000D03*
X31750000Y-109220000D03*
X29210000Y-109220000D03*
X26670000Y-109220000D03*
X24130000Y-109220000D03*
X21590000Y-109220000D03*
X19050000Y-109220000D03*
X19050000Y-116840000D03*
X21590000Y-116840000D03*
X24130000Y-116840000D03*
X26670000Y-116840000D03*
X29210000Y-116840000D03*
X31750000Y-116840000D03*
X34290000Y-116840000D03*
X36830000Y-116840000D03*
X39370000Y-116840000D03*
X41910000Y-116840000D03*
%TD*%
D14*
%TO.C,R1*%
X73660000Y-115212500D03*
X73660000Y-113387500D03*
%TD*%
D12*
%TO.C,C17*%
X96520000Y-120330000D03*
X96520000Y-118430000D03*
%TD*%
D19*
%TO.C,U5*%
X43180000Y-77050900D03*
X48260000Y-77050900D03*
D20*
X45720000Y-66040000D03*
%TD*%
D15*
%TO.C,C10*%
X58420000Y-30940000D03*
D16*
X58420000Y-35940000D03*
%TD*%
D21*
%TO.C,C11*%
X16830000Y-35560000D03*
X18730000Y-35560000D03*
%TD*%
D17*
%TO.C,J5*%
X88900000Y-53340000D03*
D18*
X88900000Y-48340000D03*
%TD*%
D13*
%TO.C,C7*%
X35560000Y-47310000D03*
X35560000Y-49210000D03*
%TD*%
D22*
%TO.C,CR1*%
X41910000Y-90170000D03*
D23*
X39370000Y-90170000D03*
X36830000Y-90170000D03*
X34290000Y-90170000D03*
X31750000Y-90170000D03*
X29210000Y-90170000D03*
X26670000Y-90170000D03*
X24130000Y-90170000D03*
X21590000Y-90170000D03*
X19050000Y-90170000D03*
X19050000Y-97790000D03*
X21590000Y-97790000D03*
X24130000Y-97790000D03*
X26670000Y-97790000D03*
X29210000Y-97790000D03*
X31750000Y-97790000D03*
X34290000Y-97790000D03*
X36830000Y-97790000D03*
X39370000Y-97790000D03*
X41910000Y-97790000D03*
%TD*%
D13*
%TO.C,C20*%
X35560000Y-72710000D03*
X35560000Y-74610000D03*
%TD*%
D24*
%TO.C,R6*%
X18692500Y-45720000D03*
X16867500Y-45720000D03*
%TD*%
D15*
%TO.C,C16*%
X78740000Y-101600000D03*
D16*
X78740000Y-106600000D03*
%TD*%
D25*
%TO.C,R8*%
X91440000Y-118467500D03*
X91440000Y-120292500D03*
%TD*%
D26*
%TO.C,U6*%
X30480000Y-81280000D03*
D27*
X25400000Y-80010000D03*
X30480000Y-78740000D03*
X25400000Y-77470000D03*
X30480000Y-76200000D03*
X25400000Y-74930000D03*
X30480000Y-73660000D03*
X25400000Y-72390000D03*
X30480000Y-71120000D03*
X25400000Y-69850000D03*
X30480000Y-68580000D03*
X25400000Y-67310000D03*
X30480000Y-66040000D03*
X25400000Y-64770000D03*
X30480000Y-63500000D03*
%TD*%
D24*
%TO.C,R12*%
X18692500Y-71120000D03*
X16867500Y-71120000D03*
%TD*%
D15*
%TO.C,C9*%
X43180000Y-30940000D03*
D16*
X43180000Y-35940000D03*
%TD*%
D12*
%TO.C,C14*%
X81280000Y-120330000D03*
X81280000Y-118430000D03*
%TD*%
D25*
%TO.C,R9*%
X96520000Y-113387500D03*
X96520000Y-115212500D03*
%TD*%
D12*
%TO.C,C26*%
X17780000Y-66990000D03*
X17780000Y-65090000D03*
%TD*%
D28*
%TO.C,EMER_STOP1*%
X91440000Y-68580000D03*
D11*
X91440000Y-72540000D03*
%TD*%
D13*
%TO.C,C4*%
X88900000Y-113350000D03*
X88900000Y-115250000D03*
%TD*%
D14*
%TO.C,R14*%
X83820000Y-66952500D03*
X83820000Y-65127500D03*
%TD*%
D29*
%TO.C,F1*%
X53220000Y-22860000D03*
X58420000Y-22860000D03*
X73720000Y-22860000D03*
X68520000Y-22860000D03*
%TD*%
D26*
%TO.C,U3*%
X30480000Y-55880000D03*
D27*
X25400000Y-54610000D03*
X30480000Y-53340000D03*
X25400000Y-52070000D03*
X30480000Y-50800000D03*
X25400000Y-49530000D03*
X30480000Y-48260000D03*
X25400000Y-46990000D03*
X30480000Y-45720000D03*
X25400000Y-44450000D03*
X30480000Y-43180000D03*
X25400000Y-41910000D03*
X30480000Y-40640000D03*
X25400000Y-39370000D03*
X30480000Y-38100000D03*
%TD*%
D15*
%TO.C,C8*%
X73660000Y-45720000D03*
D16*
X73660000Y-50720000D03*
%TD*%
D17*
%TO.C,J3*%
X91440000Y-93900000D03*
D18*
X91440000Y-88900000D03*
%TD*%
D21*
%TO.C,C19*%
X16830000Y-81280000D03*
X18730000Y-81280000D03*
%TD*%
D30*
%TO.C,D2*%
X83820000Y-60960000D03*
D31*
X83820000Y-58420000D03*
%TD*%
D19*
%TO.C,U2*%
X43180000Y-56730900D03*
X48260000Y-56730900D03*
D20*
X45720000Y-45720000D03*
%TD*%
D24*
%TO.C,R10*%
X36472500Y-81280000D03*
X34647500Y-81280000D03*
%TD*%
D15*
%TO.C,C22*%
X73660000Y-30940000D03*
D16*
X73660000Y-35940000D03*
%TD*%
D14*
%TO.C,R13*%
X91440000Y-99972500D03*
X91440000Y-98147500D03*
%TD*%
D21*
%TO.C,C6*%
X16830000Y-55880000D03*
X18730000Y-55880000D03*
%TD*%
D13*
%TO.C,C2*%
X83820000Y-113350000D03*
X83820000Y-115250000D03*
%TD*%
D12*
%TO.C,C13*%
X17780000Y-41590000D03*
X17780000Y-39690000D03*
%TD*%
D15*
%TO.C,C21*%
X73660000Y-66040000D03*
D16*
X73660000Y-71040000D03*
%TD*%
D19*
%TO.C,U1*%
X50800000Y-97370900D03*
X55880000Y-97370900D03*
D20*
X53340000Y-86360000D03*
%TD*%
D16*
%TO.C,L2*%
X53500000Y-48260000D03*
X63500000Y-48260000D03*
%TD*%
D14*
%TO.C,R2*%
X76200000Y-120292500D03*
X76200000Y-118467500D03*
%TD*%
D32*
%TO.C,R3*%
X85447500Y-109220000D03*
X87272500Y-109220000D03*
%TD*%
D16*
%TO.C,L3*%
X70960000Y-114300000D03*
X60960000Y-114300000D03*
%TD*%
D30*
%TO.C,D1*%
X91440000Y-106680000D03*
D31*
X91440000Y-104140000D03*
%TD*%
D16*
%TO.C,L1*%
X70960000Y-93980000D03*
X60960000Y-93980000D03*
%TD*%
D12*
%TO.C,C18*%
X41910000Y-105090000D03*
X41910000Y-103190000D03*
%TD*%
D24*
%TO.C,R4*%
X36472500Y-55880000D03*
X34647500Y-55880000D03*
%TD*%
D25*
%TO.C,R7*%
X86360000Y-118467500D03*
X86360000Y-120292500D03*
%TD*%
D13*
%TO.C,C1*%
X78740000Y-113350000D03*
X78740000Y-115250000D03*
%TD*%
M02*
