M48
; DRILL file {KiCad (6.0.1)} date Wed Feb 23 20:14:43 2022
; FORMAT={-:-/ absolute / metric / decimal}
; #@! TF.CreationDate,2022-02-23T20:14:43+01:00
; #@! TF.GenerationSoftware,Kicad,Pcbnew,(6.0.1)
; #@! TF.FileFunction,Plated,1,2,PTH
FMAT,2
METRIC
; #@! TA.AperFunction,Plated,PTH,ViaDrill
T1C0.400
; #@! TA.AperFunction,Plated,PTH,ComponentDrill
T2C0.762
; #@! TA.AperFunction,Plated,PTH,ComponentDrill
T3C0.900
; #@! TA.AperFunction,Plated,PTH,ComponentDrill
T4C1.200
; #@! TA.AperFunction,Plated,PTH,ComponentDrill
T5C1.270
; #@! TA.AperFunction,Plated,PTH,ComponentDrill
T6C1.300
; #@! TA.AperFunction,Plated,PTH,ComponentDrill
T7C1.320
; #@! TA.AperFunction,Plated,PTH,ComponentDrill
T8C1.700
%
G90
G05
T1
X17.78Y-76.2
X20.32Y-104.14
X22.86Y-35.56
X22.86Y-40.64
X22.86Y-66.04
X22.86Y-86.36
X30.48Y-111.76
X33.02Y-73.66
X34.87Y-53.34
X35.56Y-68.58
X38.1Y-40.64
X38.1Y-83.82
X44.77Y-122.87
X45.72Y-82.26
X45.72Y-109.22
X45.72Y-116.84
X55.88Y-73.66
X60.96Y-58.42
X60.96Y-109.22
X63.5Y-78.74
X63.5Y-121.92
X68.58Y-111.76
X68.58Y-116.84
X71.12Y-114.3
X73.66Y-109.22
X73.66Y-119.38
X78.74Y-121.92
X81.28Y-116.84
X86.36Y-111.76
X93.98Y-109.22
T2
X19.05Y-90.17
X19.05Y-97.79
X19.05Y-109.22
X19.05Y-116.84
X21.59Y-90.17
X21.59Y-97.79
X21.59Y-109.22
X21.59Y-116.84
X24.13Y-90.17
X24.13Y-97.79
X24.13Y-109.22
X24.13Y-116.84
X26.67Y-90.17
X26.67Y-97.79
X26.67Y-109.22
X26.67Y-116.84
X29.21Y-90.17
X29.21Y-97.79
X29.21Y-109.22
X29.21Y-116.84
X31.75Y-90.17
X31.75Y-97.79
X31.75Y-109.22
X31.75Y-116.84
X34.29Y-90.17
X34.29Y-97.79
X34.29Y-109.22
X34.29Y-116.84
X36.83Y-90.17
X36.83Y-97.79
X36.83Y-109.22
X36.83Y-116.84
X39.37Y-90.17
X39.37Y-97.79
X39.37Y-109.22
X39.37Y-116.84
X41.91Y-90.17
X41.91Y-97.79
X41.91Y-109.22
X41.91Y-116.84
T3
X83.82Y-58.42
X83.82Y-60.96
X91.44Y-104.14
X91.44Y-106.68
T4
X43.18Y-30.94
X43.18Y-35.94
X53.5Y-53.34
X58.42Y-30.94
X58.42Y-35.94
X58.5Y-66.2
X58.5Y-76.2
X60.96Y-93.98
X63.5Y-53.34
X66.04Y-109.38
X66.04Y-119.38
X70.96Y-93.98
X73.66Y-30.94
X73.66Y-35.94
X73.66Y-45.72
X73.66Y-50.72
X73.66Y-60.96
X73.66Y-65.96
X76.2Y-81.28
X76.2Y-86.28
X78.74Y-101.6
X78.74Y-106.6
X88.9Y-30.94
X88.9Y-35.94
T5
X25.4Y-39.37
X25.4Y-41.91
X25.4Y-44.45
X25.4Y-46.99
X25.4Y-49.53
X25.4Y-52.07
X25.4Y-54.61
X25.4Y-64.77
X25.4Y-67.31
X25.4Y-69.85
X25.4Y-72.39
X25.4Y-74.93
X25.4Y-77.47
X25.4Y-80.01
X30.48Y-38.1
X30.48Y-40.64
X30.48Y-43.18
X30.48Y-45.72
X30.48Y-48.26
X30.48Y-50.8
X30.48Y-53.34
X30.48Y-55.88
X30.48Y-63.5
X30.48Y-66.04
X30.48Y-68.58
X30.48Y-71.12
X30.48Y-73.66
X30.48Y-76.2
X30.48Y-78.74
X30.48Y-81.28
T6
X53.22Y-22.86
X58.42Y-22.86
X68.52Y-22.86
X73.72Y-22.86
T7
X27.94Y-23.32
X27.94Y-28.32
X88.9Y-48.34
X88.9Y-53.34
X91.44Y-88.9
X91.44Y-93.9
T8
X43.18Y-20.32
X47.14Y-20.32
X91.44Y-68.58
X91.44Y-72.54
T0
M30
