%TF.GenerationSoftware,KiCad,Pcbnew,(6.0.1)*%
%TF.CreationDate,2022-02-19T17:03:56+01:00*%
%TF.ProjectId,PSU,5053552e-6b69-4636-9164-5f7063625858,rev?*%
%TF.SameCoordinates,Original*%
%TF.FileFunction,Copper,L2,Bot*%
%TF.FilePolarity,Positive*%
%FSLAX46Y46*%
G04 Gerber Fmt 4.6, Leading zero omitted, Abs format (unit mm)*
G04 Created by KiCad (PCBNEW (6.0.1)) date 2022-02-19 17:03:56*
%MOMM*%
%LPD*%
G01*
G04 APERTURE LIST*
G04 Aperture macros list*
%AMRoundRect*
0 Rectangle with rounded corners*
0 $1 Rounding radius*
0 $2 $3 $4 $5 $6 $7 $8 $9 X,Y pos of 4 corners*
0 Add a 4 corners polygon primitive as box body*
4,1,4,$2,$3,$4,$5,$6,$7,$8,$9,$2,$3,0*
0 Add four circle primitives for the rounded corners*
1,1,$1+$1,$2,$3*
1,1,$1+$1,$4,$5*
1,1,$1+$1,$6,$7*
1,1,$1+$1,$8,$9*
0 Add four rect primitives between the rounded corners*
20,1,$1+$1,$2,$3,$4,$5,0*
20,1,$1+$1,$4,$5,$6,$7,0*
20,1,$1+$1,$6,$7,$8,$9,0*
20,1,$1+$1,$8,$9,$2,$3,0*%
G04 Aperture macros list end*
%TA.AperFunction,ComponentPad*%
%ADD10C,1.800000*%
%TD*%
%TA.AperFunction,ComponentPad*%
%ADD11R,1.800000X1.800000*%
%TD*%
%TA.AperFunction,ComponentPad*%
%ADD12R,1.778000X1.778000*%
%TD*%
%TA.AperFunction,ComponentPad*%
%ADD13C,1.778000*%
%TD*%
%TA.AperFunction,ComponentPad*%
%ADD14C,2.400000*%
%TD*%
%TA.AperFunction,ComponentPad*%
%ADD15O,3.960000X1.980000*%
%TD*%
%TA.AperFunction,ComponentPad*%
%ADD16R,3.960000X1.980000*%
%TD*%
%TA.AperFunction,ComponentPad*%
%ADD17C,2.300000*%
%TD*%
%TA.AperFunction,ComponentPad*%
%ADD18C,2.700000*%
%TD*%
%TA.AperFunction,ComponentPad*%
%ADD19RoundRect,0.250001X-1.099999X1.099999X-1.099999X-1.099999X1.099999X-1.099999X1.099999X1.099999X0*%
%TD*%
%TA.AperFunction,ComponentPad*%
%ADD20R,1.270000X1.270000*%
%TD*%
%TA.AperFunction,ComponentPad*%
%ADD21C,1.270000*%
%TD*%
%TA.AperFunction,ComponentPad*%
%ADD22R,2.400000X2.400000*%
%TD*%
%TA.AperFunction,ViaPad*%
%ADD23C,0.800000*%
%TD*%
%TA.AperFunction,Conductor*%
%ADD24C,2.000000*%
%TD*%
%TA.AperFunction,Conductor*%
%ADD25C,0.250000*%
%TD*%
G04 APERTURE END LIST*
D10*
%TO.P,D2,2,A*%
%TO.N,+5V*%
X83820000Y-58420000D03*
D11*
%TO.P,D2,1,K*%
%TO.N,Net-(D2-Pad1)*%
X83820000Y-60960000D03*
%TD*%
%TO.P,D1,1,K*%
%TO.N,GND*%
X91440000Y-106680000D03*
D10*
%TO.P,D1,2,A*%
%TO.N,Net-(D1-Pad2)*%
X91440000Y-104140000D03*
%TD*%
D12*
%TO.P,U6,1,R_OSC*%
%TO.N,Net-(R10-Pad2)*%
X30480000Y-81280000D03*
D13*
%TO.P,U6,2,C_OSC*%
%TO.N,Net-(C19-Pad2)*%
X25400000Y-80010000D03*
%TO.P,U6,3,RST*%
%TO.N,GND*%
X30480000Y-78740000D03*
%TO.P,U6,4,RST_OUT*%
%TO.N,unconnected-(U6-Pad4)*%
X25400000Y-77470000D03*
%TO.P,U6,5,RST_DLY*%
%TO.N,unconnected-(U6-Pad5)*%
X30480000Y-76200000D03*
%TO.P,U6,6,BOOT*%
%TO.N,Net-(C20-Pad2)*%
X25400000Y-74930000D03*
%TO.P,U6,7,OUT*%
%TO.N,/5VOUTPREIND*%
X30480000Y-73660000D03*
%TO.P,U6,8,GND*%
%TO.N,GND*%
X25400000Y-72390000D03*
%TO.P,U6,9,VI*%
%TO.N,+24V*%
X30480000Y-71120000D03*
%TO.P,U6,10,FCOMP*%
%TO.N,Net-(C26-Pad1)*%
X25400000Y-69850000D03*
%TO.P,U6,11,FB*%
%TO.N,+5V*%
X30480000Y-68580000D03*
%TO.P,U6,12,SS*%
%TO.N,unconnected-(U6-Pad12)*%
X25400000Y-67310000D03*
%TO.P,U6,13,SYNC*%
%TO.N,Net-(CR2-Pad10)*%
X30480000Y-66040000D03*
%TO.P,U6,14,VREF*%
%TO.N,unconnected-(U6-Pad14)*%
X25400000Y-64770000D03*
%TO.P,U6,15,VSTART*%
%TO.N,unconnected-(U6-Pad15)*%
X30480000Y-63500000D03*
%TD*%
D12*
%TO.P,U3,1,R_OSC*%
%TO.N,Net-(R4-Pad2)*%
X30480000Y-55880000D03*
D13*
%TO.P,U3,2,C_OSC*%
%TO.N,Net-(C6-Pad2)*%
X25400000Y-54610000D03*
%TO.P,U3,3,RST*%
%TO.N,GND*%
X30480000Y-53340000D03*
%TO.P,U3,4,RST_OUT*%
%TO.N,unconnected-(U3-Pad4)*%
X25400000Y-52070000D03*
%TO.P,U3,5,RST_DLY*%
%TO.N,unconnected-(U3-Pad5)*%
X30480000Y-50800000D03*
%TO.P,U3,6,BOOT*%
%TO.N,Net-(C7-Pad2)*%
X25400000Y-49530000D03*
%TO.P,U3,7,OUT*%
%TO.N,/5VOUTPREIND*%
X30480000Y-48260000D03*
%TO.P,U3,8,GND*%
%TO.N,GND*%
X25400000Y-46990000D03*
%TO.P,U3,9,VI*%
%TO.N,+24V*%
X30480000Y-45720000D03*
%TO.P,U3,10,FCOMP*%
%TO.N,Net-(C13-Pad1)*%
X25400000Y-44450000D03*
%TO.P,U3,11,FB*%
%TO.N,+5V*%
X30480000Y-43180000D03*
%TO.P,U3,12,SS*%
%TO.N,unconnected-(U3-Pad12)*%
X25400000Y-41910000D03*
%TO.P,U3,13,SYNC*%
%TO.N,Net-(CR1-Pad10)*%
X30480000Y-40640000D03*
%TO.P,U3,14,VREF*%
%TO.N,unconnected-(U3-Pad14)*%
X25400000Y-39370000D03*
%TO.P,U3,15,VSTART*%
%TO.N,unconnected-(U3-Pad15)*%
X30480000Y-38100000D03*
%TD*%
D14*
%TO.P,L4,2,2*%
%TO.N,+5V*%
X63340000Y-68580000D03*
%TO.P,L4,1,1*%
%TO.N,/5VOUTPREIND*%
X53340000Y-68580000D03*
%TD*%
%TO.P,L3,1,1*%
%TO.N,+12V*%
X70960000Y-114300000D03*
%TO.P,L3,2,2*%
%TO.N,/12VOUTPREIND*%
X60960000Y-114300000D03*
%TD*%
%TO.P,L2,2,2*%
%TO.N,+5V*%
X63500000Y-48260000D03*
%TO.P,L2,1,1*%
%TO.N,/5VOUTPREIND*%
X53500000Y-48260000D03*
%TD*%
%TO.P,L1,2,2*%
%TO.N,/12VOUTPREIND*%
X60960000Y-93980000D03*
%TO.P,L1,1,1*%
%TO.N,+12V*%
X70960000Y-93980000D03*
%TD*%
D15*
%TO.P,J3,2,Pin_2*%
%TO.N,GND*%
X91440000Y-88900000D03*
D16*
%TO.P,J3,1,Pin_1*%
%TO.N,/12VOUTPOSTEMER*%
X91440000Y-93900000D03*
%TD*%
%TO.P,J5,1,Pin_1*%
%TO.N,+5V*%
X88900000Y-53340000D03*
D15*
%TO.P,J5,2,Pin_2*%
%TO.N,GND*%
X88900000Y-48340000D03*
%TD*%
D16*
%TO.P,J1,1,Pin_1*%
%TO.N,/VBAT*%
X25400000Y-23320000D03*
D15*
%TO.P,J1,2,Pin_2*%
%TO.N,GND*%
X25400000Y-28320000D03*
%TD*%
D17*
%TO.P,F1,1*%
%TO.N,/VBAT*%
X40640000Y-22860000D03*
X35440000Y-22860000D03*
%TO.P,F1,2*%
%TO.N,+24V*%
X55940000Y-22860000D03*
X50740000Y-22860000D03*
%TD*%
D18*
%TO.P,EMER_STOP1,2,Pin_2*%
%TO.N,/12VOUTPOSTEMER*%
X91440000Y-72540000D03*
D19*
%TO.P,EMER_STOP1,1,Pin_1*%
%TO.N,+12V*%
X91440000Y-68580000D03*
%TD*%
D20*
%TO.P,CR2,1,BOOTSTRAP*%
%TO.N,Net-(C18-Pad1)*%
X41910000Y-109220000D03*
D21*
%TO.P,CR2,2,RESETDELAY*%
%TO.N,unconnected-(CR2-Pad2)*%
X39370000Y-109220000D03*
%TO.P,CR2,3,RESETOUT*%
%TO.N,unconnected-(CR2-Pad3)*%
X36830000Y-109220000D03*
%TO.P,CR2,4,PFAILINPUT*%
%TO.N,unconnected-(CR2-Pad4)*%
X34290000Y-109220000D03*
%TO.P,CR2,5,GND*%
%TO.N,GND*%
X31750000Y-109220000D03*
%TO.P,CR2,6,GND*%
X29210000Y-109220000D03*
%TO.P,CR2,7,FREQCOMP*%
%TO.N,Net-(C15-Pad1)*%
X26670000Y-109220000D03*
%TO.P,CR2,8,SOFTSTART*%
%TO.N,GND*%
X24130000Y-109220000D03*
%TO.P,CR2,9,FEEDBACKIN*%
%TO.N,Net-(C14-Pad2)*%
X21590000Y-109220000D03*
%TO.P,CR2,10,SYNCINPUT*%
%TO.N,Net-(CR2-Pad10)*%
X19050000Y-109220000D03*
%TO.P,CR2,11,VI*%
%TO.N,+24V*%
X19050000Y-116840000D03*
%TO.P,CR2,12,NC*%
%TO.N,unconnected-(CR2-Pad12)*%
X21590000Y-116840000D03*
%TO.P,CR2,13,VREF*%
%TO.N,unconnected-(CR2-Pad13)*%
X24130000Y-116840000D03*
%TO.P,CR2,14,VSTART*%
%TO.N,unconnected-(CR2-Pad14)*%
X26670000Y-116840000D03*
%TO.P,CR2,15,GND*%
%TO.N,GND*%
X29210000Y-116840000D03*
%TO.P,CR2,16,GND*%
X31750000Y-116840000D03*
%TO.P,CR2,17,ROSC*%
%TO.N,Net-(CR2-Pad17)*%
X34290000Y-116840000D03*
%TO.P,CR2,18,COSC*%
%TO.N,Net-(C25-Pad1)*%
X36830000Y-116840000D03*
%TO.P,CR2,19,NC*%
%TO.N,unconnected-(CR2-Pad19)*%
X39370000Y-116840000D03*
%TO.P,CR2,20,OUTPUT*%
%TO.N,/12VOUTPREIND*%
X41910000Y-116840000D03*
%TD*%
D20*
%TO.P,CR1,1,BOOTSTRAP*%
%TO.N,Net-(C5-Pad1)*%
X41910000Y-90170000D03*
D21*
%TO.P,CR1,2,RESETDELAY*%
%TO.N,unconnected-(CR1-Pad2)*%
X39370000Y-90170000D03*
%TO.P,CR1,3,RESETOUT*%
%TO.N,unconnected-(CR1-Pad3)*%
X36830000Y-90170000D03*
%TO.P,CR1,4,PFAILINPUT*%
%TO.N,unconnected-(CR1-Pad4)*%
X34290000Y-90170000D03*
%TO.P,CR1,5,GND*%
%TO.N,GND*%
X31750000Y-90170000D03*
%TO.P,CR1,6,GND*%
X29210000Y-90170000D03*
%TO.P,CR1,7,FREQCOMP*%
%TO.N,Net-(C2-Pad1)*%
X26670000Y-90170000D03*
%TO.P,CR1,8,SOFTSTART*%
%TO.N,GND*%
X24130000Y-90170000D03*
%TO.P,CR1,9,FEEDBACKIN*%
%TO.N,Net-(C1-Pad2)*%
X21590000Y-90170000D03*
%TO.P,CR1,10,SYNCINPUT*%
%TO.N,Net-(CR1-Pad10)*%
X19050000Y-90170000D03*
%TO.P,CR1,11,VI*%
%TO.N,+24V*%
X19050000Y-97790000D03*
%TO.P,CR1,12,NC*%
%TO.N,unconnected-(CR1-Pad12)*%
X21590000Y-97790000D03*
%TO.P,CR1,13,VREF*%
%TO.N,unconnected-(CR1-Pad13)*%
X24130000Y-97790000D03*
%TO.P,CR1,14,VSTART*%
%TO.N,unconnected-(CR1-Pad14)*%
X26670000Y-97790000D03*
%TO.P,CR1,15,GND*%
%TO.N,GND*%
X29210000Y-97790000D03*
%TO.P,CR1,16,GND*%
X31750000Y-97790000D03*
%TO.P,CR1,17,ROSC*%
%TO.N,Net-(CR1-Pad17)*%
X34290000Y-97790000D03*
%TO.P,CR1,18,COSC*%
%TO.N,Net-(C12-Pad1)*%
X36830000Y-97790000D03*
%TO.P,CR1,19,NC*%
%TO.N,unconnected-(CR1-Pad19)*%
X39370000Y-97790000D03*
%TO.P,CR1,20,OUTPUT*%
%TO.N,/12VOUTPREIND*%
X41910000Y-97790000D03*
%TD*%
D22*
%TO.P,C23,1*%
%TO.N,+24V*%
X88900000Y-30940000D03*
D14*
%TO.P,C23,2*%
%TO.N,GND*%
X88900000Y-35940000D03*
%TD*%
D22*
%TO.P,C22,1*%
%TO.N,+24V*%
X73660000Y-30940000D03*
D14*
%TO.P,C22,2*%
%TO.N,GND*%
X73660000Y-35940000D03*
%TD*%
%TO.P,C21,2*%
%TO.N,GND*%
X73660000Y-71040000D03*
D22*
%TO.P,C21,1*%
%TO.N,+5V*%
X73660000Y-66040000D03*
%TD*%
%TO.P,C16,1*%
%TO.N,+12V*%
X78740000Y-101600000D03*
D14*
%TO.P,C16,2*%
%TO.N,GND*%
X78740000Y-106600000D03*
%TD*%
D22*
%TO.P,C10,1*%
%TO.N,+24V*%
X58420000Y-30940000D03*
D14*
%TO.P,C10,2*%
%TO.N,GND*%
X58420000Y-35940000D03*
%TD*%
D22*
%TO.P,C9,1*%
%TO.N,+24V*%
X43180000Y-30940000D03*
D14*
%TO.P,C9,2*%
%TO.N,GND*%
X43180000Y-35940000D03*
%TD*%
%TO.P,C8,2*%
%TO.N,GND*%
X73660000Y-50720000D03*
D22*
%TO.P,C8,1*%
%TO.N,+5V*%
X73660000Y-45720000D03*
%TD*%
%TO.P,C3,1*%
%TO.N,+12V*%
X76200000Y-81280000D03*
D14*
%TO.P,C3,2*%
%TO.N,GND*%
X76200000Y-86280000D03*
%TD*%
D23*
%TO.N,GND*%
X60960000Y-109220000D03*
X44770000Y-122870000D03*
X22860000Y-86360000D03*
X60960000Y-76200000D03*
%TO.N,Net-(C1-Pad2)*%
X68580000Y-116840000D03*
X68580000Y-111760000D03*
%TO.N,Net-(C15-Pad1)*%
X93980000Y-109220000D03*
%TO.N,Net-(C1-Pad2)*%
X78740000Y-121920000D03*
X81280000Y-116840000D03*
%TO.N,GND*%
X86360000Y-111760000D03*
X73660000Y-119380000D03*
%TO.N,Net-(C15-Pad1)*%
X63500000Y-121920000D03*
%TO.N,Net-(C14-Pad2)*%
X30480000Y-111760000D03*
%TO.N,+24V*%
X20320000Y-104140000D03*
X45720000Y-82260480D03*
%TO.N,GND*%
X22860000Y-66040000D03*
X22860000Y-40640000D03*
%TO.N,+5V*%
X55880000Y-73660000D03*
%TO.N,GND*%
X34869930Y-53340000D03*
X60960000Y-58420000D03*
%TO.N,/5VOUTPREIND*%
X35560000Y-68580000D03*
X33020000Y-73660000D03*
X38100000Y-40640000D03*
%TO.N,GND*%
X22860000Y-35560000D03*
%TO.N,+12V*%
X73660000Y-109220000D03*
%TO.N,Net-(C20-Pad2)*%
X38100000Y-83820000D03*
X17780000Y-76200000D03*
%TD*%
D24*
%TO.N,GND*%
X47310000Y-122870000D02*
X44770000Y-122870000D01*
X60960000Y-109220000D02*
X47310000Y-122870000D01*
X88900000Y-35940000D02*
X73660000Y-35940000D01*
X88900000Y-48340000D02*
X88900000Y-35940000D01*
X81139511Y-91219511D02*
X76200000Y-86280000D01*
X81139511Y-104200489D02*
X81139511Y-91219511D01*
X78740000Y-106600000D02*
X81139511Y-104200489D01*
X24130000Y-87630000D02*
X24130000Y-90170000D01*
X22860000Y-86360000D02*
X24130000Y-87630000D01*
X66047056Y-57110000D02*
X67270000Y-57110000D01*
X43180000Y-35940000D02*
X44877056Y-35940000D01*
X67270000Y-57110000D02*
X73660000Y-50720000D01*
X63460000Y-60920000D02*
X67270000Y-57110000D01*
X44877056Y-35940000D02*
X66047056Y-57110000D01*
X63500000Y-73660000D02*
X60960000Y-73660000D01*
X60960000Y-76200000D02*
X63500000Y-73660000D01*
X66040000Y-73660000D02*
X63500000Y-73660000D01*
D25*
%TO.N,Net-(C1-Pad2)*%
X68580000Y-111760000D02*
X68580000Y-116840000D01*
D24*
%TO.N,GND*%
X78740000Y-109220000D02*
X78740000Y-106600000D01*
X81280000Y-111760000D02*
X78740000Y-109220000D01*
D25*
%TO.N,Net-(C15-Pad1)*%
X81859763Y-113084520D02*
X90115480Y-113084520D01*
X90115480Y-113084520D02*
X93980000Y-109220000D01*
X73024283Y-121920000D02*
X81859763Y-113084520D01*
X63500000Y-121920000D02*
X73024283Y-121920000D01*
%TO.N,Net-(C1-Pad2)*%
X78740000Y-121920000D02*
X78740000Y-116840000D01*
X78740000Y-116840000D02*
X81280000Y-116840000D01*
D24*
%TO.N,GND*%
X81280000Y-111760000D02*
X86360000Y-111760000D01*
X73660000Y-119380000D02*
X81280000Y-111760000D01*
D25*
%TO.N,Net-(C15-Pad1)*%
X63500011Y-121920011D02*
X63500000Y-121920000D01*
%TO.N,Net-(C14-Pad2)*%
X30480000Y-111760000D02*
X24130000Y-111760000D01*
X24130000Y-111760000D02*
X21590000Y-109220000D01*
D24*
%TO.N,+24V*%
X20320000Y-103241975D02*
X21961975Y-101600000D01*
X20320000Y-104140000D02*
X20320000Y-103241975D01*
X19050000Y-98688025D02*
X19050000Y-97790000D01*
X21961975Y-101600000D02*
X19050000Y-98688025D01*
X40694391Y-101600000D02*
X21961975Y-101600000D01*
X45720000Y-96574391D02*
X40694391Y-101600000D01*
X45720000Y-82260480D02*
X45720000Y-96574391D01*
%TO.N,GND*%
X27940000Y-77457235D02*
X29222765Y-78740000D01*
X29222765Y-78740000D02*
X30480000Y-78740000D01*
X27940000Y-73672765D02*
X27940000Y-77457235D01*
X26657235Y-72390000D02*
X27940000Y-73672765D01*
X25400000Y-72390000D02*
X26657235Y-72390000D01*
X22860000Y-71107235D02*
X24142765Y-72390000D01*
X24142765Y-72390000D02*
X25400000Y-72390000D01*
X22860000Y-66040000D02*
X22860000Y-71107235D01*
X22860000Y-45707235D02*
X22860000Y-40640000D01*
X24142765Y-46990000D02*
X22860000Y-45707235D01*
X25400000Y-46990000D02*
X24142765Y-46990000D01*
%TO.N,+5V*%
X43520480Y-66380480D02*
X50800000Y-73660000D01*
X34648929Y-66380480D02*
X43520480Y-66380480D01*
X32449409Y-68580000D02*
X34648929Y-66380480D01*
X50800000Y-73660000D02*
X55880000Y-73660000D01*
X30480000Y-68580000D02*
X32449409Y-68580000D01*
%TO.N,GND*%
X47489930Y-65960000D02*
X58420000Y-65960000D01*
X34869930Y-53340000D02*
X47489930Y-65960000D01*
X60960000Y-58420000D02*
X63460000Y-60920000D01*
X58420000Y-65960000D02*
X63460000Y-60920000D01*
%TO.N,/5VOUTPREIND*%
X35560000Y-71120000D02*
X35560000Y-68580000D01*
X33020000Y-73660000D02*
X35560000Y-71120000D01*
X38100000Y-41897235D02*
X38100000Y-40640000D01*
X31737235Y-48260000D02*
X38100000Y-41897235D01*
X30480000Y-48260000D02*
X31737235Y-48260000D01*
%TO.N,+5V*%
X27940000Y-67297235D02*
X29222765Y-68580000D01*
X27940000Y-44462765D02*
X27940000Y-67297235D01*
X29222765Y-43180000D02*
X27940000Y-44462765D01*
X29222765Y-68580000D02*
X30480000Y-68580000D01*
X30480000Y-43180000D02*
X29222765Y-43180000D01*
%TO.N,GND*%
X58420000Y-71120000D02*
X58420000Y-65960000D01*
X60960000Y-73660000D02*
X58420000Y-71120000D01*
X68660000Y-71040000D02*
X66040000Y-73660000D01*
X73660000Y-71040000D02*
X68660000Y-71040000D01*
X73660000Y-83740000D02*
X73660000Y-71040000D01*
X76200000Y-86280000D02*
X73660000Y-83740000D01*
X33020000Y-35940000D02*
X25400000Y-28320000D01*
X43180000Y-35940000D02*
X33020000Y-35940000D01*
X25400000Y-33020000D02*
X25400000Y-28320000D01*
X22860000Y-35560000D02*
X25400000Y-33020000D01*
%TO.N,+12V*%
X73660000Y-106680000D02*
X78740000Y-101600000D01*
X73660000Y-109220000D02*
X73660000Y-106680000D01*
X70960000Y-111920000D02*
X73660000Y-109220000D01*
X70960000Y-114300000D02*
X70960000Y-111920000D01*
D25*
%TO.N,Net-(C20-Pad2)*%
X35560000Y-86360000D02*
X38100000Y-83820000D01*
X27940000Y-86360000D02*
X35560000Y-86360000D01*
X17780000Y-76200000D02*
X27940000Y-86360000D01*
%TD*%
M02*
