%TF.GenerationSoftware,KiCad,Pcbnew,(6.0.1)*%
%TF.CreationDate,2022-02-19T17:03:56+01:00*%
%TF.ProjectId,PSU,5053552e-6b69-4636-9164-5f7063625858,rev?*%
%TF.SameCoordinates,Original*%
%TF.FileFunction,Copper,L1,Top*%
%TF.FilePolarity,Positive*%
%FSLAX46Y46*%
G04 Gerber Fmt 4.6, Leading zero omitted, Abs format (unit mm)*
G04 Created by KiCad (PCBNEW (6.0.1)) date 2022-02-19 17:03:56*
%MOMM*%
%LPD*%
G01*
G04 APERTURE LIST*
G04 Aperture macros list*
%AMRoundRect*
0 Rectangle with rounded corners*
0 $1 Rounding radius*
0 $2 $3 $4 $5 $6 $7 $8 $9 X,Y pos of 4 corners*
0 Add a 4 corners polygon primitive as box body*
4,1,4,$2,$3,$4,$5,$6,$7,$8,$9,$2,$3,0*
0 Add four circle primitives for the rounded corners*
1,1,$1+$1,$2,$3*
1,1,$1+$1,$4,$5*
1,1,$1+$1,$6,$7*
1,1,$1+$1,$8,$9*
0 Add four rect primitives between the rounded corners*
20,1,$1+$1,$2,$3,$4,$5,0*
20,1,$1+$1,$4,$5,$6,$7,0*
20,1,$1+$1,$6,$7,$8,$9,0*
20,1,$1+$1,$8,$9,$2,$3,0*%
G04 Aperture macros list end*
%TA.AperFunction,SMDPad,CuDef*%
%ADD10RoundRect,0.250000X0.450000X-0.262500X0.450000X0.262500X-0.450000X0.262500X-0.450000X-0.262500X0*%
%TD*%
%TA.AperFunction,ComponentPad*%
%ADD11C,1.800000*%
%TD*%
%TA.AperFunction,ComponentPad*%
%ADD12R,1.800000X1.800000*%
%TD*%
%TA.AperFunction,SMDPad,CuDef*%
%ADD13RoundRect,0.250000X0.262500X0.450000X-0.262500X0.450000X-0.262500X-0.450000X0.262500X-0.450000X0*%
%TD*%
%TA.AperFunction,SMDPad,CuDef*%
%ADD14RoundRect,0.250000X-0.450000X0.262500X-0.450000X-0.262500X0.450000X-0.262500X0.450000X0.262500X0*%
%TD*%
%TA.AperFunction,SMDPad,CuDef*%
%ADD15RoundRect,0.250000X-0.262500X-0.450000X0.262500X-0.450000X0.262500X0.450000X-0.262500X0.450000X0*%
%TD*%
%TA.AperFunction,ComponentPad*%
%ADD16R,1.778000X1.778000*%
%TD*%
%TA.AperFunction,ComponentPad*%
%ADD17C,1.778000*%
%TD*%
%TA.AperFunction,SMDPad,CuDef*%
%ADD18R,0.990600X2.997200*%
%TD*%
%TA.AperFunction,SMDPad,CuDef*%
%ADD19R,10.337800X8.712200*%
%TD*%
%TA.AperFunction,ComponentPad*%
%ADD20C,2.400000*%
%TD*%
%TA.AperFunction,ComponentPad*%
%ADD21O,3.960000X1.980000*%
%TD*%
%TA.AperFunction,ComponentPad*%
%ADD22R,3.960000X1.980000*%
%TD*%
%TA.AperFunction,ComponentPad*%
%ADD23C,2.300000*%
%TD*%
%TA.AperFunction,ComponentPad*%
%ADD24C,2.700000*%
%TD*%
%TA.AperFunction,ComponentPad*%
%ADD25RoundRect,0.250001X-1.099999X1.099999X-1.099999X-1.099999X1.099999X-1.099999X1.099999X1.099999X0*%
%TD*%
%TA.AperFunction,ComponentPad*%
%ADD26R,1.270000X1.270000*%
%TD*%
%TA.AperFunction,ComponentPad*%
%ADD27C,1.270000*%
%TD*%
%TA.AperFunction,SMDPad,CuDef*%
%ADD28RoundRect,0.250000X0.475000X-0.250000X0.475000X0.250000X-0.475000X0.250000X-0.475000X-0.250000X0*%
%TD*%
%TA.AperFunction,SMDPad,CuDef*%
%ADD29RoundRect,0.250000X-0.475000X0.250000X-0.475000X-0.250000X0.475000X-0.250000X0.475000X0.250000X0*%
%TD*%
%TA.AperFunction,SMDPad,CuDef*%
%ADD30RoundRect,0.250000X-0.250000X-0.475000X0.250000X-0.475000X0.250000X0.475000X-0.250000X0.475000X0*%
%TD*%
%TA.AperFunction,ComponentPad*%
%ADD31R,2.400000X2.400000*%
%TD*%
%TA.AperFunction,ViaPad*%
%ADD32C,0.800000*%
%TD*%
%TA.AperFunction,Conductor*%
%ADD33C,2.000000*%
%TD*%
%TA.AperFunction,Conductor*%
%ADD34C,0.250000*%
%TD*%
G04 APERTURE END LIST*
D10*
%TO.P,R2,1*%
%TO.N,GND*%
X76200000Y-120292500D03*
%TO.P,R2,2*%
%TO.N,Net-(C1-Pad2)*%
X76200000Y-118467500D03*
%TD*%
%TO.P,R14,1*%
%TO.N,GND*%
X83820000Y-66952500D03*
%TO.P,R14,2*%
%TO.N,Net-(D2-Pad1)*%
X83820000Y-65127500D03*
%TD*%
%TO.P,R13,1*%
%TO.N,Net-(D1-Pad2)*%
X91440000Y-99972500D03*
%TO.P,R13,2*%
%TO.N,+12V*%
X91440000Y-98147500D03*
%TD*%
D11*
%TO.P,D2,2,A*%
%TO.N,+5V*%
X83820000Y-58420000D03*
D12*
%TO.P,D2,1,K*%
%TO.N,Net-(D2-Pad1)*%
X83820000Y-60960000D03*
%TD*%
%TO.P,D1,1,K*%
%TO.N,GND*%
X91440000Y-106680000D03*
D11*
%TO.P,D1,2,A*%
%TO.N,Net-(D1-Pad2)*%
X91440000Y-104140000D03*
%TD*%
D13*
%TO.P,R12,1*%
%TO.N,Net-(C26-Pad1)*%
X18692500Y-71120000D03*
%TO.P,R12,2*%
%TO.N,Net-(C24-Pad1)*%
X16867500Y-71120000D03*
%TD*%
D10*
%TO.P,R11,1*%
%TO.N,GND*%
X34290000Y-122832500D03*
%TO.P,R11,2*%
%TO.N,Net-(CR2-Pad17)*%
X34290000Y-121007500D03*
%TD*%
D13*
%TO.P,R10,1*%
%TO.N,GND*%
X36472500Y-81280000D03*
%TO.P,R10,2*%
%TO.N,Net-(R10-Pad2)*%
X34647500Y-81280000D03*
%TD*%
D14*
%TO.P,R9,1*%
%TO.N,Net-(C15-Pad1)*%
X96520000Y-113387500D03*
%TO.P,R9,2*%
%TO.N,Net-(C17-Pad1)*%
X96520000Y-115212500D03*
%TD*%
%TO.P,R8,1*%
%TO.N,GND*%
X91440000Y-118467500D03*
%TO.P,R8,2*%
%TO.N,Net-(C14-Pad2)*%
X91440000Y-120292500D03*
%TD*%
%TO.P,R7,1*%
%TO.N,Net-(C14-Pad2)*%
X86360000Y-118467500D03*
%TO.P,R7,2*%
%TO.N,+12V*%
X86360000Y-120292500D03*
%TD*%
D13*
%TO.P,R6,1*%
%TO.N,Net-(C13-Pad1)*%
X18692500Y-45720000D03*
%TO.P,R6,2*%
%TO.N,Net-(C11-Pad1)*%
X16867500Y-45720000D03*
%TD*%
D10*
%TO.P,R5,1*%
%TO.N,GND*%
X34290000Y-105052500D03*
%TO.P,R5,2*%
%TO.N,Net-(CR1-Pad17)*%
X34290000Y-103227500D03*
%TD*%
D13*
%TO.P,R4,1*%
%TO.N,GND*%
X36472500Y-55880000D03*
%TO.P,R4,2*%
%TO.N,Net-(R4-Pad2)*%
X34647500Y-55880000D03*
%TD*%
D15*
%TO.P,R3,1*%
%TO.N,Net-(C2-Pad1)*%
X85447500Y-109220000D03*
%TO.P,R3,2*%
%TO.N,Net-(C4-Pad1)*%
X87272500Y-109220000D03*
%TD*%
D10*
%TO.P,R1,1*%
%TO.N,Net-(C1-Pad2)*%
X73660000Y-115212500D03*
%TO.P,R1,2*%
%TO.N,+12V*%
X73660000Y-113387500D03*
%TD*%
D16*
%TO.P,U6,1,R_OSC*%
%TO.N,Net-(R10-Pad2)*%
X30480000Y-81280000D03*
D17*
%TO.P,U6,2,C_OSC*%
%TO.N,Net-(C19-Pad2)*%
X25400000Y-80010000D03*
%TO.P,U6,3,RST*%
%TO.N,GND*%
X30480000Y-78740000D03*
%TO.P,U6,4,RST_OUT*%
%TO.N,unconnected-(U6-Pad4)*%
X25400000Y-77470000D03*
%TO.P,U6,5,RST_DLY*%
%TO.N,unconnected-(U6-Pad5)*%
X30480000Y-76200000D03*
%TO.P,U6,6,BOOT*%
%TO.N,Net-(C20-Pad2)*%
X25400000Y-74930000D03*
%TO.P,U6,7,OUT*%
%TO.N,/5VOUTPREIND*%
X30480000Y-73660000D03*
%TO.P,U6,8,GND*%
%TO.N,GND*%
X25400000Y-72390000D03*
%TO.P,U6,9,VI*%
%TO.N,+24V*%
X30480000Y-71120000D03*
%TO.P,U6,10,FCOMP*%
%TO.N,Net-(C26-Pad1)*%
X25400000Y-69850000D03*
%TO.P,U6,11,FB*%
%TO.N,+5V*%
X30480000Y-68580000D03*
%TO.P,U6,12,SS*%
%TO.N,unconnected-(U6-Pad12)*%
X25400000Y-67310000D03*
%TO.P,U6,13,SYNC*%
%TO.N,Net-(CR2-Pad10)*%
X30480000Y-66040000D03*
%TO.P,U6,14,VREF*%
%TO.N,unconnected-(U6-Pad14)*%
X25400000Y-64770000D03*
%TO.P,U6,15,VSTART*%
%TO.N,unconnected-(U6-Pad15)*%
X30480000Y-63500000D03*
%TD*%
D18*
%TO.P,U5,1,NC*%
%TO.N,unconnected-(U5-Pad1)*%
X43180000Y-77050900D03*
%TO.P,U5,2,A*%
%TO.N,GND*%
X48260000Y-77050900D03*
D19*
%TO.P,U5,3,K*%
%TO.N,/5VOUTPREIND*%
X45720000Y-66040000D03*
%TD*%
D18*
%TO.P,U4,1,NC*%
%TO.N,unconnected-(U4-Pad1)*%
X50800000Y-117690900D03*
%TO.P,U4,2,A*%
%TO.N,GND*%
X55880000Y-117690900D03*
D19*
%TO.P,U4,3,K*%
%TO.N,/12VOUTPREIND*%
X53340000Y-106680000D03*
%TD*%
D16*
%TO.P,U3,1,R_OSC*%
%TO.N,Net-(R4-Pad2)*%
X30480000Y-55880000D03*
D17*
%TO.P,U3,2,C_OSC*%
%TO.N,Net-(C6-Pad2)*%
X25400000Y-54610000D03*
%TO.P,U3,3,RST*%
%TO.N,GND*%
X30480000Y-53340000D03*
%TO.P,U3,4,RST_OUT*%
%TO.N,unconnected-(U3-Pad4)*%
X25400000Y-52070000D03*
%TO.P,U3,5,RST_DLY*%
%TO.N,unconnected-(U3-Pad5)*%
X30480000Y-50800000D03*
%TO.P,U3,6,BOOT*%
%TO.N,Net-(C7-Pad2)*%
X25400000Y-49530000D03*
%TO.P,U3,7,OUT*%
%TO.N,/5VOUTPREIND*%
X30480000Y-48260000D03*
%TO.P,U3,8,GND*%
%TO.N,GND*%
X25400000Y-46990000D03*
%TO.P,U3,9,VI*%
%TO.N,+24V*%
X30480000Y-45720000D03*
%TO.P,U3,10,FCOMP*%
%TO.N,Net-(C13-Pad1)*%
X25400000Y-44450000D03*
%TO.P,U3,11,FB*%
%TO.N,+5V*%
X30480000Y-43180000D03*
%TO.P,U3,12,SS*%
%TO.N,unconnected-(U3-Pad12)*%
X25400000Y-41910000D03*
%TO.P,U3,13,SYNC*%
%TO.N,Net-(CR1-Pad10)*%
X30480000Y-40640000D03*
%TO.P,U3,14,VREF*%
%TO.N,unconnected-(U3-Pad14)*%
X25400000Y-39370000D03*
%TO.P,U3,15,VSTART*%
%TO.N,unconnected-(U3-Pad15)*%
X30480000Y-38100000D03*
%TD*%
D18*
%TO.P,U2,1,NC*%
%TO.N,unconnected-(U2-Pad1)*%
X43180000Y-56730900D03*
%TO.P,U2,2,A*%
%TO.N,GND*%
X48260000Y-56730900D03*
D19*
%TO.P,U2,3,K*%
%TO.N,/5VOUTPREIND*%
X45720000Y-45720000D03*
%TD*%
D18*
%TO.P,U1,1,NC*%
%TO.N,unconnected-(U1-Pad1)*%
X50800000Y-97370900D03*
%TO.P,U1,2,A*%
%TO.N,GND*%
X55880000Y-97370900D03*
D19*
%TO.P,U1,3,K*%
%TO.N,/12VOUTPREIND*%
X53340000Y-86360000D03*
%TD*%
D20*
%TO.P,L4,2,2*%
%TO.N,+5V*%
X63340000Y-68580000D03*
%TO.P,L4,1,1*%
%TO.N,/5VOUTPREIND*%
X53340000Y-68580000D03*
%TD*%
%TO.P,L3,1,1*%
%TO.N,+12V*%
X70960000Y-114300000D03*
%TO.P,L3,2,2*%
%TO.N,/12VOUTPREIND*%
X60960000Y-114300000D03*
%TD*%
%TO.P,L2,2,2*%
%TO.N,+5V*%
X63500000Y-48260000D03*
%TO.P,L2,1,1*%
%TO.N,/5VOUTPREIND*%
X53500000Y-48260000D03*
%TD*%
%TO.P,L1,2,2*%
%TO.N,/12VOUTPREIND*%
X60960000Y-93980000D03*
%TO.P,L1,1,1*%
%TO.N,+12V*%
X70960000Y-93980000D03*
%TD*%
D21*
%TO.P,J3,2,Pin_2*%
%TO.N,GND*%
X91440000Y-88900000D03*
D22*
%TO.P,J3,1,Pin_1*%
%TO.N,/12VOUTPOSTEMER*%
X91440000Y-93900000D03*
%TD*%
%TO.P,J5,1,Pin_1*%
%TO.N,+5V*%
X88900000Y-53340000D03*
D21*
%TO.P,J5,2,Pin_2*%
%TO.N,GND*%
X88900000Y-48340000D03*
%TD*%
D22*
%TO.P,J1,1,Pin_1*%
%TO.N,/VBAT*%
X25400000Y-23320000D03*
D21*
%TO.P,J1,2,Pin_2*%
%TO.N,GND*%
X25400000Y-28320000D03*
%TD*%
D23*
%TO.P,F1,1*%
%TO.N,/VBAT*%
X40640000Y-22860000D03*
X35440000Y-22860000D03*
%TO.P,F1,2*%
%TO.N,+24V*%
X55940000Y-22860000D03*
X50740000Y-22860000D03*
%TD*%
D24*
%TO.P,EMER_STOP1,2,Pin_2*%
%TO.N,/12VOUTPOSTEMER*%
X91440000Y-72540000D03*
D25*
%TO.P,EMER_STOP1,1,Pin_1*%
%TO.N,+12V*%
X91440000Y-68580000D03*
%TD*%
D26*
%TO.P,CR2,1,BOOTSTRAP*%
%TO.N,Net-(C18-Pad1)*%
X41910000Y-109220000D03*
D27*
%TO.P,CR2,2,RESETDELAY*%
%TO.N,unconnected-(CR2-Pad2)*%
X39370000Y-109220000D03*
%TO.P,CR2,3,RESETOUT*%
%TO.N,unconnected-(CR2-Pad3)*%
X36830000Y-109220000D03*
%TO.P,CR2,4,PFAILINPUT*%
%TO.N,unconnected-(CR2-Pad4)*%
X34290000Y-109220000D03*
%TO.P,CR2,5,GND*%
%TO.N,GND*%
X31750000Y-109220000D03*
%TO.P,CR2,6,GND*%
X29210000Y-109220000D03*
%TO.P,CR2,7,FREQCOMP*%
%TO.N,Net-(C15-Pad1)*%
X26670000Y-109220000D03*
%TO.P,CR2,8,SOFTSTART*%
%TO.N,GND*%
X24130000Y-109220000D03*
%TO.P,CR2,9,FEEDBACKIN*%
%TO.N,Net-(C14-Pad2)*%
X21590000Y-109220000D03*
%TO.P,CR2,10,SYNCINPUT*%
%TO.N,Net-(CR2-Pad10)*%
X19050000Y-109220000D03*
%TO.P,CR2,11,VI*%
%TO.N,+24V*%
X19050000Y-116840000D03*
%TO.P,CR2,12,NC*%
%TO.N,unconnected-(CR2-Pad12)*%
X21590000Y-116840000D03*
%TO.P,CR2,13,VREF*%
%TO.N,unconnected-(CR2-Pad13)*%
X24130000Y-116840000D03*
%TO.P,CR2,14,VSTART*%
%TO.N,unconnected-(CR2-Pad14)*%
X26670000Y-116840000D03*
%TO.P,CR2,15,GND*%
%TO.N,GND*%
X29210000Y-116840000D03*
%TO.P,CR2,16,GND*%
X31750000Y-116840000D03*
%TO.P,CR2,17,ROSC*%
%TO.N,Net-(CR2-Pad17)*%
X34290000Y-116840000D03*
%TO.P,CR2,18,COSC*%
%TO.N,Net-(C25-Pad1)*%
X36830000Y-116840000D03*
%TO.P,CR2,19,NC*%
%TO.N,unconnected-(CR2-Pad19)*%
X39370000Y-116840000D03*
%TO.P,CR2,20,OUTPUT*%
%TO.N,/12VOUTPREIND*%
X41910000Y-116840000D03*
%TD*%
D26*
%TO.P,CR1,1,BOOTSTRAP*%
%TO.N,Net-(C5-Pad1)*%
X41910000Y-90170000D03*
D27*
%TO.P,CR1,2,RESETDELAY*%
%TO.N,unconnected-(CR1-Pad2)*%
X39370000Y-90170000D03*
%TO.P,CR1,3,RESETOUT*%
%TO.N,unconnected-(CR1-Pad3)*%
X36830000Y-90170000D03*
%TO.P,CR1,4,PFAILINPUT*%
%TO.N,unconnected-(CR1-Pad4)*%
X34290000Y-90170000D03*
%TO.P,CR1,5,GND*%
%TO.N,GND*%
X31750000Y-90170000D03*
%TO.P,CR1,6,GND*%
X29210000Y-90170000D03*
%TO.P,CR1,7,FREQCOMP*%
%TO.N,Net-(C2-Pad1)*%
X26670000Y-90170000D03*
%TO.P,CR1,8,SOFTSTART*%
%TO.N,GND*%
X24130000Y-90170000D03*
%TO.P,CR1,9,FEEDBACKIN*%
%TO.N,Net-(C1-Pad2)*%
X21590000Y-90170000D03*
%TO.P,CR1,10,SYNCINPUT*%
%TO.N,Net-(CR1-Pad10)*%
X19050000Y-90170000D03*
%TO.P,CR1,11,VI*%
%TO.N,+24V*%
X19050000Y-97790000D03*
%TO.P,CR1,12,NC*%
%TO.N,unconnected-(CR1-Pad12)*%
X21590000Y-97790000D03*
%TO.P,CR1,13,VREF*%
%TO.N,unconnected-(CR1-Pad13)*%
X24130000Y-97790000D03*
%TO.P,CR1,14,VSTART*%
%TO.N,unconnected-(CR1-Pad14)*%
X26670000Y-97790000D03*
%TO.P,CR1,15,GND*%
%TO.N,GND*%
X29210000Y-97790000D03*
%TO.P,CR1,16,GND*%
X31750000Y-97790000D03*
%TO.P,CR1,17,ROSC*%
%TO.N,Net-(CR1-Pad17)*%
X34290000Y-97790000D03*
%TO.P,CR1,18,COSC*%
%TO.N,Net-(C12-Pad1)*%
X36830000Y-97790000D03*
%TO.P,CR1,19,NC*%
%TO.N,unconnected-(CR1-Pad19)*%
X39370000Y-97790000D03*
%TO.P,CR1,20,OUTPUT*%
%TO.N,/12VOUTPREIND*%
X41910000Y-97790000D03*
%TD*%
D28*
%TO.P,C26,1*%
%TO.N,Net-(C26-Pad1)*%
X17780000Y-66990000D03*
%TO.P,C26,2*%
%TO.N,GND*%
X17780000Y-65090000D03*
%TD*%
D29*
%TO.P,C25,1*%
%TO.N,Net-(C25-Pad1)*%
X36830000Y-120970000D03*
%TO.P,C25,2*%
%TO.N,GND*%
X36830000Y-122870000D03*
%TD*%
D30*
%TO.P,C24,1*%
%TO.N,Net-(C24-Pad1)*%
X16830000Y-60960000D03*
%TO.P,C24,2*%
%TO.N,GND*%
X18730000Y-60960000D03*
%TD*%
D31*
%TO.P,C23,1*%
%TO.N,+24V*%
X88900000Y-30940000D03*
D20*
%TO.P,C23,2*%
%TO.N,GND*%
X88900000Y-35940000D03*
%TD*%
D31*
%TO.P,C22,1*%
%TO.N,+24V*%
X73660000Y-30940000D03*
D20*
%TO.P,C22,2*%
%TO.N,GND*%
X73660000Y-35940000D03*
%TD*%
%TO.P,C21,2*%
%TO.N,GND*%
X73660000Y-71040000D03*
D31*
%TO.P,C21,1*%
%TO.N,+5V*%
X73660000Y-66040000D03*
%TD*%
D29*
%TO.P,C20,1*%
%TO.N,/5VOUTPREIND*%
X35560000Y-72710000D03*
%TO.P,C20,2*%
%TO.N,Net-(C20-Pad2)*%
X35560000Y-74610000D03*
%TD*%
D30*
%TO.P,C19,1*%
%TO.N,GND*%
X16830000Y-81280000D03*
%TO.P,C19,2*%
%TO.N,Net-(C19-Pad2)*%
X18730000Y-81280000D03*
%TD*%
D28*
%TO.P,C18,1*%
%TO.N,Net-(C18-Pad1)*%
X41910000Y-105090000D03*
%TO.P,C18,2*%
%TO.N,/12VOUTPREIND*%
X41910000Y-103190000D03*
%TD*%
%TO.P,C17,1*%
%TO.N,Net-(C17-Pad1)*%
X96520000Y-120330000D03*
%TO.P,C17,2*%
%TO.N,GND*%
X96520000Y-118430000D03*
%TD*%
D31*
%TO.P,C16,1*%
%TO.N,+12V*%
X78740000Y-101600000D03*
D20*
%TO.P,C16,2*%
%TO.N,GND*%
X78740000Y-106600000D03*
%TD*%
D29*
%TO.P,C15,1*%
%TO.N,Net-(C15-Pad1)*%
X93980000Y-113350000D03*
%TO.P,C15,2*%
%TO.N,GND*%
X93980000Y-115250000D03*
%TD*%
D28*
%TO.P,C14,2*%
%TO.N,Net-(C14-Pad2)*%
X81280000Y-118430000D03*
%TO.P,C14,1*%
%TO.N,+12V*%
X81280000Y-120330000D03*
%TD*%
%TO.P,C13,1*%
%TO.N,Net-(C13-Pad1)*%
X17780000Y-41590000D03*
%TO.P,C13,2*%
%TO.N,GND*%
X17780000Y-39690000D03*
%TD*%
D29*
%TO.P,C12,1*%
%TO.N,Net-(C12-Pad1)*%
X36830000Y-103190000D03*
%TO.P,C12,2*%
%TO.N,GND*%
X36830000Y-105090000D03*
%TD*%
D30*
%TO.P,C11,1*%
%TO.N,Net-(C11-Pad1)*%
X16830000Y-35560000D03*
%TO.P,C11,2*%
%TO.N,GND*%
X18730000Y-35560000D03*
%TD*%
D31*
%TO.P,C10,1*%
%TO.N,+24V*%
X58420000Y-30940000D03*
D20*
%TO.P,C10,2*%
%TO.N,GND*%
X58420000Y-35940000D03*
%TD*%
D31*
%TO.P,C9,1*%
%TO.N,+24V*%
X43180000Y-30940000D03*
D20*
%TO.P,C9,2*%
%TO.N,GND*%
X43180000Y-35940000D03*
%TD*%
%TO.P,C8,2*%
%TO.N,GND*%
X73660000Y-50720000D03*
D31*
%TO.P,C8,1*%
%TO.N,+5V*%
X73660000Y-45720000D03*
%TD*%
D29*
%TO.P,C7,1*%
%TO.N,/5VOUTPREIND*%
X35560000Y-47310000D03*
%TO.P,C7,2*%
%TO.N,Net-(C7-Pad2)*%
X35560000Y-49210000D03*
%TD*%
D30*
%TO.P,C6,1*%
%TO.N,GND*%
X16830000Y-55880000D03*
%TO.P,C6,2*%
%TO.N,Net-(C6-Pad2)*%
X18730000Y-55880000D03*
%TD*%
D28*
%TO.P,C5,1*%
%TO.N,Net-(C5-Pad1)*%
X41910000Y-86360000D03*
%TO.P,C5,2*%
%TO.N,/12VOUTPREIND*%
X41910000Y-84460000D03*
%TD*%
D29*
%TO.P,C4,1*%
%TO.N,Net-(C4-Pad1)*%
X88900000Y-113350000D03*
%TO.P,C4,2*%
%TO.N,GND*%
X88900000Y-115250000D03*
%TD*%
D31*
%TO.P,C3,1*%
%TO.N,+12V*%
X76200000Y-81280000D03*
D20*
%TO.P,C3,2*%
%TO.N,GND*%
X76200000Y-86280000D03*
%TD*%
D29*
%TO.P,C2,1*%
%TO.N,Net-(C2-Pad1)*%
X83820000Y-113350000D03*
%TO.P,C2,2*%
%TO.N,GND*%
X83820000Y-115250000D03*
%TD*%
%TO.P,C1,1*%
%TO.N,+12V*%
X78740000Y-113350000D03*
%TO.P,C1,2*%
%TO.N,Net-(C1-Pad2)*%
X78740000Y-115250000D03*
%TD*%
D32*
%TO.N,GND*%
X60960000Y-109220000D03*
X44770000Y-122870000D03*
X22860000Y-86360000D03*
X60960000Y-76200000D03*
%TO.N,Net-(C1-Pad2)*%
X68580000Y-116840000D03*
X68580000Y-111760000D03*
%TO.N,Net-(C15-Pad1)*%
X93980000Y-109220000D03*
%TO.N,Net-(C1-Pad2)*%
X78740000Y-121920000D03*
X81280000Y-116840000D03*
%TO.N,GND*%
X86360000Y-111760000D03*
X73660000Y-119380000D03*
%TO.N,Net-(C15-Pad1)*%
X63500000Y-121920000D03*
%TO.N,Net-(C14-Pad2)*%
X30480000Y-111760000D03*
%TO.N,+24V*%
X20320000Y-104140000D03*
X45720000Y-82260480D03*
%TO.N,GND*%
X22860000Y-66040000D03*
X22860000Y-40640000D03*
%TO.N,+5V*%
X55880000Y-73660000D03*
%TO.N,GND*%
X34869930Y-53340000D03*
X60960000Y-58420000D03*
%TO.N,/5VOUTPREIND*%
X35560000Y-68580000D03*
X33020000Y-73660000D03*
X38100000Y-40640000D03*
%TO.N,GND*%
X22860000Y-35560000D03*
%TO.N,+12V*%
X73660000Y-109220000D03*
%TO.N,Net-(C20-Pad2)*%
X38100000Y-83820000D03*
X17780000Y-76200000D03*
%TD*%
D33*
%TO.N,GND*%
X36792500Y-122832500D02*
X36830000Y-122870000D01*
X33352570Y-122832500D02*
X36792500Y-122832500D01*
X44770000Y-122870000D02*
X50700900Y-122870000D01*
X36830000Y-122870000D02*
X44770000Y-122870000D01*
X60960000Y-102450900D02*
X60960000Y-109220000D01*
X55880000Y-97370900D02*
X60960000Y-102450900D01*
X21035070Y-86360000D02*
X22860000Y-86360000D01*
X16830000Y-82154930D02*
X21035070Y-86360000D01*
X16830000Y-81280000D02*
X16830000Y-82154930D01*
%TO.N,/5VOUTPREIND*%
X33735070Y-48260000D02*
X34685070Y-47310000D01*
X30480000Y-48260000D02*
X33735070Y-48260000D01*
X34685070Y-47310000D02*
X35285000Y-47310000D01*
%TO.N,GND*%
X60109100Y-77050900D02*
X60960000Y-76200000D01*
X48260000Y-77050900D02*
X60109100Y-77050900D01*
D34*
%TO.N,Net-(C1-Pad2)*%
X68580000Y-116840000D02*
X72032500Y-116840000D01*
X68580000Y-107292493D02*
X68580000Y-111760000D01*
X72032500Y-116840000D02*
X73660000Y-115212500D01*
X56835296Y-95547789D02*
X68580000Y-107292493D01*
D33*
%TO.N,/12VOUTPREIND*%
X60960000Y-114300000D02*
X53340000Y-106680000D01*
D34*
%TO.N,Net-(C2-Pad1)*%
X83820000Y-109524015D02*
X78435985Y-104140000D01*
X72070000Y-104140000D02*
X64450000Y-96520000D01*
X83820000Y-110847500D02*
X83820000Y-109524015D01*
X78435985Y-104140000D02*
X72070000Y-104140000D01*
%TO.N,Net-(C15-Pad1)*%
X93980000Y-109220000D02*
X93980000Y-113350000D01*
%TO.N,Net-(C14-Pad2)*%
X71120000Y-111760000D02*
X63692008Y-119187992D01*
X82004511Y-117705489D02*
X82004511Y-114741357D01*
X81280000Y-118430000D02*
X82004511Y-117705489D01*
X82004511Y-114741357D02*
X79023154Y-111760000D01*
X79023154Y-111760000D02*
X71120000Y-111760000D01*
%TO.N,Net-(C1-Pad2)*%
X75287500Y-118467500D02*
X76200000Y-118467500D01*
X73660000Y-115212500D02*
X73660000Y-116840000D01*
X73660000Y-116840000D02*
X75287500Y-118467500D01*
X80330000Y-116840000D02*
X78740000Y-115250000D01*
X81280000Y-116840000D02*
X80330000Y-116840000D01*
X78740000Y-120959346D02*
X78740000Y-121920000D01*
X76248154Y-118467500D02*
X78740000Y-120959346D01*
X76200000Y-118467500D02*
X76248154Y-118467500D01*
%TO.N,Net-(C14-Pad2)*%
X86360000Y-118467500D02*
X86322500Y-118430000D01*
X86322500Y-118430000D02*
X81280000Y-118430000D01*
X89566846Y-118467500D02*
X86360000Y-118467500D01*
X91391846Y-120292500D02*
X89566846Y-118467500D01*
X91440000Y-120292500D02*
X91391846Y-120292500D01*
%TO.N,Net-(C2-Pad1)*%
X83820000Y-110847500D02*
X83820000Y-113350000D01*
X85447500Y-109220000D02*
X83820000Y-110847500D01*
%TO.N,Net-(C4-Pad1)*%
X87026846Y-109220000D02*
X87272500Y-109220000D01*
X85035480Y-111211366D02*
X87026846Y-109220000D01*
X88900000Y-113350000D02*
X86076846Y-113350000D01*
X86076846Y-113350000D02*
X85035480Y-112308634D01*
X85035480Y-112308634D02*
X85035480Y-111211366D01*
D33*
%TO.N,GND*%
X86469520Y-111650480D02*
X91330480Y-111650480D01*
X86360000Y-111760000D02*
X86469520Y-111650480D01*
X91330480Y-111650480D02*
X91440000Y-111760000D01*
X74572500Y-120292500D02*
X73660000Y-119380000D01*
X76200000Y-120292500D02*
X74572500Y-120292500D01*
X91440000Y-113584930D02*
X91440000Y-106680000D01*
X89774930Y-115250000D02*
X91440000Y-113584930D01*
X88900000Y-115250000D02*
X89774930Y-115250000D01*
X93980000Y-115890000D02*
X96520000Y-118430000D01*
X93980000Y-115250000D02*
X93980000Y-115890000D01*
X93980000Y-115927500D02*
X91440000Y-118467500D01*
X93980000Y-115250000D02*
X93980000Y-115927500D01*
X91440000Y-117790000D02*
X88900000Y-115250000D01*
X91440000Y-118467500D02*
X91440000Y-117790000D01*
X83820000Y-115250000D02*
X88900000Y-115250000D01*
%TO.N,+12V*%
X80405070Y-120330000D02*
X81280000Y-120330000D01*
X78740000Y-118024930D02*
X78740000Y-118664930D01*
X76815480Y-116100410D02*
X78740000Y-118024930D01*
X78740000Y-118664930D02*
X80405070Y-120330000D01*
X76815480Y-114399590D02*
X76815480Y-116100410D01*
X77865070Y-113350000D02*
X76815480Y-114399590D01*
X78740000Y-113350000D02*
X77865070Y-113350000D01*
X86322500Y-120330000D02*
X86360000Y-120292500D01*
X81280000Y-120330000D02*
X86322500Y-120330000D01*
X71872500Y-113387500D02*
X70960000Y-114300000D01*
X73660000Y-113387500D02*
X71872500Y-113387500D01*
X73660000Y-113387500D02*
X78702500Y-113387500D01*
X78702500Y-113387500D02*
X78740000Y-113350000D01*
D34*
%TO.N,Net-(C14-Pad2)*%
X63692008Y-119187992D02*
X63884015Y-119380000D01*
X58354495Y-113850480D02*
X63692008Y-119187992D01*
%TO.N,Net-(C15-Pad1)*%
X94017500Y-113387500D02*
X96520000Y-113387500D01*
X93980000Y-113350000D02*
X94017500Y-113387500D01*
D33*
%TO.N,GND*%
X50700900Y-122870000D02*
X55880000Y-117690900D01*
D34*
%TO.N,Net-(C14-Pad2)*%
X32570480Y-113850480D02*
X30480000Y-111760000D01*
X32570480Y-113850480D02*
X58354495Y-113850480D01*
X32483525Y-113850480D02*
X32570480Y-113850480D01*
D33*
%TO.N,GND*%
X29210000Y-115570000D02*
X29210000Y-116840000D01*
X27940000Y-114300000D02*
X29210000Y-115570000D01*
X26724391Y-114300000D02*
X27940000Y-114300000D01*
X24130000Y-111705609D02*
X26724391Y-114300000D01*
X24130000Y-109220000D02*
X24130000Y-111705609D01*
X31115000Y-108585000D02*
X31750000Y-109220000D01*
X29210000Y-106680000D02*
X31115000Y-108585000D01*
X31115000Y-108585000D02*
X30480000Y-109220000D01*
X30480000Y-109220000D02*
X29210000Y-109220000D01*
X25400000Y-106680000D02*
X29210000Y-106680000D01*
X24130000Y-107950000D02*
X25400000Y-106680000D01*
X24130000Y-109220000D02*
X24130000Y-107950000D01*
X31750000Y-106655070D02*
X33352570Y-105052500D01*
X31750000Y-109220000D02*
X31750000Y-106655070D01*
X29210000Y-109220000D02*
X31750000Y-109220000D01*
X29210000Y-116840000D02*
X31750000Y-116840000D01*
X31750000Y-121229930D02*
X31750000Y-116840000D01*
X33352570Y-122832500D02*
X31750000Y-121229930D01*
X34290000Y-122832500D02*
X33352570Y-122832500D01*
%TO.N,+24V*%
X15240000Y-109220000D02*
X20320000Y-104140000D01*
X15240000Y-111760000D02*
X15240000Y-109220000D01*
X15240000Y-113030000D02*
X15240000Y-111760000D01*
X19050000Y-116840000D02*
X15240000Y-113030000D01*
X41620480Y-82260480D02*
X45720000Y-82260480D01*
X40039705Y-74414775D02*
X40039705Y-80679705D01*
X36635410Y-71010480D02*
X40039705Y-74414775D01*
X31846755Y-71010480D02*
X36635410Y-71010480D01*
X31737235Y-71120000D02*
X31846755Y-71010480D01*
X40039705Y-80679705D02*
X41620480Y-82260480D01*
X30480000Y-71120000D02*
X31737235Y-71120000D01*
D34*
%TO.N,Net-(C5-Pad1)*%
X41910000Y-90170000D02*
X41910000Y-86360000D01*
D33*
%TO.N,/12VOUTPREIND*%
X41910000Y-97790000D02*
X41910000Y-103190000D01*
X49850000Y-103190000D02*
X53340000Y-106680000D01*
X41910000Y-103190000D02*
X49850000Y-103190000D01*
%TO.N,GND*%
X36792500Y-105052500D02*
X36830000Y-105090000D01*
X34290000Y-105052500D02*
X36792500Y-105052500D01*
X33352570Y-105052500D02*
X34290000Y-105052500D01*
X31750000Y-97790000D02*
X31750000Y-103449930D01*
X31750000Y-103449930D02*
X33352570Y-105052500D01*
X36472500Y-82907500D02*
X29210000Y-90170000D01*
X36472500Y-81280000D02*
X36472500Y-82907500D01*
X22220000Y-66040000D02*
X22860000Y-66040000D01*
X18730000Y-62550000D02*
X22220000Y-66040000D01*
X18730000Y-62550000D02*
X18730000Y-60960000D01*
X18730000Y-64140000D02*
X18730000Y-62550000D01*
X32568511Y-79191489D02*
X32117022Y-78740000D01*
X35321419Y-79191489D02*
X32568511Y-79191489D01*
X36472500Y-80342570D02*
X35321419Y-79191489D01*
X32117022Y-78740000D02*
X30480000Y-78740000D01*
X36472500Y-81280000D02*
X36472500Y-80342570D01*
D34*
X21910000Y-38740000D02*
X21910000Y-39690000D01*
D33*
X18730000Y-35560000D02*
X21910000Y-38740000D01*
X21910000Y-39690000D02*
X18055000Y-39690000D01*
X22860000Y-40640000D02*
X21910000Y-39690000D01*
X16830000Y-55880000D02*
X16830000Y-54510681D01*
X16830000Y-54510681D02*
X24405201Y-46935480D01*
X16830000Y-58185070D02*
X18730000Y-60085070D01*
X16830000Y-55880000D02*
X16830000Y-58185070D01*
X18730000Y-60085070D02*
X18730000Y-60960000D01*
X17780000Y-65090000D02*
X18730000Y-64140000D01*
D34*
%TO.N,Net-(C24-Pad1)*%
X15689520Y-69942020D02*
X16867500Y-71120000D01*
X15689520Y-62100480D02*
X15689520Y-69942020D01*
X16830000Y-60960000D02*
X15689520Y-62100480D01*
D33*
%TO.N,/5VOUTPREIND*%
X45720000Y-66040000D02*
X45720000Y-45720000D01*
%TO.N,+5V*%
X55880000Y-73660000D02*
X58260000Y-73660000D01*
X58260000Y-73660000D02*
X63340000Y-68580000D01*
%TO.N,GND*%
X29210000Y-90170000D02*
X31750000Y-90170000D01*
%TO.N,/12VOUTPREIND*%
X51440000Y-84460000D02*
X53340000Y-86360000D01*
X41910000Y-84460000D02*
X51440000Y-84460000D01*
%TO.N,GND*%
X30480000Y-53340000D02*
X34869930Y-53340000D01*
X36472500Y-54942570D02*
X34869930Y-53340000D01*
X36472500Y-55880000D02*
X36472500Y-54942570D01*
X59270900Y-56730900D02*
X60960000Y-58420000D01*
X48260000Y-56730900D02*
X59270900Y-56730900D01*
%TO.N,/5VOUTPREIND*%
X35560000Y-68580000D02*
X43180000Y-68580000D01*
X43180000Y-68580000D02*
X45720000Y-66040000D01*
X30480000Y-73660000D02*
X33020000Y-73660000D01*
X40640000Y-40640000D02*
X45720000Y-45720000D01*
X38100000Y-40640000D02*
X40640000Y-40640000D01*
%TO.N,GND*%
X58420000Y-35940000D02*
X73660000Y-35940000D01*
X43180000Y-35940000D02*
X58420000Y-35940000D01*
X18730000Y-35560000D02*
X22860000Y-35560000D01*
D34*
%TO.N,Net-(D2-Pad1)*%
X83820000Y-65127500D02*
X83820000Y-60960000D01*
%TO.N,GND*%
X77747500Y-66952500D02*
X73660000Y-71040000D01*
X83820000Y-66952500D02*
X77747500Y-66952500D01*
D33*
X76200000Y-86280000D02*
X88820000Y-86280000D01*
X88820000Y-86280000D02*
X91440000Y-88900000D01*
D34*
%TO.N,Net-(C15-Pad1)*%
X48260000Y-114300000D02*
X55880000Y-114300000D01*
X55880000Y-114300000D02*
X63500000Y-121920000D01*
X46735489Y-115824511D02*
X48260000Y-114300000D01*
X33274511Y-115824511D02*
X46735489Y-115824511D01*
X26670000Y-109220000D02*
X33274511Y-115824511D01*
%TO.N,+12V*%
X81242500Y-120330000D02*
X81255923Y-120316577D01*
D33*
X71120000Y-114300000D02*
X70960000Y-114300000D01*
X71120000Y-93980000D02*
X78740000Y-101600000D01*
X70960000Y-93980000D02*
X71120000Y-93980000D01*
X82192500Y-98147500D02*
X91440000Y-98147500D01*
X78740000Y-101600000D02*
X82192500Y-98147500D01*
%TO.N,/12VOUTPOSTEMER*%
X96520000Y-86360000D02*
X96520000Y-88820000D01*
X94619520Y-84459520D02*
X96520000Y-86360000D01*
X96520000Y-88820000D02*
X91440000Y-93900000D01*
X94619520Y-75719520D02*
X94619520Y-84459520D01*
X91440000Y-72540000D02*
X94619520Y-75719520D01*
%TO.N,+12V*%
X88900000Y-68580000D02*
X91440000Y-68580000D01*
X76200000Y-81280000D02*
X88900000Y-68580000D01*
X70960000Y-86520000D02*
X76200000Y-81280000D01*
X70960000Y-93980000D02*
X70960000Y-86520000D01*
%TO.N,/12VOUTPREIND*%
X53340000Y-86360000D02*
X60960000Y-93980000D01*
%TO.N,+5V*%
X81280000Y-58420000D02*
X83820000Y-58420000D01*
X73660000Y-66040000D02*
X81280000Y-58420000D01*
X71120000Y-68580000D02*
X73660000Y-66040000D01*
X63340000Y-68580000D02*
X71120000Y-68580000D01*
%TO.N,/5VOUTPREIND*%
X50800000Y-66040000D02*
X53340000Y-68580000D01*
X45720000Y-66040000D02*
X50800000Y-66040000D01*
X53500000Y-48260000D02*
X48260000Y-48260000D01*
X48260000Y-48260000D02*
X45720000Y-45720000D01*
%TO.N,+5V*%
X66040000Y-45720000D02*
X63500000Y-48260000D01*
X73660000Y-45720000D02*
X66040000Y-45720000D01*
X83820000Y-55880000D02*
X73660000Y-45720000D01*
X83820000Y-58420000D02*
X83820000Y-55880000D01*
X88900000Y-53340000D02*
X83820000Y-58420000D01*
%TO.N,+24V*%
X33020000Y-71120000D02*
X30480000Y-71120000D01*
X33020000Y-65373154D02*
X33020000Y-71120000D01*
X39424520Y-51201366D02*
X39424520Y-58968634D01*
X37484520Y-49261366D02*
X39424520Y-51201366D01*
X37484520Y-45104520D02*
X37484520Y-49261366D01*
X35560000Y-43180000D02*
X37484520Y-45104520D01*
X39424520Y-58968634D02*
X33020000Y-65373154D01*
X35560000Y-43180000D02*
X33020000Y-45720000D01*
X35560000Y-38560000D02*
X35560000Y-43180000D01*
X33020000Y-45720000D02*
X30480000Y-45720000D01*
X43180000Y-30940000D02*
X35560000Y-38560000D01*
X55940000Y-28460000D02*
X58420000Y-30940000D01*
X55940000Y-22860000D02*
X55940000Y-28460000D01*
X43180000Y-30940000D02*
X88900000Y-30940000D01*
X50740000Y-22860000D02*
X55940000Y-22860000D01*
%TO.N,/VBAT*%
X35440000Y-22860000D02*
X40640000Y-22860000D01*
X34980000Y-23320000D02*
X35440000Y-22860000D01*
X25400000Y-23320000D02*
X34980000Y-23320000D01*
D34*
%TO.N,Net-(D1-Pad2)*%
X91440000Y-99972500D02*
X91440000Y-104140000D01*
%TO.N,Net-(C4-Pad1)*%
X87272500Y-109897500D02*
X87272500Y-109220000D01*
%TO.N,Net-(C26-Pad1)*%
X17780000Y-70207500D02*
X18692500Y-71120000D01*
X17780000Y-66990000D02*
X17780000Y-70207500D01*
%TO.N,Net-(C6-Pad2)*%
X27940000Y-50353835D02*
X27940000Y-52070000D01*
X25846165Y-48260000D02*
X27940000Y-50353835D01*
X24953835Y-48260000D02*
X25846165Y-48260000D01*
X27940000Y-52070000D02*
X25400000Y-54610000D01*
X18730000Y-54483835D02*
X24953835Y-48260000D01*
X18730000Y-55880000D02*
X18730000Y-54483835D01*
%TO.N,Net-(C11-Pad1)*%
X16730480Y-45582980D02*
X16867500Y-45720000D01*
X16730480Y-35659520D02*
X16730480Y-45582980D01*
X16830000Y-35560000D02*
X16730480Y-35659520D01*
%TO.N,Net-(C1-Pad2)*%
X26967789Y-95547789D02*
X56835296Y-95547789D01*
X21590000Y-90170000D02*
X26967789Y-95547789D01*
%TO.N,Net-(C2-Pad1)*%
X58420000Y-93980000D02*
X60960000Y-96520000D01*
X60960000Y-96520000D02*
X64450000Y-96520000D01*
X26670000Y-90170000D02*
X30480000Y-93980000D01*
X30480000Y-93980000D02*
X58420000Y-93980000D01*
%TO.N,Net-(CR2-Pad17)*%
X34290000Y-121007500D02*
X34290000Y-116840000D01*
%TO.N,Net-(C25-Pad1)*%
X36830000Y-120970000D02*
X36830000Y-116840000D01*
%TO.N,Net-(CR1-Pad17)*%
X34290000Y-103227500D02*
X34290000Y-97790000D01*
%TO.N,Net-(C12-Pad1)*%
X36830000Y-103190000D02*
X36830000Y-97790000D01*
%TO.N,Net-(C18-Pad1)*%
X41910000Y-109220000D02*
X41910000Y-105090000D01*
%TO.N,Net-(CR2-Pad10)*%
X22860000Y-105410000D02*
X19050000Y-109220000D01*
X20320000Y-88900000D02*
X20320000Y-93980000D01*
X25400000Y-88900000D02*
X20320000Y-88900000D01*
X22860000Y-96520000D02*
X22860000Y-105410000D01*
X27940000Y-86360000D02*
X25400000Y-88900000D01*
X20320000Y-93980000D02*
X22860000Y-96520000D01*
X27940000Y-68580000D02*
X27940000Y-86360000D01*
X30480000Y-66040000D02*
X27940000Y-68580000D01*
%TO.N,Net-(C26-Pad1)*%
X19962500Y-69850000D02*
X18692500Y-71120000D01*
X25400000Y-69850000D02*
X19962500Y-69850000D01*
%TO.N,Net-(C20-Pad2)*%
X38100000Y-77150000D02*
X35560000Y-74610000D01*
X38100000Y-83820000D02*
X38100000Y-77150000D01*
X19050000Y-74930000D02*
X17780000Y-76200000D01*
X25400000Y-74930000D02*
X19050000Y-74930000D01*
%TO.N,Net-(C19-Pad2)*%
X20000000Y-80010000D02*
X18730000Y-81280000D01*
X25400000Y-80010000D02*
X20000000Y-80010000D01*
%TO.N,Net-(R10-Pad2)*%
X30480000Y-81280000D02*
X34647500Y-81280000D01*
%TO.N,Net-(CR1-Pad10)*%
X22860000Y-33020000D02*
X30480000Y-40640000D01*
X15240000Y-33020000D02*
X22860000Y-33020000D01*
X15240000Y-86360000D02*
X15240000Y-33020000D01*
X19050000Y-90170000D02*
X15240000Y-86360000D01*
%TO.N,Net-(C13-Pad1)*%
X19962500Y-44450000D02*
X18692500Y-45720000D01*
X25400000Y-44450000D02*
X19962500Y-44450000D01*
%TO.N,Net-(C7-Pad2)*%
X38100000Y-51750000D02*
X35560000Y-49210000D01*
X38100000Y-58420000D02*
X38100000Y-51750000D01*
X22860000Y-55880000D02*
X25400000Y-58420000D01*
X25400000Y-58420000D02*
X38100000Y-58420000D01*
X22860000Y-52070000D02*
X22860000Y-55880000D01*
X25400000Y-49530000D02*
X22860000Y-52070000D01*
%TO.N,Net-(R4-Pad2)*%
X30480000Y-55880000D02*
X34647500Y-55880000D01*
%TD*%
M02*
