%TF.GenerationSoftware,KiCad,Pcbnew,(6.0.1)*%
%TF.CreationDate,2022-02-19T17:03:56+01:00*%
%TF.ProjectId,PSU,5053552e-6b69-4636-9164-5f7063625858,rev?*%
%TF.SameCoordinates,Original*%
%TF.FileFunction,Profile,NP*%
%FSLAX46Y46*%
G04 Gerber Fmt 4.6, Leading zero omitted, Abs format (unit mm)*
G04 Created by KiCad (PCBNEW (6.0.1)) date 2022-02-19 17:03:56*
%MOMM*%
%LPD*%
G01*
G04 APERTURE LIST*
%ADD10C,0.150000*%
%TA.AperFunction,Profile*%
%ADD11C,0.100000*%
%TD*%
G04 APERTURE END LIST*
D10*
X65644761Y-22788571D02*
X65978095Y-22788571D01*
X66120952Y-23312380D02*
X65644761Y-23312380D01*
X65644761Y-22312380D01*
X66120952Y-22312380D01*
X66549523Y-22312380D02*
X66549523Y-23121904D01*
X66597142Y-23217142D01*
X66644761Y-23264761D01*
X66740000Y-23312380D01*
X66930476Y-23312380D01*
X67025714Y-23264761D01*
X67073333Y-23217142D01*
X67120952Y-23121904D01*
X67120952Y-22312380D01*
X68168571Y-23312380D02*
X67835238Y-22836190D01*
X67597142Y-23312380D02*
X67597142Y-22312380D01*
X67978095Y-22312380D01*
X68073333Y-22360000D01*
X68120952Y-22407619D01*
X68168571Y-22502857D01*
X68168571Y-22645714D01*
X68120952Y-22740952D01*
X68073333Y-22788571D01*
X67978095Y-22836190D01*
X67597142Y-22836190D01*
X68787619Y-22312380D02*
X68978095Y-22312380D01*
X69073333Y-22360000D01*
X69168571Y-22455238D01*
X69216190Y-22645714D01*
X69216190Y-22979047D01*
X69168571Y-23169523D01*
X69073333Y-23264761D01*
X68978095Y-23312380D01*
X68787619Y-23312380D01*
X68692380Y-23264761D01*
X68597142Y-23169523D01*
X68549523Y-22979047D01*
X68549523Y-22645714D01*
X68597142Y-22455238D01*
X68692380Y-22360000D01*
X68787619Y-22312380D01*
X69978095Y-22788571D02*
X70120952Y-22836190D01*
X70168571Y-22883809D01*
X70216190Y-22979047D01*
X70216190Y-23121904D01*
X70168571Y-23217142D01*
X70120952Y-23264761D01*
X70025714Y-23312380D01*
X69644761Y-23312380D01*
X69644761Y-22312380D01*
X69978095Y-22312380D01*
X70073333Y-22360000D01*
X70120952Y-22407619D01*
X70168571Y-22502857D01*
X70168571Y-22598095D01*
X70120952Y-22693333D01*
X70073333Y-22740952D01*
X69978095Y-22788571D01*
X69644761Y-22788571D01*
X70835238Y-22312380D02*
X71025714Y-22312380D01*
X71120952Y-22360000D01*
X71216190Y-22455238D01*
X71263809Y-22645714D01*
X71263809Y-22979047D01*
X71216190Y-23169523D01*
X71120952Y-23264761D01*
X71025714Y-23312380D01*
X70835238Y-23312380D01*
X70740000Y-23264761D01*
X70644761Y-23169523D01*
X70597142Y-22979047D01*
X70597142Y-22645714D01*
X70644761Y-22455238D01*
X70740000Y-22360000D01*
X70835238Y-22312380D01*
X71549523Y-22312380D02*
X72120952Y-22312380D01*
X71835238Y-23312380D02*
X71835238Y-22312380D01*
X73216190Y-23312380D02*
X73216190Y-22312380D01*
X73597142Y-22312380D01*
X73692380Y-22360000D01*
X73740000Y-22407619D01*
X73787619Y-22502857D01*
X73787619Y-22645714D01*
X73740000Y-22740952D01*
X73692380Y-22788571D01*
X73597142Y-22836190D01*
X73216190Y-22836190D01*
X74168571Y-23264761D02*
X74311428Y-23312380D01*
X74549523Y-23312380D01*
X74644761Y-23264761D01*
X74692380Y-23217142D01*
X74740000Y-23121904D01*
X74740000Y-23026666D01*
X74692380Y-22931428D01*
X74644761Y-22883809D01*
X74549523Y-22836190D01*
X74359047Y-22788571D01*
X74263809Y-22740952D01*
X74216190Y-22693333D01*
X74168571Y-22598095D01*
X74168571Y-22502857D01*
X74216190Y-22407619D01*
X74263809Y-22360000D01*
X74359047Y-22312380D01*
X74597142Y-22312380D01*
X74740000Y-22360000D01*
X75168571Y-22312380D02*
X75168571Y-23121904D01*
X75216190Y-23217142D01*
X75263809Y-23264761D01*
X75359047Y-23312380D01*
X75549523Y-23312380D01*
X75644761Y-23264761D01*
X75692380Y-23217142D01*
X75740000Y-23121904D01*
X75740000Y-22312380D01*
X76978095Y-22931428D02*
X77740000Y-22931428D01*
X78930476Y-23026666D02*
X79406666Y-23026666D01*
X78835238Y-23312380D02*
X79168571Y-22312380D01*
X79501904Y-23312380D01*
X80406666Y-23312380D02*
X80073333Y-22836190D01*
X79835238Y-23312380D02*
X79835238Y-22312380D01*
X80216190Y-22312380D01*
X80311428Y-22360000D01*
X80359047Y-22407619D01*
X80406666Y-22502857D01*
X80406666Y-22645714D01*
X80359047Y-22740952D01*
X80311428Y-22788571D01*
X80216190Y-22836190D01*
X79835238Y-22836190D01*
X80835238Y-22788571D02*
X81168571Y-22788571D01*
X81311428Y-23312380D02*
X80835238Y-23312380D01*
X80835238Y-22312380D01*
X81311428Y-22312380D01*
X81740000Y-23312380D02*
X81740000Y-22312380D01*
X82073333Y-23026666D01*
X82406666Y-22312380D01*
X82406666Y-23312380D01*
X83644761Y-23312380D02*
X83644761Y-22312380D01*
X84073333Y-23264761D02*
X84216190Y-23312380D01*
X84454285Y-23312380D01*
X84549523Y-23264761D01*
X84597142Y-23217142D01*
X84644761Y-23121904D01*
X84644761Y-23026666D01*
X84597142Y-22931428D01*
X84549523Y-22883809D01*
X84454285Y-22836190D01*
X84263809Y-22788571D01*
X84168571Y-22740952D01*
X84120952Y-22693333D01*
X84073333Y-22598095D01*
X84073333Y-22502857D01*
X84120952Y-22407619D01*
X84168571Y-22360000D01*
X84263809Y-22312380D01*
X84501904Y-22312380D01*
X84644761Y-22360000D01*
X85073333Y-23312380D02*
X85073333Y-22312380D01*
X85406666Y-23026666D01*
X85740000Y-22312380D01*
X85740000Y-23312380D01*
X86216190Y-23312380D02*
X86216190Y-22312380D01*
X86692380Y-23312380D02*
X86692380Y-22312380D01*
X87263809Y-23312380D01*
X87263809Y-22312380D01*
X88454285Y-22407619D02*
X88501904Y-22360000D01*
X88597142Y-22312380D01*
X88835238Y-22312380D01*
X88930476Y-22360000D01*
X88978095Y-22407619D01*
X89025714Y-22502857D01*
X89025714Y-22598095D01*
X88978095Y-22740952D01*
X88406666Y-23312380D01*
X89025714Y-23312380D01*
X89644761Y-22312380D02*
X89740000Y-22312380D01*
X89835238Y-22360000D01*
X89882857Y-22407619D01*
X89930476Y-22502857D01*
X89978095Y-22693333D01*
X89978095Y-22931428D01*
X89930476Y-23121904D01*
X89882857Y-23217142D01*
X89835238Y-23264761D01*
X89740000Y-23312380D01*
X89644761Y-23312380D01*
X89549523Y-23264761D01*
X89501904Y-23217142D01*
X89454285Y-23121904D01*
X89406666Y-22931428D01*
X89406666Y-22693333D01*
X89454285Y-22502857D01*
X89501904Y-22407619D01*
X89549523Y-22360000D01*
X89644761Y-22312380D01*
X90359047Y-22407619D02*
X90406666Y-22360000D01*
X90501904Y-22312380D01*
X90740000Y-22312380D01*
X90835238Y-22360000D01*
X90882857Y-22407619D01*
X90930476Y-22502857D01*
X90930476Y-22598095D01*
X90882857Y-22740952D01*
X90311428Y-23312380D01*
X90930476Y-23312380D01*
X91311428Y-22407619D02*
X91359047Y-22360000D01*
X91454285Y-22312380D01*
X91692380Y-22312380D01*
X91787619Y-22360000D01*
X91835238Y-22407619D01*
X91882857Y-22502857D01*
X91882857Y-22598095D01*
X91835238Y-22740952D01*
X91263809Y-23312380D01*
X91882857Y-23312380D01*
X89392380Y-84272380D02*
X88820952Y-84272380D01*
X89106666Y-84272380D02*
X89106666Y-83272380D01*
X89011428Y-83415238D01*
X88916190Y-83510476D01*
X88820952Y-83558095D01*
X89773333Y-83367619D02*
X89820952Y-83320000D01*
X89916190Y-83272380D01*
X90154285Y-83272380D01*
X90249523Y-83320000D01*
X90297142Y-83367619D01*
X90344761Y-83462857D01*
X90344761Y-83558095D01*
X90297142Y-83700952D01*
X89725714Y-84272380D01*
X90344761Y-84272380D01*
X90630476Y-83272380D02*
X90963809Y-84272380D01*
X91297142Y-83272380D01*
X91820952Y-83272380D02*
X92011428Y-83272380D01*
X92106666Y-83320000D01*
X92201904Y-83415238D01*
X92249523Y-83605714D01*
X92249523Y-83939047D01*
X92201904Y-84129523D01*
X92106666Y-84224761D01*
X92011428Y-84272380D01*
X91820952Y-84272380D01*
X91725714Y-84224761D01*
X91630476Y-84129523D01*
X91582857Y-83939047D01*
X91582857Y-83605714D01*
X91630476Y-83415238D01*
X91725714Y-83320000D01*
X91820952Y-83272380D01*
X92678095Y-83272380D02*
X92678095Y-84081904D01*
X92725714Y-84177142D01*
X92773333Y-84224761D01*
X92868571Y-84272380D01*
X93059047Y-84272380D01*
X93154285Y-84224761D01*
X93201904Y-84177142D01*
X93249523Y-84081904D01*
X93249523Y-83272380D01*
X93582857Y-83272380D02*
X94154285Y-83272380D01*
X93868571Y-84272380D02*
X93868571Y-83272380D01*
X95972380Y-52419047D02*
X95972380Y-52895238D01*
X96448571Y-52942857D01*
X96400952Y-52895238D01*
X96353333Y-52800000D01*
X96353333Y-52561904D01*
X96400952Y-52466666D01*
X96448571Y-52419047D01*
X96543809Y-52371428D01*
X96781904Y-52371428D01*
X96877142Y-52419047D01*
X96924761Y-52466666D01*
X96972380Y-52561904D01*
X96972380Y-52800000D01*
X96924761Y-52895238D01*
X96877142Y-52942857D01*
X95972380Y-52085714D02*
X96972380Y-51752380D01*
X95972380Y-51419047D01*
X95972380Y-50895238D02*
X95972380Y-50704761D01*
X96020000Y-50609523D01*
X96115238Y-50514285D01*
X96305714Y-50466666D01*
X96639047Y-50466666D01*
X96829523Y-50514285D01*
X96924761Y-50609523D01*
X96972380Y-50704761D01*
X96972380Y-50895238D01*
X96924761Y-50990476D01*
X96829523Y-51085714D01*
X96639047Y-51133333D01*
X96305714Y-51133333D01*
X96115238Y-51085714D01*
X96020000Y-50990476D01*
X95972380Y-50895238D01*
X95972380Y-50038095D02*
X96781904Y-50038095D01*
X96877142Y-49990476D01*
X96924761Y-49942857D01*
X96972380Y-49847619D01*
X96972380Y-49657142D01*
X96924761Y-49561904D01*
X96877142Y-49514285D01*
X96781904Y-49466666D01*
X95972380Y-49466666D01*
X95972380Y-49133333D02*
X95972380Y-48561904D01*
X96972380Y-48847619D02*
X95972380Y-48847619D01*
D11*
X12700000Y-17780000D02*
X99060000Y-17780000D01*
X99060000Y-17780000D02*
X99060000Y-124460000D01*
X99060000Y-124460000D02*
X12700000Y-124460000D01*
X12700000Y-124460000D02*
X12700000Y-17780000D01*
M02*
